<svg xmlns="http://www.w3.org/2000/svg" xmlns:xlink="http://www.w3.org/1999/xlink" width="500" zoomAndPan="magnify" viewBox="0 0 375 374.999991" height="500" preserveAspectRatio="xMidYMid meet" version="1.0"><defs><clipPath id="4c1a7e2c46"><path d="M 0 262.871094 L 369.726562 262.871094 L 369.726562 284.34375 L 0 284.34375 Z M 0 262.871094 " clip-rule="nonzero"/></clipPath></defs><path fill="#ffffff" d="M 244.296875 188.933594 L 299.066406 123.378906 C 305.289062 115.933594 303.90625 104.78125 296.058594 99.082031 C 288.210938 93.378906 277.179688 95.511719 272.019531 103.726562 L 226.597656 176.074219 C 223.53125 180.960938 224.773438 187.382812 229.4375 190.773438 C 234.105469 194.164062 240.601562 193.359375 244.296875 188.933594 " fill-opacity="1" fill-rule="nonzero"/><path fill="#ffffff" d="M 256.988281 228.691406 C 258.769531 234.175781 264.496094 237.34375 270.089844 235.9375 L 316.425781 219.5625 C 323.789062 217.710938 328.046875 210.011719 325.699219 202.789062 C 323.355469 195.566406 315.386719 191.839844 308.339844 194.671875 L 263.328125 215.128906 C 257.976562 217.277344 255.207031 223.207031 256.988281 228.691406 " fill-opacity="1" fill-rule="nonzero"/><path fill="#ffffff" d="M 53.300781 219.5625 L 99.640625 235.9375 C 105.230469 237.34375 110.957031 234.175781 112.738281 228.691406 C 114.523438 223.207031 111.75 217.277344 106.398438 215.128906 L 61.386719 194.671875 C 54.34375 191.839844 46.375 195.566406 44.027344 202.789062 C 41.679688 210.011719 45.9375 217.710938 53.300781 219.5625 " fill-opacity="1" fill-rule="nonzero"/><path fill="#ffffff" d="M 125.429688 188.933594 C 129.128906 193.359375 135.625 194.164062 140.289062 190.773438 C 144.953125 187.382812 146.195312 180.960938 143.128906 176.074219 L 97.707031 103.726562 C 92.550781 95.511719 81.515625 93.378906 73.667969 99.082031 C 65.824219 104.78125 64.441406 115.933594 70.660156 123.378906 L 125.429688 188.933594 " fill-opacity="1" fill-rule="nonzero"/><path fill="#ffffff" d="M 184.863281 176.292969 C 190.628906 176.292969 195.410156 171.824219 195.804688 166.070312 L 197.949219 114.46875 C 198.464844 106.894531 192.457031 100.464844 184.863281 100.464844 C 177.269531 100.464844 171.261719 106.894531 171.777344 114.46875 L 173.925781 166.070312 C 174.316406 171.824219 179.097656 176.292969 184.863281 176.292969 " fill-opacity="1" fill-rule="nonzero"/><path fill="#ffffff" d="M 184.863281 186.238281 C 148.496094 186.238281 118.929688 215.734375 118.929688 252.101562 C 118.929688 253.238281 119.011719 254.355469 119.066406 255.476562 L 250.65625 255.476562 C 250.714844 254.355469 250.796875 253.238281 250.796875 252.101562 C 250.796875 215.734375 221.300781 186.238281 184.863281 186.238281 " fill-opacity="1" fill-rule="nonzero"/><g clip-path="url(#4c1a7e2c46)"><path fill="#ffffff" d="M 362.179688 262.871094 L 7.597656 262.871094 C 4.984375 262.871094 2.671875 264.734375 1.300781 267.582031 C 0.480469 269.289062 0 271.351562 0 273.570312 C 0 275.796875 0.480469 277.867188 1.300781 279.585938 C 1.847656 280.730469 2.546875 281.722656 3.355469 282.5 C 3.960938 283.082031 4.632812 283.542969 5.34375 283.859375 C 6.058594 284.175781 6.816406 284.34375 7.597656 284.34375 L 362.179688 284.34375 C 362.960938 284.34375 363.71875 284.175781 364.429688 283.859375 C 365.136719 283.542969 365.800781 283.082031 366.402344 282.5 C 367.207031 281.722656 367.898438 280.730469 368.441406 279.585938 C 369.253906 277.867188 369.726562 275.796875 369.726562 273.570312 C 369.726562 267.644531 366.359375 262.871094 362.179688 262.871094 " fill-opacity="1" fill-rule="nonzero"/></g></svg>