<svg xmlns="http://www.w3.org/2000/svg" xmlns:xlink="http://www.w3.org/1999/xlink" width="500" zoomAndPan="magnify" viewBox="0 0 375 374.999991" height="500" preserveAspectRatio="xMidYMid meet" version="1.0"><defs><clipPath id="b8ad56dad4"><path d="M 143 60.226562 L 160 60.226562 L 160 110 L 143 110 Z M 143 60.226562 " clip-rule="nonzero"/></clipPath><clipPath id="cf5324ded5"><path d="M 22.566406 180 L 72 180 L 72 198 L 22.566406 198 Z M 22.566406 180 " clip-rule="nonzero"/></clipPath><clipPath id="3baf67f61d"><path d="M 215 60.226562 L 232 60.226562 L 232 110 L 215 110 Z M 215 60.226562 " clip-rule="nonzero"/></clipPath><clipPath id="d7d5c20871"><path d="M 303 180 L 351.816406 180 L 351.816406 198 L 303 198 Z M 303 180 " clip-rule="nonzero"/></clipPath></defs><g clip-path="url(#b8ad56dad4)"><path fill="#ffffff" d="M 152.648438 109.121094 L 159.4375 107.300781 L 143.1875 60.226562 Z M 152.648438 109.121094 " fill-opacity="1" fill-rule="evenodd"/></g><path fill="#ffffff" d="M 99.363281 141.988281 L 104.332031 137.019531 L 66.71875 104.375 Z M 99.363281 141.988281 " fill-opacity="1" fill-rule="evenodd"/><g clip-path="url(#cf5324ded5)"><path fill="#ffffff" d="M 69.644531 197.09375 L 71.464844 190.308594 L 22.570312 180.84375 Z M 69.644531 197.09375 " fill-opacity="1" fill-rule="evenodd"/></g><g clip-path="url(#3baf67f61d)"><path fill="#ffffff" d="M 215.234375 107.300781 L 222.023438 109.121094 L 231.484375 60.226562 Z M 215.234375 107.300781 " fill-opacity="1" fill-rule="evenodd"/></g><g clip-path="url(#d7d5c20871)"><path fill="#ffffff" d="M 303.207031 190.308594 L 305.023438 197.09375 L 352.101562 180.84375 Z M 303.207031 190.308594 " fill-opacity="1" fill-rule="evenodd"/></g><path fill="#ffffff" d="M 270.339844 137.019531 L 275.308594 141.988281 L 307.953125 104.375 Z M 270.339844 137.019531 " fill-opacity="1" fill-rule="evenodd"/><path fill="#ffffff" d="M 290.773438 224.984375 L 279.574219 224.984375 C 279.5625 174.039062 238.28125 132.757812 187.335938 132.757812 C 136.390625 132.757812 95.097656 174.050781 95.097656 224.996094 L 83.898438 224.996094 C 83.898438 167.867188 130.207031 121.5625 187.335938 121.5625 C 244.464844 121.5625 290.757812 167.855469 290.773438 224.984375 Z M 290.773438 224.984375 " fill-opacity="1" fill-rule="evenodd"/></svg>