<svg xmlns="http://www.w3.org/2000/svg" xmlns:xlink="http://www.w3.org/1999/xlink" width="500" zoomAndPan="magnify" viewBox="0 0 375 374.999991" height="500" preserveAspectRatio="xMidYMid meet" version="1.0"><defs><clipPath id="3e8fa2e38d"><path d="M 0 0 L 375 0 L 375 360.75 L 0 360.75 Z M 0 0 " clip-rule="nonzero"/></clipPath></defs><g clip-path="url(#3e8fa2e38d)"><path fill="#ffffff" d="M 85.945312 12.21875 C 36.050781 47.59375 6.574219 104.285156 6.574219 165.871094 C 6.574219 269.757812 91.09375 354.273438 194.976562 354.273438 C 267.132812 354.273438 332.378906 313.355469 364 249.175781 C 335.125 265.257812 302.589844 273.71875 269.261719 273.71875 C 217.183594 273.714844 168.222656 253.4375 131.398438 216.609375 C 94.570312 179.78125 74.292969 130.820312 74.292969 78.742188 C 74.292969 55.820312 78.207031 33.488281 85.945312 12.21875 Z M 194.976562 360.84375 C 142.898438 360.84375 93.933594 340.566406 57.109375 303.738281 C 20.285156 266.914062 0 217.953125 0 165.871094 C 0 132.34375 8.652344 99.277344 25.035156 70.246094 C 40.898438 42.105469 63.75 18.109375 91.105469 0.855469 C 92.320312 0.0898438 93.894531 0.203125 94.992188 1.132812 C 96.082031 2.066406 96.445312 3.601562 95.878906 4.925781 C 85.917969 28.296875 80.867188 53.132812 80.867188 78.742188 C 80.867188 182.628906 165.378906 267.144531 269.261719 267.144531 C 304.90625 267.144531 339.613281 257.136719 369.632812 238.199219 C 370.847656 237.433594 372.414062 237.546875 373.511719 238.480469 C 374.605469 239.40625 374.972656 240.949219 374.410156 242.269531 C 343.695312 314.304688 273.269531 360.847656 194.976562 360.84375 " fill-opacity="1" fill-rule="evenodd"/></g></svg>