<svg xmlns="http://www.w3.org/2000/svg" xmlns:xlink="http://www.w3.org/1999/xlink" width="500" zoomAndPan="magnify" viewBox="0 0 375 374.999991" height="500" preserveAspectRatio="xMidYMid meet" version="1.0"><defs><clipPath id="e5a6784e72"><path d="M 96 97 L 118 97 L 118 127 L 96 127 Z M 96 97 " clip-rule="nonzero"/></clipPath><clipPath id="bc33750374"><path d="M 24.695312 138.507812 L 170.070312 57.335938 L 208.824219 126.75 L 63.449219 207.917969 Z M 24.695312 138.507812 " clip-rule="nonzero"/></clipPath><clipPath id="1f1133dae5"><path d="M 24.695312 138.507812 L 170.070312 57.335938 L 251.238281 202.710938 L 105.863281 283.878906 Z M 24.695312 138.507812 " clip-rule="nonzero"/></clipPath><clipPath id="f0992485cc"><path d="M 145 90 L 162 90 L 162 121 L 145 121 Z M 145 90 " clip-rule="nonzero"/></clipPath><clipPath id="f7d69da807"><path d="M 24.695312 138.507812 L 170.070312 57.335938 L 208.824219 126.75 L 63.449219 207.917969 Z M 24.695312 138.507812 " clip-rule="nonzero"/></clipPath><clipPath id="0bd22c12c7"><path d="M 24.695312 138.507812 L 170.070312 57.335938 L 251.238281 202.710938 L 105.863281 283.878906 Z M 24.695312 138.507812 " clip-rule="nonzero"/></clipPath><clipPath id="c1355352e5"><path d="M 181 128 L 209 128 L 209 150 L 181 150 Z M 181 128 " clip-rule="nonzero"/></clipPath><clipPath id="b7cc9af288"><path d="M 24.695312 138.507812 L 170.070312 57.335938 L 208.824219 126.75 L 63.449219 207.917969 Z M 24.695312 138.507812 " clip-rule="nonzero"/></clipPath><clipPath id="57cf74dfbb"><path d="M 24.695312 138.507812 L 170.070312 57.335938 L 251.238281 202.710938 L 105.863281 283.878906 Z M 24.695312 138.507812 " clip-rule="nonzero"/></clipPath><clipPath id="3745cc285f"><path d="M 64 191 L 94 191 L 94 208 L 64 208 Z M 64 191 " clip-rule="nonzero"/></clipPath><clipPath id="ba6cfaed05"><path d="M 24.695312 138.507812 L 170.070312 57.335938 L 208.824219 126.75 L 63.449219 207.917969 Z M 24.695312 138.507812 " clip-rule="nonzero"/></clipPath><clipPath id="eccc2c447d"><path d="M 24.695312 138.507812 L 170.070312 57.335938 L 251.238281 202.710938 L 105.863281 283.878906 Z M 24.695312 138.507812 " clip-rule="nonzero"/></clipPath><clipPath id="3b307ca3e6"><path d="M 57 146 L 88 146 L 88 163 L 57 163 Z M 57 146 " clip-rule="nonzero"/></clipPath><clipPath id="b2070ced2d"><path d="M 24.695312 138.507812 L 170.070312 57.335938 L 208.824219 126.75 L 63.449219 207.917969 Z M 24.695312 138.507812 " clip-rule="nonzero"/></clipPath><clipPath id="9336e10feb"><path d="M 24.695312 138.507812 L 170.070312 57.335938 L 251.238281 202.710938 L 105.863281 283.878906 Z M 24.695312 138.507812 " clip-rule="nonzero"/></clipPath><clipPath id="43354a8811"><path d="M 90 123 L 185 123 L 185 208 L 90 208 Z M 90 123 " clip-rule="nonzero"/></clipPath><clipPath id="134739a50f"><path d="M 24.695312 138.507812 L 170.070312 57.335938 L 208.824219 126.75 L 63.449219 207.917969 Z M 24.695312 138.507812 " clip-rule="nonzero"/></clipPath><clipPath id="6b1f068c3f"><path d="M 24.695312 138.507812 L 170.070312 57.335938 L 251.238281 202.710938 L 105.863281 283.878906 Z M 24.695312 138.507812 " clip-rule="nonzero"/></clipPath><clipPath id="92ac157e9d"><path d="M 45.632812 132.792969 L 308.132812 132.792969 L 308.132812 312 L 45.632812 312 Z M 45.632812 132.792969 " clip-rule="nonzero"/></clipPath></defs><g clip-path="url(#e5a6784e72)"><g clip-path="url(#bc33750374)"><g clip-path="url(#1f1133dae5)"><path fill="#ffffff" d="M 107.0625 121.230469 L 111.847656 118.554688 L 103.089844 108.492188 Z M 116.046875 120.902344 L 106.855469 126.035156 C 106.316406 126.335938 105.671875 126.375 105.097656 126.148438 C 104.523438 125.917969 104.085938 125.445312 103.902344 124.855469 L 96.277344 100.402344 C 95.988281 99.476562 96.386719 98.476562 97.234375 98.003906 C 98.078125 97.535156 99.140625 97.71875 99.777344 98.449219 L 116.59375 117.769531 C 117 118.234375 117.171875 118.859375 117.066406 119.464844 C 116.960938 120.074219 116.585938 120.601562 116.046875 120.902344 " fill-opacity="1" fill-rule="nonzero"/></g></g></g><g clip-path="url(#f0992485cc)"><g clip-path="url(#f7d69da807)"><g clip-path="url(#0bd22c12c7)"><path fill="#ffffff" d="M 150.914062 113.984375 L 156.191406 115.476562 L 157.113281 102.167969 Z M 159.058594 119.921875 C 158.585938 120.1875 158.027344 120.253906 157.5 120.105469 L 147.371094 117.234375 C 146.777344 117.066406 146.292969 116.640625 146.046875 116.074219 C 145.804688 115.507812 145.828125 114.859375 146.117188 114.3125 L 158.015625 91.632812 C 158.46875 90.773438 159.457031 90.347656 160.386719 90.613281 C 161.320312 90.875 161.941406 91.757812 161.871094 92.722656 L 160.101562 118.277344 C 160.058594 118.894531 159.742188 119.453125 159.238281 119.808594 C 159.179688 119.851562 159.117188 119.890625 159.058594 119.921875 " fill-opacity="1" fill-rule="nonzero"/></g></g></g><g clip-path="url(#c1355352e5)"><g clip-path="url(#b7cc9af288)"><g clip-path="url(#57cf74dfbb)"><path fill="#ffffff" d="M 187.046875 139.867188 L 189.722656 144.65625 L 199.785156 135.898438 Z M 190.160156 149.644531 C 189.753906 149.871094 189.28125 149.957031 188.8125 149.875 C 188.203125 149.769531 187.675781 149.394531 187.375 148.855469 L 182.242188 139.664062 C 181.941406 139.125 181.902344 138.476562 182.128906 137.90625 C 182.359375 137.332031 182.832031 136.894531 183.421875 136.710938 L 207.875 129.085938 C 208.800781 128.796875 209.800781 129.195312 210.273438 130.042969 C 210.746094 130.886719 210.5625 131.949219 209.828125 132.582031 L 190.507812 149.402344 C 190.402344 149.496094 190.285156 149.578125 190.160156 149.644531 " fill-opacity="1" fill-rule="nonzero"/></g></g></g><g clip-path="url(#3745cc285f)"><g clip-path="url(#ba6cfaed05)"><g clip-path="url(#eccc2c447d)"><path fill="#ffffff" d="M 75.683594 205.1875 L 88.421875 201.21875 L 85.75 196.429688 Z M 92.4375 204.210938 C 92.316406 204.277344 92.183594 204.332031 92.050781 204.375 L 67.59375 212 C 66.671875 212.289062 65.667969 211.890625 65.199219 211.042969 C 64.726562 210.199219 64.910156 209.136719 65.640625 208.503906 L 84.960938 191.683594 C 85.429688 191.28125 86.050781 191.105469 86.660156 191.210938 C 87.265625 191.316406 87.792969 191.691406 88.09375 192.230469 L 93.226562 201.421875 C 93.527344 201.960938 93.570312 202.605469 93.339844 203.179688 C 93.164062 203.621094 92.84375 203.984375 92.4375 204.210938 " fill-opacity="1" fill-rule="nonzero"/></g></g></g><g clip-path="url(#3b307ca3e6)"><g clip-path="url(#b2070ced2d)"><g clip-path="url(#9336e10feb)"><path fill="#ffffff" d="M 69.359375 151.164062 L 81.175781 157.363281 L 82.671875 152.085938 Z M 83.457031 162.136719 C 83.394531 162.171875 83.332031 162.203125 83.265625 162.230469 C 82.699219 162.472656 82.050781 162.449219 81.507812 162.160156 L 58.824219 150.261719 C 57.964844 149.808594 57.539062 148.820312 57.804688 147.890625 C 58.070312 146.957031 58.949219 146.339844 59.917969 146.40625 L 85.46875 148.175781 C 86.085938 148.21875 86.648438 148.535156 87.003906 149.039062 C 87.359375 149.546875 87.46875 150.183594 87.296875 150.777344 L 84.425781 160.90625 C 84.277344 161.433594 83.925781 161.871094 83.457031 162.136719 " fill-opacity="1" fill-rule="nonzero"/></g></g></g><g clip-path="url(#43354a8811)"><g clip-path="url(#134739a50f)"><g clip-path="url(#6b1f068c3f)"><path fill="#ffffff" d="M 116.929688 133.28125 C 106.925781 138.867188 99.699219 148.011719 96.574219 159.035156 C 93.449219 170.058594 94.804688 181.636719 100.390625 191.640625 C 105.976562 201.640625 115.121094 208.871094 126.144531 211.996094 C 137.167969 215.121094 148.746094 213.761719 158.75 208.179688 C 168.75 202.59375 175.980469 193.449219 179.105469 182.425781 C 182.230469 171.402344 180.875 159.824219 175.289062 149.820312 C 169.703125 139.816406 160.558594 132.589844 149.535156 129.464844 C 138.511719 126.339844 126.933594 127.695312 116.929688 133.28125 Z M 160.746094 211.753906 C 149.789062 217.871094 137.101562 219.359375 125.027344 215.933594 C 112.953125 212.511719 102.933594 204.59375 96.816406 193.636719 C 90.695312 182.679688 89.210938 169.992188 92.636719 157.917969 C 96.054688 145.84375 103.976562 135.824219 114.933594 129.707031 C 125.890625 123.585938 138.574219 122.101562 150.652344 125.523438 C 162.726562 128.945312 172.746094 136.867188 178.863281 147.824219 C 184.984375 158.78125 186.46875 171.464844 183.042969 183.542969 C 179.621094 195.617188 171.703125 205.636719 160.746094 211.753906 " fill-opacity="1" fill-rule="nonzero"/></g></g></g><g clip-path="url(#92ac157e9d)"><path fill="#ffffff" d="M 301.253906 236.046875 C 297.246094 229.203125 291.667969 223.367188 285.023438 219.0625 C 285.214844 217.75 285.375 216.410156 285.496094 215.066406 C 285.722656 212.664062 285.832031 210.347656 285.832031 208.128906 C 285.832031 187.347656 277.40625 168.53125 263.789062 154.90625 C 250.171875 141.289062 231.355469 132.863281 210.574219 132.863281 C 195.328125 132.863281 181.128906 137.417969 169.25 145.242188 C 158.105469 152.578125 149.03125 162.789062 143.085938 174.804688 C 141.496094 174.3125 139.871094 173.898438 138.214844 173.578125 C 135.277344 173 132.25 172.699219 129.171875 172.699219 C 116.90625 172.699219 105.730469 177.410156 97.363281 185.128906 C 89.648438 192.242188 84.316406 201.910156 82.714844 212.78125 C 72.453125 215.609375 63.476562 221.617188 56.933594 229.667969 C 49.871094 238.34375 45.632812 249.382812 45.632812 261.351562 C 45.632812 275.203125 51.296875 287.796875 60.421875 296.925781 C 69.550781 306.054688 82.144531 311.71875 96 311.71875 L 257.765625 311.71875 C 271.617188 311.71875 284.210938 306.054688 293.339844 296.925781 C 302.46875 287.796875 308.132812 275.203125 308.132812 261.34375 C 308.132812 252.164062 305.625 243.515625 301.253906 236.046875 Z M 287.355469 290.941406 C 279.761719 298.535156 269.28125 303.253906 257.765625 303.253906 L 96 303.253906 C 84.480469 303.253906 74 298.535156 66.410156 290.941406 C 58.816406 283.347656 54.097656 272.867188 54.097656 261.34375 C 54.097656 251.371094 57.613281 242.1875 63.46875 234.988281 C 69.445312 227.632812 77.855469 222.324219 87.429688 220.316406 C 89.3125 219.921875 90.636719 218.335938 90.78125 216.515625 C 91.582031 206.582031 96.15625 197.707031 103.066406 191.34375 C 109.925781 185.03125 119.085938 181.164062 129.160156 181.164062 C 131.710938 181.164062 134.199219 181.40625 136.582031 181.875 C 139.042969 182.351562 141.425781 183.074219 143.703125 184 C 145.835938 184.867188 148.269531 183.855469 149.175781 181.75 C 154.371094 169.660156 163.023438 159.417969 173.871094 152.277344 C 184.382812 145.351562 196.988281 141.324219 210.566406 141.324219 C 229.015625 141.324219 245.714844 148.796875 257.804688 160.886719 C 269.890625 172.972656 277.367188 189.675781 277.367188 208.125 C 277.367188 210.328125 277.273438 212.390625 277.097656 214.304688 C 276.90625 216.347656 276.625 218.394531 276.246094 220.429688 C 275.910156 222.238281 276.796875 223.996094 278.3125 224.859375 C 284.796875 228.53125 290.214844 233.886719 293.976562 240.3125 C 297.585938 246.480469 299.660156 253.671875 299.660156 261.34375 C 299.667969 272.867188 294.953125 283.34375 287.355469 290.941406 Z M 287.355469 290.941406 " fill-opacity="1" fill-rule="nonzero"/></g></svg>