<svg xmlns="http://www.w3.org/2000/svg" xmlns:xlink="http://www.w3.org/1999/xlink" width="1920" zoomAndPan="magnify" viewBox="0 0 1440 809.999993" height="1080" preserveAspectRatio="xMidYMid meet" version="1.0"><defs><linearGradient x1="960" gradientTransform="matrix(0.75, 0, 0, 0.75, 0.00000622222, 0.00002)" y1="0" x2="960" gradientUnits="userSpaceOnUse" y2="1079.999955" id="c86e45abd4"><stop stop-opacity="1" stop-color="rgb(9.399414%, 22.399902%, 16.899109%)" offset="0"/><stop stop-opacity="1" stop-color="rgb(9.356689%, 22.254944%, 16.796875%)" offset="0.015625"/><stop stop-opacity="1" stop-color="rgb(9.269714%, 21.965027%, 16.593933%)" offset="0.03125"/><stop stop-opacity="1" stop-color="rgb(9.184265%, 21.676636%, 16.390991%)" offset="0.046875"/><stop stop-opacity="1" stop-color="rgb(9.098816%, 21.386719%, 16.188049%)" offset="0.0625"/><stop stop-opacity="1" stop-color="rgb(9.011841%, 21.098328%, 15.985107%)" offset="0.078125"/><stop stop-opacity="1" stop-color="rgb(8.926392%, 20.808411%, 15.78064%)" offset="0.09375"/><stop stop-opacity="1" stop-color="rgb(8.840942%, 20.52002%, 15.577698%)" offset="0.109375"/><stop stop-opacity="1" stop-color="rgb(8.753967%, 20.230103%, 15.374756%)" offset="0.125"/><stop stop-opacity="1" stop-color="rgb(8.668518%, 19.941711%, 15.171814%)" offset="0.140625"/><stop stop-opacity="1" stop-color="rgb(8.583069%, 19.65332%, 14.968872%)" offset="0.15625"/><stop stop-opacity="1" stop-color="rgb(8.496094%, 19.363403%, 14.76593%)" offset="0.171875"/><stop stop-opacity="1" stop-color="rgb(8.410645%, 19.075012%, 14.562988%)" offset="0.1875"/><stop stop-opacity="1" stop-color="rgb(8.325195%, 18.785095%, 14.360046%)" offset="0.203125"/><stop stop-opacity="1" stop-color="rgb(8.23822%, 18.496704%, 14.157104%)" offset="0.21875"/><stop stop-opacity="1" stop-color="rgb(8.152771%, 18.206787%, 13.952637%)" offset="0.234375"/><stop stop-opacity="1" stop-color="rgb(8.067322%, 17.918396%, 13.749695%)" offset="0.25"/><stop stop-opacity="1" stop-color="rgb(7.980347%, 17.630005%, 13.546753%)" offset="0.265625"/><stop stop-opacity="1" stop-color="rgb(7.894897%, 17.340088%, 13.343811%)" offset="0.28125"/><stop stop-opacity="1" stop-color="rgb(7.809448%, 17.051697%, 13.140869%)" offset="0.296875"/><stop stop-opacity="1" stop-color="rgb(7.722473%, 16.76178%, 12.937927%)" offset="0.3125"/><stop stop-opacity="1" stop-color="rgb(7.637024%, 16.473389%, 12.734985%)" offset="0.328125"/><stop stop-opacity="1" stop-color="rgb(7.551575%, 16.183472%, 12.532043%)" offset="0.34375"/><stop stop-opacity="1" stop-color="rgb(7.466125%, 15.895081%, 12.327576%)" offset="0.359375"/><stop stop-opacity="1" stop-color="rgb(7.37915%, 15.605164%, 12.124634%)" offset="0.375"/><stop stop-opacity="1" stop-color="rgb(7.293701%, 15.316772%, 11.921692%)" offset="0.390625"/><stop stop-opacity="1" stop-color="rgb(7.208252%, 15.028381%, 11.71875%)" offset="0.40625"/><stop stop-opacity="1" stop-color="rgb(7.121277%, 14.738464%, 11.515808%)" offset="0.421875"/><stop stop-opacity="1" stop-color="rgb(7.035828%, 14.450073%, 11.312866%)" offset="0.4375"/><stop stop-opacity="1" stop-color="rgb(6.950378%, 14.160156%, 11.109924%)" offset="0.453125"/><stop stop-opacity="1" stop-color="rgb(6.863403%, 13.871765%, 10.906982%)" offset="0.46875"/><stop stop-opacity="1" stop-color="rgb(6.777954%, 13.581848%, 10.702515%)" offset="0.484375"/><stop stop-opacity="1" stop-color="rgb(6.692505%, 13.293457%, 10.499573%)" offset="0.5"/><stop stop-opacity="1" stop-color="rgb(6.60553%, 13.00354%, 10.296631%)" offset="0.515625"/><stop stop-opacity="1" stop-color="rgb(6.520081%, 12.715149%, 10.093689%)" offset="0.53125"/><stop stop-opacity="1" stop-color="rgb(6.434631%, 12.426758%, 9.890747%)" offset="0.546875"/><stop stop-opacity="1" stop-color="rgb(6.347656%, 12.136841%, 9.687805%)" offset="0.5625"/><stop stop-opacity="1" stop-color="rgb(6.262207%, 11.84845%, 9.484863%)" offset="0.578125"/><stop stop-opacity="1" stop-color="rgb(6.176758%, 11.558533%, 9.281921%)" offset="0.59375"/><stop stop-opacity="1" stop-color="rgb(6.089783%, 11.270142%, 9.078979%)" offset="0.609375"/><stop stop-opacity="1" stop-color="rgb(6.004333%, 10.980225%, 8.874512%)" offset="0.625"/><stop stop-opacity="1" stop-color="rgb(5.918884%, 10.691833%, 8.67157%)" offset="0.640625"/><stop stop-opacity="1" stop-color="rgb(5.831909%, 10.403442%, 8.468628%)" offset="0.65625"/><stop stop-opacity="1" stop-color="rgb(5.74646%, 10.113525%, 8.265686%)" offset="0.671875"/><stop stop-opacity="1" stop-color="rgb(5.661011%, 9.825134%, 8.062744%)" offset="0.6875"/><stop stop-opacity="1" stop-color="rgb(5.574036%, 9.535217%, 7.859802%)" offset="0.703125"/><stop stop-opacity="1" stop-color="rgb(5.488586%, 9.246826%, 7.65686%)" offset="0.71875"/><stop stop-opacity="1" stop-color="rgb(5.403137%, 8.956909%, 7.453918%)" offset="0.734375"/><stop stop-opacity="1" stop-color="rgb(5.317688%, 8.668518%, 7.249451%)" offset="0.75"/><stop stop-opacity="1" stop-color="rgb(5.230713%, 8.378601%, 7.046509%)" offset="0.765625"/><stop stop-opacity="1" stop-color="rgb(5.145264%, 8.09021%, 6.843567%)" offset="0.78125"/><stop stop-opacity="1" stop-color="rgb(5.059814%, 7.801819%, 6.640625%)" offset="0.796875"/><stop stop-opacity="1" stop-color="rgb(4.972839%, 7.511902%, 6.437683%)" offset="0.8125"/><stop stop-opacity="1" stop-color="rgb(4.88739%, 7.223511%, 6.234741%)" offset="0.828125"/><stop stop-opacity="1" stop-color="rgb(4.801941%, 6.933594%, 6.031799%)" offset="0.84375"/><stop stop-opacity="1" stop-color="rgb(4.714966%, 6.645203%, 5.828857%)" offset="0.859375"/><stop stop-opacity="1" stop-color="rgb(4.629517%, 6.355286%, 5.62439%)" offset="0.875"/><stop stop-opacity="1" stop-color="rgb(4.544067%, 6.066895%, 5.421448%)" offset="0.890625"/><stop stop-opacity="1" stop-color="rgb(4.457092%, 5.776978%, 5.218506%)" offset="0.90625"/><stop stop-opacity="1" stop-color="rgb(4.371643%, 5.488586%, 5.015564%)" offset="0.921875"/><stop stop-opacity="1" stop-color="rgb(4.286194%, 5.200195%, 4.812622%)" offset="0.9375"/><stop stop-opacity="1" stop-color="rgb(4.199219%, 4.910278%, 4.60968%)" offset="0.953125"/><stop stop-opacity="1" stop-color="rgb(4.11377%, 4.621887%, 4.406738%)" offset="0.96875"/><stop stop-opacity="1" stop-color="rgb(4.02832%, 4.33197%, 4.203796%)" offset="0.984375"/><stop stop-opacity="1" stop-color="rgb(3.941345%, 4.043579%, 4.000854%)" offset="1"/></linearGradient><clipPath id="4841f464c7"><path d="M 686 375.011719 L 1440 375.011719 L 1440 810 L 686 810 Z M 686 375.011719 " clip-rule="nonzero"/></clipPath><clipPath id="b96a0ce24d"><path d="M 585 322.660156 L 1440 322.660156 L 1440 807.160156 L 585 807.160156 Z M 585 322.660156 " clip-rule="nonzero"/></clipPath></defs><rect x="-144" width="1728" fill="#ffffff" y="-80.999999" height="971.999992" fill-opacity="1"/><rect x="-144" fill="url(#c86e45abd4)" width="1728" y="-80.999999" height="971.999992"/><g clip-path="url(#4841f464c7)"><path fill="#9c9c9c" d="M 1730.613281 740.167969 L 1721.199219 740.167969 L 1721.199219 734.230469 L 1717.808594 734.230469 C 1717.328125 709.277344 1709.613281 695.699219 1688.007812 690.421875 C 1687.671875 684.316406 1684.109375 681.066406 1679.378906 677.621094 L 1679.144531 673.203125 L 1678.953125 668.644531 L 1677.914062 644.011719 L 1677.269531 668.644531 L 1677.152344 673.203125 L 1677.007812 677.652344 C 1672.460938 680.476562 1668.859375 684.746094 1668.542969 690.421875 C 1646.941406 695.699219 1639.226562 709.277344 1638.742188 734.230469 L 1635.355469 734.230469 L 1635.355469 740.167969 L 1633.9375 740.167969 L 1633.9375 730.492188 L 1606.277344 730.492188 L 1606.277344 661.664062 L 1614.632812 661.664062 L 1614.632812 653.746094 L 1606.277344 653.746094 L 1606.277344 585.847656 L 1614.632812 585.847656 L 1614.632812 577.929688 L 1606.277344 577.929688 L 1606.277344 508.714844 L 1614.632812 508.714844 L 1614.632812 500.796875 L 1607.15625 500.796875 L 1607.15625 466.492188 L 1617.054688 466.492188 L 1617.054688 452.859375 L 1610.261719 452.859375 L 1610.261719 432.429688 L 1604.640625 432.429688 L 1604.640625 428.886719 L 1602.617188 428.886719 C 1602.328125 413.984375 1597.722656 405.878906 1584.820312 402.726562 C 1584.621094 399.078125 1582.492188 397.136719 1579.667969 395.078125 L 1579.527344 392.441406 L 1579.410156 389.71875 L 1578.792969 375.011719 L 1578.40625 389.71875 L 1578.335938 392.441406 L 1578.25 395.101562 C 1575.535156 396.785156 1573.382812 399.335938 1573.195312 402.726562 C 1560.296875 405.878906 1555.691406 413.984375 1555.402344 428.886719 L 1553.378906 428.886719 L 1553.378906 432.429688 L 1547.753906 432.429688 L 1547.753906 452.859375 L 1540.964844 452.859375 L 1540.964844 466.492188 L 1550.859375 466.492188 L 1550.859375 500.796875 L 1543.382812 500.796875 L 1543.382812 508.714844 L 1551.738281 508.714844 L 1551.738281 577.933594 L 1543.382812 577.933594 L 1543.382812 585.847656 L 1551.738281 585.847656 L 1551.738281 653.746094 L 1543.382812 653.746094 L 1543.382812 661.664062 L 1551.738281 661.664062 L 1551.738281 730.492188 L 1533.773438 730.492188 L 1533.773438 577.59375 L 1538.132812 577.59375 L 1538.132812 562.640625 L 1528.714844 562.640625 L 1528.714844 556.703125 L 1525.328125 556.703125 C 1549.035156 524.714844 1517.132812 497.941406 1495.527344 492.664062 C 1495.191406 486.558594 1491.628906 483.308594 1486.894531 479.859375 L 1486.660156 475.445312 L 1486.46875 470.886719 L 1485.433594 446.25 L 1484.789062 470.886719 L 1484.671875 475.445312 L 1484.523438 479.894531 C 1479.980469 482.71875 1476.375 486.984375 1476.0625 492.664062 C 1454.457031 497.941406 1425.632812 520.753906 1446.261719 556.703125 L 1442.871094 556.703125 L 1442.871094 562.640625 L 1433.457031 562.640625 L 1433.457031 577.59375 L 1437.453125 577.59375 L 1437.453125 695.230469 L 1413.925781 695.230469 L 1413.925781 680.714844 L 1405.347656 680.714844 C 1428.039062 615.304688 1399.363281 582.265625 1361.308594 562.078125 C 1348.304688 555.175781 1329.277344 531.929688 1320.148438 515.472656 C 1324.578125 514.398438 1327.871094 510.402344 1327.871094 505.640625 C 1327.871094 501.285156 1325.117188 497.570312 1321.253906 496.148438 L 1319.574219 472.582031 C 1333.738281 468.136719 1344.011719 454.910156 1344.011719 439.28125 C 1344.011719 423.699219 1333.796875 410.503906 1319.703125 406.019531 C 1326.257812 411.820312 1330.394531 420.292969 1330.394531 429.734375 C 1330.394531 447.21875 1316.222656 461.386719 1298.742188 461.386719 C 1290.246094 461.386719 1282.53125 458.042969 1276.847656 452.59375 C 1282.082031 465.261719 1294.554688 474.179688 1309.113281 474.179688 C 1312.109375 474.179688 1315.019531 473.800781 1317.796875 473.089844 L 1315.144531 495.867188 C 1310.824219 497.019531 1307.640625 500.957031 1307.640625 505.640625 C 1307.640625 510.5625 1311.15625 514.664062 1315.8125 515.570312 C 1306.65625 531.757812 1291.855469 553.160156 1273.429688 563.175781 C 1235.582031 583.75 1207.578125 615.308594 1230.269531 680.714844 L 1224.367188 680.714844 L 1224.367188 695.230469 L 1199.328125 695.230469 L 1199.328125 577.59375 L 1203.6875 577.59375 L 1203.6875 562.640625 L 1194.273438 562.640625 L 1194.273438 556.703125 L 1190.882812 556.703125 C 1214.589844 524.714844 1182.6875 497.941406 1161.082031 492.664062 C 1160.746094 486.558594 1157.183594 483.308594 1152.453125 479.859375 L 1152.21875 475.445312 L 1152.023438 470.886719 L 1150.988281 446.25 L 1150.34375 470.886719 L 1150.226562 475.445312 L 1150.078125 479.894531 C 1145.535156 482.71875 1141.929688 486.984375 1141.617188 492.664062 C 1120.011719 497.941406 1091.1875 520.757812 1111.816406 556.703125 L 1108.429688 556.703125 L 1108.429688 562.640625 L 1099.011719 562.640625 L 1099.011719 577.59375 L 1103.007812 577.59375 L 1103.007812 730.492188 L 1092.15625 730.492188 L 1092.15625 712.007812 L 1081.332031 712.007812 L 1081.332031 705.183594 L 1077.441406 705.183594 C 1076.886719 676.507812 1068.019531 660.90625 1043.195312 654.839844 C 1042.808594 647.824219 1038.710938 644.089844 1033.273438 640.128906 L 1033.003906 635.054688 L 1032.785156 629.8125 L 1031.589844 601.503906 L 1030.851562 629.8125 L 1030.714844 635.054688 L 1030.546875 640.167969 C 1025.324219 643.410156 1021.183594 648.316406 1020.824219 654.839844 C 995.996094 660.90625 987.132812 676.511719 986.578125 705.183594 L 982.683594 705.183594 L 982.683594 712.007812 L 971.863281 712.007812 L 971.863281 730.492188 L 960.960938 730.492188 L 960.960938 661.664062 L 969.316406 661.664062 L 969.316406 653.746094 L 960.960938 653.746094 L 960.960938 585.847656 L 969.316406 585.847656 L 969.316406 577.933594 L 960.960938 577.933594 L 960.960938 508.714844 L 969.316406 508.714844 L 969.316406 500.796875 L 961.839844 500.796875 L 961.839844 466.492188 L 971.738281 466.492188 L 971.738281 452.859375 L 964.945312 452.859375 L 964.945312 432.433594 L 959.324219 432.433594 L 959.324219 428.886719 L 957.300781 428.886719 C 957.011719 413.984375 952.40625 405.878906 939.503906 402.726562 C 939.304688 399.082031 937.175781 397.140625 934.351562 395.082031 L 934.210938 392.445312 L 934.09375 389.722656 L 933.476562 375.011719 L 933.09375 389.722656 L 933.019531 392.445312 L 932.933594 395.101562 C 930.21875 396.789062 928.066406 399.335938 927.878906 402.726562 C 914.980469 405.878906 910.375 413.988281 910.085938 428.886719 L 908.0625 428.886719 L 908.0625 432.433594 L 902.4375 432.433594 L 902.4375 452.859375 L 895.648438 452.859375 L 895.648438 466.492188 L 905.542969 466.492188 L 905.542969 500.800781 L 898.066406 500.800781 L 898.066406 508.714844 L 906.421875 508.714844 L 906.421875 577.933594 L 898.066406 577.933594 L 898.066406 585.851562 L 906.421875 585.851562 L 906.421875 653.746094 L 898.066406 653.746094 L 898.066406 661.664062 L 906.421875 661.664062 L 906.421875 730.492188 L 895.929688 730.492188 L 895.929688 773.761719 L 886.074219 773.761719 L 886.074219 706.058594 L 890.433594 706.058594 L 890.433594 691.105469 L 881.019531 691.105469 L 881.019531 685.167969 L 877.628906 685.167969 C 901.335938 653.179688 869.433594 626.40625 847.828125 621.128906 C 847.492188 615.023438 843.929688 611.769531 839.199219 608.324219 L 838.964844 603.910156 L 838.773438 599.351562 L 837.734375 574.714844 L 837.089844 599.351562 L 836.972656 603.910156 L 836.824219 608.359375 C 832.28125 611.183594 828.675781 615.449219 828.363281 621.128906 C 806.757812 626.40625 777.933594 649.21875 798.5625 685.167969 L 795.175781 685.167969 L 795.175781 691.105469 L 785.757812 691.105469 L 785.757812 706.058594 L 789.757812 706.058594 L 789.757812 768.535156 L 786.84375 768.535156 L 786.84375 762.597656 L 783.457031 762.597656 C 782.972656 737.644531 775.261719 724.066406 753.65625 718.789062 C 753.320312 712.6875 749.753906 709.433594 745.023438 705.988281 L 744.789062 701.570312 L 744.597656 697.011719 L 743.558594 672.378906 L 742.917969 697.011719 L 742.796875 701.570312 L 742.652344 706.019531 C 738.105469 708.84375 734.503906 713.113281 734.191406 718.789062 C 712.585938 724.070312 704.871094 737.648438 704.390625 762.597656 L 701 762.597656 L 701 768.535156 L 691.585938 768.535156 L 691.585938 773.761719 L 686.746094 773.761719 L 686.746094 822.855469 L 1732.808594 822.855469 L 1732.808594 773.761719 L 1730.617188 773.761719 L 1730.617188 740.171875 Z M 878.992188 773.761719 L 862.324219 773.761719 L 862.324219 743.910156 C 863.648438 730.847656 868.972656 727.125 870.570312 725.570312 L 870.570312 725.394531 C 870.597656 725.421875 870.628906 725.453125 870.65625 725.484375 C 870.6875 725.453125 870.71875 725.421875 870.742188 725.394531 L 870.742188 725.570312 C 872.34375 727.125 877.667969 730.847656 878.992188 743.910156 Z M 854.804688 773.761719 L 820.144531 773.761719 L 820.144531 735.691406 C 822.902344 719.976562 833.964844 715.5 837.296875 713.628906 L 837.296875 713.417969 C 837.351562 713.453125 837.410156 713.488281 837.472656 713.523438 C 837.535156 713.488281 837.597656 713.453125 837.652344 713.417969 L 837.652344 713.628906 C 840.980469 715.5 852.042969 719.976562 854.804688 735.691406 Z M 813.902344 773.761719 L 797.230469 773.761719 L 797.230469 743.910156 C 798.558594 730.847656 803.878906 727.125 805.480469 725.570312 L 805.480469 725.394531 C 805.503906 725.421875 805.535156 725.453125 805.566406 725.484375 C 805.59375 725.453125 805.625 725.421875 805.652344 725.394531 L 805.652344 725.570312 C 807.253906 727.125 812.574219 730.847656 813.898438 743.910156 L 813.898438 773.761719 Z M 955.140625 469.957031 L 949.640625 469.957031 L 949.640625 496.453125 L 955.140625 496.453125 Z M 942.671875 469.957031 L 937.175781 469.957031 L 937.175781 496.453125 L 942.671875 496.453125 Z M 930.203125 469.957031 L 924.707031 469.957031 L 924.707031 496.453125 L 930.203125 496.453125 Z M 917.738281 469.957031 L 912.238281 469.957031 L 912.238281 496.453125 L 917.738281 496.453125 Z M 933.691406 676.683594 L 933.75 676.707031 C 938.398438 678.5625 943.644531 684.292969 944.84375 689.523438 L 944.84375 723.167969 L 922.535156 723.167969 L 922.535156 689.523438 C 923.734375 684.292969 928.980469 678.5625 933.628906 676.707031 Z M 933.691406 600.867188 L 933.75 600.894531 C 938.398438 602.746094 943.644531 608.476562 944.84375 613.707031 L 944.84375 647.355469 L 922.535156 647.355469 L 922.535156 613.707031 C 923.734375 608.476562 928.980469 602.746094 933.628906 600.894531 Z M 933.691406 523.734375 L 933.75 523.761719 C 938.398438 525.613281 943.644531 531.34375 944.84375 536.574219 L 944.84375 570.222656 L 922.535156 570.222656 L 922.535156 536.574219 C 923.734375 531.34375 928.980469 525.613281 933.628906 523.761719 Z M 1600.457031 469.957031 L 1594.960938 469.957031 L 1594.960938 496.453125 L 1600.457031 496.453125 Z M 1587.992188 469.957031 L 1582.492188 469.957031 L 1582.492188 496.453125 L 1587.992188 496.453125 Z M 1575.523438 469.957031 L 1570.027344 469.957031 L 1570.027344 496.453125 L 1575.523438 496.453125 Z M 1563.054688 469.957031 L 1557.558594 469.957031 L 1557.558594 496.453125 L 1563.054688 496.453125 Z M 1579.007812 676.683594 L 1579.070312 676.707031 C 1583.714844 678.5625 1588.964844 684.292969 1590.160156 689.523438 L 1590.160156 723.167969 L 1567.855469 723.167969 L 1567.855469 689.523438 C 1569.054688 684.292969 1574.300781 678.5625 1578.945312 676.707031 Z M 1579.007812 600.867188 L 1579.070312 600.894531 C 1583.714844 602.746094 1588.964844 608.476562 1590.160156 613.707031 L 1590.160156 647.355469 L 1567.855469 647.355469 L 1567.855469 613.707031 C 1569.054688 608.476562 1574.300781 602.746094 1578.945312 600.894531 Z M 1579.007812 523.734375 L 1579.070312 523.761719 C 1583.714844 525.613281 1588.964844 531.34375 1590.160156 536.574219 L 1590.160156 570.222656 L 1567.855469 570.222656 L 1567.855469 536.574219 C 1569.054688 531.34375 1574.300781 525.613281 1578.945312 523.761719 Z M 1118.734375 596.929688 C 1118.757812 596.960938 1118.789062 596.988281 1118.820312 597.019531 C 1118.847656 596.988281 1118.878906 596.960938 1118.90625 596.929688 L 1118.90625 597.105469 C 1120.503906 598.664062 1125.828125 602.382812 1127.152344 615.449219 L 1127.152344 655.96875 L 1110.484375 655.96875 L 1110.484375 615.449219 C 1111.8125 602.382812 1117.132812 598.664062 1118.734375 597.105469 Z M 1183.824219 596.929688 C 1183.851562 596.960938 1183.882812 596.988281 1183.910156 597.019531 C 1183.941406 596.988281 1183.96875 596.960938 1183.996094 596.929688 L 1183.996094 597.105469 C 1185.597656 598.664062 1190.917969 602.382812 1192.246094 615.449219 L 1192.246094 655.96875 L 1175.574219 655.96875 L 1175.574219 615.449219 C 1176.902344 602.382812 1182.222656 598.664062 1183.824219 597.105469 Z M 1150.546875 584.953125 C 1150.605469 584.988281 1150.664062 585.023438 1150.726562 585.0625 C 1150.789062 585.023438 1150.847656 584.988281 1150.90625 584.953125 L 1150.90625 585.164062 C 1154.234375 587.039062 1165.296875 591.511719 1168.058594 607.226562 L 1168.058594 655.96875 L 1133.398438 655.96875 L 1133.398438 607.226562 C 1136.15625 591.511719 1147.21875 587.039062 1150.546875 585.164062 Z M 1453.179688 596.929688 C 1453.207031 596.960938 1453.234375 596.988281 1453.265625 597.019531 C 1453.296875 596.988281 1453.324219 596.960938 1453.351562 596.929688 L 1453.351562 597.105469 C 1454.953125 598.664062 1460.273438 602.382812 1461.601562 615.449219 L 1461.601562 655.96875 L 1444.929688 655.96875 L 1444.929688 615.449219 C 1446.257812 602.382812 1451.578125 598.664062 1453.179688 597.105469 Z M 1518.273438 596.929688 C 1518.300781 596.960938 1518.328125 596.988281 1518.359375 597.019531 C 1518.386719 596.988281 1518.417969 596.960938 1518.445312 596.929688 L 1518.445312 597.105469 C 1520.046875 598.664062 1525.367188 602.382812 1526.695312 615.449219 L 1526.695312 655.96875 L 1510.023438 655.96875 L 1510.023438 615.449219 C 1511.351562 602.382812 1516.671875 598.664062 1518.273438 597.105469 Z M 1484.996094 584.953125 C 1485.050781 584.988281 1485.109375 585.023438 1485.171875 585.0625 C 1485.234375 585.023438 1485.296875 584.988281 1485.351562 584.953125 L 1485.351562 585.164062 C 1488.679688 587.039062 1499.742188 591.511719 1502.503906 607.226562 L 1502.503906 655.96875 L 1467.84375 655.96875 L 1467.84375 607.226562 C 1470.601562 591.511719 1481.664062 587.039062 1484.996094 585.164062 Z M 1484.996094 584.953125 " fill-opacity="1" fill-rule="evenodd"/></g><g clip-path="url(#b96a0ce24d)"><path fill="#000000" d="M 1714.457031 717.746094 L 1704.269531 717.746094 L 1704.269531 711.320312 L 1700.605469 711.320312 C 1700.082031 684.324219 1691.738281 669.632812 1668.363281 663.921875 C 1668 657.320312 1664.140625 653.800781 1659.023438 650.070312 L 1658.769531 645.292969 L 1658.5625 640.359375 L 1657.441406 613.707031 L 1656.746094 640.359375 L 1656.617188 645.292969 L 1656.457031 650.109375 C 1651.539062 653.164062 1647.640625 657.78125 1647.300781 663.921875 C 1623.925781 669.632812 1615.582031 684.324219 1615.058594 711.320312 L 1611.394531 711.320312 L 1611.394531 717.746094 L 1609.859375 717.746094 L 1609.859375 707.277344 L 1579.933594 707.277344 L 1579.933594 632.804688 L 1588.972656 632.804688 L 1588.972656 624.242188 L 1579.933594 624.242188 L 1579.933594 550.777344 L 1588.972656 550.777344 L 1588.972656 542.210938 L 1579.933594 542.210938 L 1579.933594 467.324219 L 1588.972656 467.324219 L 1588.972656 458.757812 L 1580.882812 458.757812 L 1580.882812 421.640625 L 1591.589844 421.640625 L 1591.589844 406.890625 L 1584.242188 406.890625 L 1584.242188 384.789062 L 1578.160156 384.789062 L 1578.160156 380.953125 L 1575.972656 380.953125 C 1575.660156 364.832031 1570.675781 356.058594 1556.71875 352.648438 C 1556.5 348.703125 1554.199219 346.601562 1551.140625 344.375 L 1550.988281 341.523438 L 1550.863281 338.578125 L 1550.195312 322.660156 L 1549.777344 338.578125 L 1549.703125 341.523438 L 1549.605469 344.398438 C 1546.671875 346.222656 1544.34375 348.980469 1544.140625 352.648438 C 1530.183594 356.058594 1525.199219 364.832031 1524.886719 380.953125 L 1522.699219 380.953125 L 1522.699219 384.789062 L 1516.613281 384.789062 L 1516.613281 406.890625 L 1509.265625 406.890625 L 1509.265625 421.640625 L 1519.972656 421.640625 L 1519.972656 458.757812 L 1511.882812 458.757812 L 1511.882812 467.324219 L 1520.925781 467.324219 L 1520.925781 542.214844 L 1511.882812 542.214844 L 1511.882812 550.777344 L 1520.925781 550.777344 L 1520.925781 624.242188 L 1511.882812 624.242188 L 1511.882812 632.804688 L 1520.925781 632.804688 L 1520.925781 707.277344 L 1501.484375 707.277344 L 1501.484375 541.847656 L 1506.203125 541.847656 L 1506.203125 525.667969 L 1496.015625 525.667969 L 1496.015625 519.246094 L 1492.347656 519.246094 C 1518 484.632812 1483.480469 455.667969 1460.105469 449.957031 C 1459.742188 443.351562 1455.886719 439.832031 1450.765625 436.105469 L 1450.511719 431.328125 L 1450.304688 426.394531 L 1449.183594 399.742188 L 1448.488281 426.394531 L 1448.359375 431.328125 L 1448.199219 436.140625 C 1443.28125 439.195312 1439.382812 443.8125 1439.042969 449.957031 C 1415.667969 455.667969 1384.484375 480.351562 1406.800781 519.246094 L 1403.136719 519.246094 L 1403.136719 525.667969 L 1392.949219 525.667969 L 1392.949219 541.847656 L 1397.273438 541.847656 L 1397.273438 669.125 L 1371.816406 669.125 L 1371.816406 653.421875 L 1362.535156 653.421875 C 1387.085938 582.652344 1356.058594 546.902344 1314.886719 525.058594 C 1300.816406 517.59375 1280.226562 492.4375 1270.351562 474.632812 C 1275.148438 473.472656 1278.707031 469.152344 1278.707031 463.996094 C 1278.707031 459.285156 1275.726562 455.265625 1271.546875 453.726562 L 1269.734375 428.230469 C 1285.054688 423.421875 1296.171875 409.109375 1296.171875 392.199219 C 1296.171875 375.339844 1285.121094 361.0625 1269.871094 356.210938 C 1276.964844 362.488281 1281.4375 371.65625 1281.4375 381.871094 C 1281.4375 400.785156 1266.105469 416.117188 1247.191406 416.117188 C 1238 416.117188 1229.652344 412.496094 1223.503906 406.605469 C 1229.164062 420.3125 1242.660156 429.957031 1258.414062 429.957031 C 1261.65625 429.957031 1264.804688 429.546875 1267.808594 428.777344 L 1264.9375 453.421875 C 1260.261719 454.667969 1256.820312 458.929688 1256.820312 463.996094 C 1256.820312 469.324219 1260.621094 473.757812 1265.660156 474.738281 C 1255.753906 492.257812 1239.742188 515.410156 1219.804688 526.25 C 1178.855469 548.507812 1148.554688 582.652344 1173.105469 653.421875 L 1166.71875 653.421875 L 1166.71875 669.125 L 1139.632812 669.125 L 1139.632812 541.847656 L 1144.347656 541.847656 L 1144.347656 525.667969 L 1134.160156 525.667969 L 1134.160156 519.246094 L 1130.496094 519.246094 C 1156.144531 484.632812 1121.628906 455.667969 1098.25 449.957031 C 1097.886719 443.351562 1094.03125 439.832031 1088.914062 436.105469 L 1088.660156 431.328125 L 1088.453125 426.394531 L 1087.328125 399.742188 L 1086.632812 426.394531 L 1086.503906 431.328125 L 1086.347656 436.140625 C 1081.429688 439.195312 1077.53125 443.8125 1077.191406 449.957031 C 1053.816406 455.667969 1022.628906 480.351562 1044.949219 519.246094 L 1041.28125 519.246094 L 1041.28125 525.667969 L 1031.09375 525.667969 L 1031.09375 541.847656 L 1035.417969 541.847656 L 1035.417969 707.277344 L 1023.675781 707.277344 L 1023.675781 687.277344 L 1011.964844 687.277344 L 1011.964844 679.894531 L 1007.753906 679.894531 C 1007.152344 648.871094 997.5625 631.988281 970.699219 625.425781 C 970.28125 617.835938 965.851562 613.792969 959.96875 609.507812 L 959.675781 604.015625 L 959.4375 598.347656 L 958.148438 567.71875 L 957.347656 598.347656 L 957.199219 604.015625 L 957.019531 609.546875 C 951.367188 613.058594 946.886719 618.363281 946.496094 625.425781 C 919.632812 631.988281 910.042969 648.871094 909.445312 679.894531 L 905.230469 679.894531 L 905.230469 687.277344 L 893.523438 687.277344 L 893.523438 707.277344 L 881.730469 707.277344 L 881.730469 632.808594 L 890.769531 632.808594 L 890.769531 624.242188 L 881.730469 624.242188 L 881.730469 550.78125 L 890.769531 550.78125 L 890.769531 542.214844 L 881.730469 542.214844 L 881.730469 467.324219 L 890.769531 467.324219 L 890.769531 458.757812 L 882.679688 458.757812 L 882.679688 421.640625 L 893.386719 421.640625 L 893.386719 406.890625 L 886.039062 406.890625 L 886.039062 384.789062 L 879.957031 384.789062 L 879.957031 380.953125 L 877.765625 380.953125 C 877.457031 364.832031 872.472656 356.058594 858.515625 352.648438 C 858.296875 348.703125 855.992188 346.601562 852.9375 344.375 L 852.785156 341.523438 L 852.660156 338.578125 L 851.992188 322.664062 L 851.574219 338.578125 L 851.5 341.523438 L 851.402344 344.398438 C 848.46875 346.222656 846.140625 348.980469 845.9375 352.648438 C 831.976562 356.058594 826.996094 364.832031 826.683594 380.953125 L 824.492188 380.953125 L 824.492188 384.789062 L 818.410156 384.789062 L 818.410156 406.890625 L 811.0625 406.890625 L 811.0625 421.640625 L 821.769531 421.640625 L 821.769531 458.757812 L 813.679688 458.757812 L 813.679688 467.324219 L 822.722656 467.324219 L 822.722656 542.214844 L 813.679688 542.214844 L 813.679688 550.78125 L 822.722656 550.78125 L 822.722656 624.242188 L 813.679688 624.242188 L 813.679688 632.808594 L 822.722656 632.808594 L 822.722656 707.277344 L 811.367188 707.277344 L 811.367188 754.09375 L 800.707031 754.09375 L 800.707031 680.839844 L 805.421875 680.839844 L 805.421875 664.660156 L 795.234375 664.660156 L 795.234375 658.238281 L 791.566406 658.238281 C 817.21875 623.625 782.699219 594.660156 759.324219 588.949219 C 758.960938 582.34375 755.105469 578.824219 749.984375 575.097656 L 749.734375 570.320312 L 749.523438 565.386719 L 748.402344 538.734375 L 747.707031 565.386719 L 747.578125 570.320312 L 747.417969 575.132812 C 742.503906 578.1875 738.605469 582.804688 738.265625 588.949219 C 714.890625 594.660156 683.703125 619.34375 706.019531 658.238281 L 702.355469 658.238281 L 702.355469 664.660156 L 692.167969 664.660156 L 692.167969 680.839844 L 696.492188 680.839844 L 696.492188 748.4375 L 693.34375 748.4375 L 693.34375 742.015625 L 689.675781 742.015625 C 689.152344 715.015625 680.808594 700.324219 657.433594 694.613281 C 657.070312 688.011719 653.214844 684.492188 648.09375 680.761719 L 647.839844 675.984375 L 647.632812 671.054688 L 646.511719 644.398438 L 645.816406 671.054688 L 645.6875 675.984375 L 645.527344 680.800781 C 640.609375 683.855469 636.710938 688.472656 636.371094 694.617188 C 612.996094 700.328125 604.652344 715.019531 604.128906 742.015625 L 600.464844 742.015625 L 600.464844 748.4375 L 590.277344 748.4375 L 590.277344 754.09375 L 585.039062 754.09375 L 585.039062 807.207031 L 1716.832031 807.207031 L 1716.832031 754.09375 L 1714.460938 754.09375 L 1714.460938 717.746094 Z M 793.042969 754.089844 L 775.007812 754.089844 L 775.007812 721.796875 C 776.441406 707.660156 782.199219 703.636719 783.933594 701.949219 L 783.933594 701.761719 C 783.960938 701.792969 783.992188 701.824219 784.023438 701.855469 C 784.058594 701.824219 784.089844 701.792969 784.117188 701.761719 L 784.117188 701.949219 C 785.851562 703.636719 791.605469 707.660156 793.042969 721.796875 Z M 766.871094 754.089844 L 729.371094 754.089844 L 729.371094 712.902344 C 732.355469 695.898438 744.324219 691.058594 747.929688 689.03125 L 747.929688 688.800781 C 747.988281 688.839844 748.054688 688.878906 748.121094 688.917969 C 748.1875 688.878906 748.253906 688.839844 748.3125 688.800781 L 748.3125 689.03125 C 751.914062 691.058594 763.886719 695.898438 766.871094 712.902344 Z M 722.617188 754.089844 L 704.578125 754.089844 L 704.578125 721.796875 C 706.015625 707.660156 711.773438 703.636719 713.503906 701.949219 L 713.503906 701.761719 C 713.53125 701.792969 713.5625 701.824219 713.597656 701.855469 C 713.628906 701.824219 713.660156 701.792969 713.691406 701.761719 L 713.691406 701.949219 C 715.421875 703.636719 721.179688 707.660156 722.617188 721.796875 Z M 875.429688 425.386719 L 869.480469 425.386719 L 869.480469 454.058594 L 875.429688 454.058594 Z M 861.941406 425.386719 L 855.992188 425.386719 L 855.992188 454.058594 L 861.941406 454.058594 Z M 848.453125 425.386719 L 842.503906 425.386719 L 842.503906 454.058594 L 848.453125 454.058594 Z M 834.964844 425.386719 L 829.015625 425.386719 L 829.015625 454.058594 L 834.964844 454.058594 Z M 852.222656 649.058594 L 852.289062 649.085938 C 857.316406 651.089844 862.992188 657.289062 864.289062 662.949219 L 864.289062 699.351562 L 840.15625 699.351562 L 840.15625 662.949219 C 841.453125 657.289062 847.128906 651.089844 852.15625 649.085938 Z M 852.222656 567.03125 L 852.289062 567.058594 C 857.316406 569.0625 862.992188 575.261719 864.289062 580.921875 L 864.289062 617.324219 L 840.15625 617.324219 L 840.15625 580.921875 C 841.453125 575.261719 847.128906 569.0625 852.15625 567.058594 Z M 852.222656 483.574219 L 852.289062 483.601562 C 857.316406 485.609375 862.992188 491.808594 864.289062 497.46875 L 864.289062 533.871094 L 840.15625 533.871094 L 840.15625 497.46875 C 841.453125 491.808594 847.128906 485.609375 852.15625 483.601562 Z M 1573.636719 425.386719 L 1567.6875 425.386719 L 1567.6875 454.058594 L 1573.636719 454.058594 Z M 1560.148438 425.386719 L 1554.199219 425.386719 L 1554.199219 454.058594 L 1560.148438 454.058594 Z M 1546.65625 425.386719 L 1540.710938 425.386719 L 1540.710938 454.058594 L 1546.65625 454.058594 Z M 1533.167969 425.386719 L 1527.222656 425.386719 L 1527.222656 454.058594 L 1533.167969 454.058594 Z M 1550.429688 649.058594 L 1550.496094 649.085938 C 1555.523438 651.089844 1561.199219 657.289062 1562.496094 662.949219 L 1562.496094 699.351562 L 1538.359375 699.351562 L 1538.359375 662.949219 C 1539.65625 657.289062 1545.335938 651.089844 1550.363281 649.085938 Z M 1550.429688 567.03125 L 1550.496094 567.058594 C 1555.523438 569.0625 1561.199219 575.261719 1562.496094 580.921875 L 1562.496094 617.324219 L 1538.359375 617.324219 L 1538.359375 580.921875 C 1539.65625 575.261719 1545.335938 569.0625 1550.363281 567.058594 Z M 1550.429688 483.574219 L 1550.496094 483.601562 C 1555.523438 485.609375 1561.199219 491.808594 1562.496094 497.46875 L 1562.496094 533.871094 L 1538.359375 533.871094 L 1538.359375 497.46875 C 1539.65625 491.808594 1545.335938 485.609375 1550.363281 483.601562 Z M 1052.429688 562.769531 C 1052.460938 562.800781 1052.492188 562.832031 1052.523438 562.867188 C 1052.554688 562.832031 1052.585938 562.800781 1052.617188 562.769531 L 1052.617188 562.957031 C 1054.347656 564.644531 1060.105469 568.667969 1061.542969 582.804688 L 1061.542969 626.644531 L 1043.503906 626.644531 L 1043.503906 582.804688 C 1044.941406 568.667969 1050.699219 564.644531 1052.429688 562.957031 Z M 1122.859375 562.769531 C 1122.886719 562.800781 1122.917969 562.832031 1122.949219 562.867188 C 1122.984375 562.832031 1123.015625 562.800781 1123.042969 562.769531 L 1123.042969 562.957031 C 1124.777344 564.644531 1130.53125 568.667969 1131.96875 582.804688 L 1131.96875 626.644531 L 1113.933594 626.644531 L 1113.933594 582.804688 C 1115.367188 568.667969 1121.125 564.644531 1122.859375 562.957031 Z M 1086.855469 549.8125 C 1086.914062 549.847656 1086.980469 549.886719 1087.046875 549.925781 C 1087.113281 549.886719 1087.179688 549.847656 1087.238281 549.8125 L 1087.238281 550.039062 C 1090.839844 552.066406 1102.8125 556.90625 1105.796875 573.910156 L 1105.796875 626.644531 L 1068.296875 626.644531 L 1068.296875 573.910156 C 1071.28125 556.90625 1083.25 552.066406 1086.855469 550.039062 Z M 1414.285156 562.769531 C 1414.316406 562.800781 1414.347656 562.832031 1414.378906 562.867188 C 1414.414062 562.832031 1414.445312 562.800781 1414.472656 562.769531 L 1414.472656 562.957031 C 1416.207031 564.644531 1421.960938 568.667969 1423.398438 582.804688 L 1423.398438 626.644531 L 1405.363281 626.644531 L 1405.363281 582.804688 C 1406.796875 568.667969 1412.554688 564.644531 1414.289062 562.957031 L 1414.289062 562.769531 Z M 1484.714844 562.769531 C 1484.742188 562.800781 1484.773438 562.832031 1484.808594 562.867188 C 1484.839844 562.832031 1484.871094 562.800781 1484.898438 562.769531 L 1484.898438 562.957031 C 1486.632812 564.644531 1492.390625 568.667969 1493.824219 582.804688 L 1493.824219 626.644531 L 1475.789062 626.644531 L 1475.789062 582.804688 C 1477.226562 568.667969 1482.980469 564.644531 1484.714844 562.957031 Z M 1448.710938 549.8125 C 1448.769531 549.847656 1448.835938 549.886719 1448.902344 549.925781 C 1448.972656 549.886719 1449.035156 549.847656 1449.09375 549.8125 L 1449.09375 550.039062 C 1452.699219 552.066406 1464.667969 556.90625 1467.652344 573.910156 L 1467.652344 626.644531 L 1430.152344 626.644531 L 1430.152344 573.910156 C 1433.136719 556.90625 1445.109375 552.066406 1448.710938 550.039062 Z M 1448.710938 549.8125 " fill-opacity="1" fill-rule="evenodd"/></g></svg>