<svg xmlns="http://www.w3.org/2000/svg" xmlns:xlink="http://www.w3.org/1999/xlink" width="500" zoomAndPan="magnify" viewBox="0 0 375 374.999991" height="500" preserveAspectRatio="xMidYMid meet" version="1.0"><defs><clipPath id="6fc49bdb14"><path d="M 0.285156 43.484375 L 374.667969 43.484375 L 374.667969 290.933594 L 0.285156 290.933594 Z M 0.285156 43.484375 " clip-rule="nonzero"/></clipPath><clipPath id="3fa14a7671"><path d="M 12 20.183594 L 192 20.183594 L 192 272 L 12 272 Z M 12 20.183594 " clip-rule="nonzero"/></clipPath><clipPath id="4956dc3348"><path d="M 183 20.183594 L 363 20.183594 L 363 272 L 183 272 Z M 183 20.183594 " clip-rule="nonzero"/></clipPath></defs><path fill="#ffffff" d="M 358.691406 47.445312 L 4.167969 47.445312 L 4.167969 276.582031 L 161.761719 276.582031 C 176.050781 290.867188 199.210938 290.867188 213.496094 276.582031 L 370.785156 276.582031 L 370.785156 47.445312 L 358.691406 47.445312 " fill-opacity="1" fill-rule="nonzero"/><g clip-path="url(#6fc49bdb14)"><path fill="#b5b5b5" d="M 8.046875 272.703125 L 161.761719 272.703125 C 162.792969 272.703125 163.777344 273.113281 164.507812 273.839844 C 170.683594 280.015625 178.894531 283.414062 187.632812 283.414062 C 196.367188 283.414062 204.578125 280.015625 210.753906 273.839844 C 211.480469 273.113281 212.46875 272.703125 213.496094 272.703125 L 366.90625 272.703125 L 366.90625 51.328125 L 8.046875 51.328125 Z M 187.632812 291.175781 C 177.371094 291.175781 167.695312 287.382812 160.203125 280.464844 L 4.167969 280.464844 C 2.023438 280.464844 0.285156 278.726562 0.285156 276.582031 L 0.285156 47.445312 C 0.285156 45.300781 2.023438 43.566406 4.167969 43.566406 L 370.785156 43.566406 C 372.929688 43.566406 374.667969 45.300781 374.667969 47.445312 L 374.667969 276.582031 C 374.667969 278.726562 372.929688 280.464844 370.785156 280.464844 L 215.058594 280.464844 C 207.566406 287.382812 197.890625 291.175781 187.632812 291.175781 " fill-opacity="1" fill-rule="nonzero"/></g><path fill="#ffffff" d="M 16.261719 38.28125 C 16.261719 114.660156 16.261719 191.039062 16.261719 267.414062 C 71.902344 249.339844 131.835938 249.339844 187.476562 267.414062 C 187.476562 191.039062 187.476562 114.660156 187.476562 38.28125 C 131.835938 20.203125 71.902344 20.203125 16.261719 38.28125 " fill-opacity="1" fill-rule="nonzero"/><g clip-path="url(#3fa14a7671)"><path fill="#b5b5b5" d="M 101.871094 249.976562 C 129.613281 249.976562 157.082031 254.0625 183.597656 262.132812 L 183.597656 41.117188 C 157.121094 32.808594 129.636719 28.601562 101.871094 28.601562 C 74.101562 28.601562 46.621094 32.808594 20.140625 41.117188 L 20.140625 262.128906 C 46.65625 254.0625 74.125 249.976562 101.871094 249.976562 Z M 16.261719 271.296875 C 15.449219 271.296875 14.652344 271.046875 13.980469 270.554688 C 12.976562 269.824219 12.382812 268.65625 12.382812 267.414062 L 12.382812 38.28125 C 12.382812 36.597656 13.464844 35.109375 15.0625 34.589844 C 43.140625 25.46875 72.34375 20.839844 101.871094 20.839844 C 131.390625 20.839844 160.597656 25.46875 188.675781 34.589844 C 190.273438 35.109375 191.359375 36.597656 191.359375 38.28125 L 191.359375 267.414062 C 191.359375 268.65625 190.761719 269.824219 189.757812 270.554688 C 188.753906 271.289062 187.453125 271.496094 186.28125 271.109375 C 158.976562 262.238281 130.574219 257.738281 101.871094 257.738281 C 73.164062 257.738281 44.761719 262.238281 17.460938 271.109375 C 17.070312 271.238281 16.664062 271.296875 16.261719 271.296875 " fill-opacity="1" fill-rule="nonzero"/></g><path fill="#ffffff" d="M 187.476562 38.28125 C 187.476562 114.660156 187.476562 191.039062 187.476562 267.414062 C 243.117188 249.339844 303.050781 249.339844 358.6875 267.414062 C 358.6875 191.039062 358.6875 114.660156 358.6875 38.28125 C 303.050781 20.203125 243.117188 20.203125 187.476562 38.28125 " fill-opacity="1" fill-rule="nonzero"/><g clip-path="url(#4956dc3348)"><path fill="#b5b5b5" d="M 273.085938 249.976562 C 300.828125 249.976562 328.296875 254.0625 354.8125 262.132812 L 354.8125 41.117188 C 328.332031 32.808594 300.851562 28.601562 273.085938 28.601562 C 245.3125 28.601562 217.835938 32.808594 191.359375 41.117188 L 191.359375 262.128906 C 217.867188 254.0625 245.335938 249.976562 273.085938 249.976562 Z M 187.476562 271.296875 C 186.667969 271.296875 185.867188 271.046875 185.195312 270.554688 C 184.191406 269.824219 183.597656 268.65625 183.597656 267.414062 L 183.597656 38.28125 C 183.597656 36.597656 184.679688 35.109375 186.28125 34.589844 C 214.355469 25.46875 243.558594 20.839844 273.085938 20.839844 C 302.605469 20.839844 331.8125 25.46875 359.890625 34.589844 C 361.488281 35.109375 362.574219 36.597656 362.574219 38.28125 L 362.574219 267.414062 C 362.574219 268.65625 361.976562 269.824219 360.972656 270.554688 C 359.96875 271.289062 358.671875 271.496094 357.492188 271.109375 C 330.1875 262.238281 301.792969 257.738281 273.085938 257.738281 C 244.375 257.738281 215.976562 262.238281 188.675781 271.109375 C 188.285156 271.238281 187.878906 271.296875 187.476562 271.296875 " fill-opacity="1" fill-rule="nonzero"/></g></svg>