<svg xmlns="http://www.w3.org/2000/svg" xmlns:xlink="http://www.w3.org/1999/xlink" width="500" zoomAndPan="magnify" viewBox="0 0 375 374.999991" height="500" preserveAspectRatio="xMidYMid meet" version="1.0"><defs><clipPath id="1a34a8b10f"><path d="M 0.285156 74.148438 L 374.667969 74.148438 L 374.667969 321.597656 L 0.285156 321.597656 Z M 0.285156 74.148438 " clip-rule="nonzero"/></clipPath></defs><path fill="#1b392c" d="M 358.691406 78.113281 L 4.167969 78.113281 L 4.167969 307.25 L 161.761719 307.25 C 176.050781 321.53125 199.210938 321.53125 213.496094 307.25 L 370.785156 307.25 L 370.785156 78.113281 L 358.691406 78.113281 " fill-opacity="1" fill-rule="nonzero"/><g clip-path="url(#1a34a8b10f)"><path fill="#ffffff" d="M 8.046875 303.367188 L 161.761719 303.367188 C 162.792969 303.367188 163.777344 303.777344 164.507812 304.503906 C 170.683594 310.679688 178.894531 314.082031 187.632812 314.082031 C 196.367188 314.082031 204.578125 310.679688 210.753906 304.503906 C 211.480469 303.777344 212.46875 303.367188 213.496094 303.367188 L 366.90625 303.367188 L 366.90625 81.992188 L 8.046875 81.992188 Z M 187.632812 321.839844 C 177.371094 321.839844 167.695312 318.050781 160.203125 311.128906 L 4.167969 311.128906 C 2.023438 311.128906 0.285156 309.390625 0.285156 307.25 L 0.285156 78.113281 C 0.285156 75.964844 2.023438 74.230469 4.167969 74.230469 L 370.785156 74.230469 C 372.929688 74.230469 374.667969 75.964844 374.667969 78.113281 L 374.667969 307.25 C 374.667969 309.390625 372.929688 311.128906 370.785156 311.128906 L 215.058594 311.128906 C 207.566406 318.050781 197.890625 321.839844 187.632812 321.839844 " fill-opacity="1" fill-rule="nonzero"/></g><path fill="#1b392c" d="M 16.261719 68.945312 C 16.261719 145.324219 16.261719 221.703125 16.261719 298.078125 C 71.902344 280.003906 131.835938 280.003906 187.476562 298.078125 C 187.476562 221.703125 187.476562 145.324219 187.476562 68.945312 C 131.835938 50.867188 71.902344 50.867188 16.261719 68.945312 " fill-opacity="1" fill-rule="nonzero"/><path fill="#ffffff" d="M 101.871094 280.640625 C 129.613281 280.640625 157.082031 284.730469 183.597656 292.796875 L 183.597656 71.78125 C 157.121094 63.472656 129.636719 59.265625 101.871094 59.265625 C 74.101562 59.265625 46.621094 63.472656 20.140625 71.78125 L 20.140625 292.792969 C 46.65625 284.730469 74.125 280.640625 101.871094 280.640625 Z M 16.261719 301.960938 C 15.449219 301.960938 14.652344 301.710938 13.980469 301.21875 C 12.976562 300.488281 12.382812 299.320312 12.382812 298.078125 L 12.382812 68.945312 C 12.382812 67.261719 13.464844 65.773438 15.0625 65.253906 C 43.140625 56.132812 72.34375 51.503906 101.871094 51.503906 C 131.390625 51.503906 160.597656 56.132812 188.675781 65.253906 C 190.273438 65.773438 191.359375 67.261719 191.359375 68.945312 L 191.359375 298.078125 C 191.359375 299.320312 190.761719 300.488281 189.757812 301.21875 C 188.753906 301.953125 187.453125 302.160156 186.28125 301.773438 C 158.976562 292.902344 130.574219 288.402344 101.871094 288.402344 C 73.164062 288.402344 44.761719 292.902344 17.460938 301.773438 C 17.070312 301.902344 16.664062 301.960938 16.261719 301.960938 " fill-opacity="1" fill-rule="nonzero"/><path fill="#1b392c" d="M 187.476562 68.945312 C 187.476562 145.324219 187.476562 221.703125 187.476562 298.078125 C 243.117188 280.003906 303.050781 280.003906 358.6875 298.078125 C 358.6875 221.703125 358.6875 145.324219 358.6875 68.945312 C 303.050781 50.867188 243.117188 50.867188 187.476562 68.945312 " fill-opacity="1" fill-rule="nonzero"/><path fill="#ffffff" d="M 273.085938 280.640625 C 300.828125 280.640625 328.296875 284.730469 354.8125 292.796875 L 354.8125 71.78125 C 328.332031 63.472656 300.851562 59.265625 273.085938 59.265625 C 245.3125 59.265625 217.835938 63.472656 191.359375 71.78125 L 191.359375 292.792969 C 217.867188 284.730469 245.335938 280.640625 273.085938 280.640625 Z M 187.476562 301.960938 C 186.667969 301.960938 185.867188 301.710938 185.195312 301.21875 C 184.191406 300.488281 183.597656 299.320312 183.597656 298.078125 L 183.597656 68.945312 C 183.597656 67.261719 184.679688 65.773438 186.28125 65.253906 C 214.355469 56.132812 243.558594 51.503906 273.085938 51.503906 C 302.605469 51.503906 331.8125 56.132812 359.890625 65.253906 C 361.488281 65.773438 362.574219 67.261719 362.574219 68.945312 L 362.574219 298.078125 C 362.574219 299.320312 361.976562 300.488281 360.972656 301.21875 C 359.96875 301.953125 358.671875 302.160156 357.492188 301.773438 C 330.1875 292.902344 301.792969 288.402344 273.085938 288.402344 C 244.375 288.402344 215.976562 292.902344 188.675781 301.773438 C 188.285156 301.902344 187.878906 301.960938 187.476562 301.960938 " fill-opacity="1" fill-rule="nonzero"/></svg>