<svg xmlns="http://www.w3.org/2000/svg" xmlns:xlink="http://www.w3.org/1999/xlink" width="500" zoomAndPan="magnify" viewBox="0 0 375 374.999991" height="500" preserveAspectRatio="xMidYMid meet" version="1.0"><defs><clipPath id="a42c60ba7f"><path d="M 187.5 0 C 83.945312 0 0 83.945312 0 187.5 C 0 291.054688 83.945312 375 187.5 375 C 291.054688 375 375 291.054688 375 187.5 C 375 83.945312 291.054688 0 187.5 0 Z M 187.5 0 " clip-rule="nonzero"/></clipPath><clipPath id="a9fe481b8d"><path d="M 165 41 L 212 41 L 212 91 L 165 91 Z M 165 41 " clip-rule="nonzero"/></clipPath><clipPath id="850d953cc2"><path d="M 152.886719 76.21875 L 189.089844 41.371094 L 223.9375 77.574219 L 187.734375 112.421875 Z M 152.886719 76.21875 " clip-rule="nonzero"/></clipPath><clipPath id="5ad4e4ec33"><path d="M 152.886719 76.21875 L 189.089844 41.371094 L 223.9375 77.574219 L 187.734375 112.421875 Z M 152.886719 76.21875 " clip-rule="nonzero"/></clipPath><clipPath id="22f78e13da"><path d="M 113.484375 114.65625 L 263.484375 114.65625 L 263.484375 260.15625 L 113.484375 260.15625 Z M 113.484375 114.65625 " clip-rule="nonzero"/></clipPath><clipPath id="5bdeb6421a"><path d="M 113.484375 114.65625 L 189 114.65625 L 189 260.15625 L 113.484375 260.15625 Z M 113.484375 114.65625 " clip-rule="nonzero"/></clipPath><clipPath id="d8436d01d6"><path d="M 113.492188 135.902344 L 188.492188 114.683594 L 263.492188 135.902344 L 263.492188 246.890625 L 188.492188 260.308594 L 113.492188 246.890625 Z M 113.492188 135.902344 " clip-rule="evenodd"/></clipPath><clipPath id="b1776922f4"><path d="M 219 205 L 239 205 L 239 259 L 219 259 Z M 219 205 " clip-rule="nonzero"/></clipPath><clipPath id="5ced7779df"><path d="M 113.492188 135.902344 L 188.492188 114.683594 L 263.492188 135.902344 L 263.492188 246.890625 L 188.492188 260.308594 L 113.492188 246.890625 Z M 113.492188 135.902344 " clip-rule="evenodd"/></clipPath><clipPath id="a2f9d04e32"><path d="M 113.484375 140 L 263.484375 140 L 263.484375 236 L 113.484375 236 Z M 113.484375 140 " clip-rule="nonzero"/></clipPath><clipPath id="0a40db1285"><path d="M 113.492188 135.902344 L 188.492188 114.683594 L 263.492188 135.902344 L 263.492188 246.890625 L 188.492188 260.308594 L 113.492188 246.890625 Z M 113.492188 135.902344 " clip-rule="evenodd"/></clipPath><clipPath id="90bba3545c"><path d="M 113.484375 140.167969 L 189 140.167969 L 189 235.601562 L 113.484375 235.601562 Z M 113.484375 140.167969 " clip-rule="nonzero"/></clipPath><clipPath id="ffe7aa0042"><path d="M 113.492188 135.902344 L 188.492188 114.683594 L 263.492188 135.902344 L 263.492188 246.890625 L 188.492188 260.308594 L 113.492188 246.890625 Z M 113.492188 135.902344 " clip-rule="evenodd"/></clipPath><clipPath id="2be6549ce9"><path d="M 108.585938 179.292969 L 119.179688 177.121094 L 119.179688 190.992188 L 110.453125 192.992188 Z M 268.351562 179.292969 L 257.757812 177.121094 L 257.757812 190.992188 L 266.484375 192.992188 Z M 250.558594 190.667969 C 248.101562 187.675781 246.90625 185.53125 246.90625 185.53125 C 245.085938 182.222656 248.648438 179.660156 248.648438 179.660156 C 248.488281 175.035156 250.425781 175.304688 250.558594 175.308594 C 250.660156 175.308594 252.632812 175.035156 252.472656 179.660156 C 252.472656 179.660156 256.03125 182.222656 254.214844 185.53125 C 254.214844 185.53125 253.019531 187.675781 250.558594 190.667969 Z M 126.378906 190.667969 C 128.835938 187.675781 130.03125 185.53125 130.03125 185.53125 C 131.851562 182.222656 128.289062 179.660156 128.289062 179.660156 C 128.449219 175.035156 126.511719 175.304688 126.378906 175.308594 C 126.277344 175.308594 124.304688 175.035156 124.464844 179.660156 C 124.464844 179.660156 120.90625 182.222656 122.722656 185.53125 C 122.722656 185.53125 123.917969 187.675781 126.378906 190.667969 Z M 133.953125 173.765625 L 160.773438 167.15625 L 160.773438 183.417969 L 133.953125 188.1875 Z M 242.984375 173.765625 L 216.164062 167.15625 L 216.164062 235.542969 L 225.789062 235.542969 L 229.511719 209.875 L 233.351562 235.542969 L 242.984375 235.542969 Z M 206.722656 182.441406 C 203.722656 178.792969 202.265625 176.175781 202.265625 176.175781 C 200.046875 172.144531 204.390625 169.019531 204.390625 169.019531 C 204.195312 163.378906 206.558594 163.710938 206.722656 163.714844 C 206.84375 163.714844 209.246094 163.378906 209.054688 169.019531 C 209.054688 169.019531 213.394531 172.144531 211.175781 176.175781 C 211.175781 176.175781 209.71875 178.792969 206.722656 182.441406 Z M 170.214844 182.441406 C 173.214844 178.792969 174.671875 176.175781 174.671875 176.175781 C 176.890625 172.144531 172.550781 169.019531 172.550781 169.019531 C 172.742188 163.378906 170.378906 163.710938 170.214844 163.714844 C 170.09375 163.714844 167.691406 163.378906 167.882812 169.019531 C 167.882812 169.019531 163.542969 172.144531 165.761719 176.175781 C 165.761719 176.175781 167.21875 178.792969 170.214844 182.441406 Z M 180.96875 161.367188 L 188.570312 159.441406 L 195.929688 161.367188 L 195.929688 179.195312 L 188.570312 177.285156 L 180.96875 179.195312 Z M 188.5625 140.253906 L 105.144531 162.332031 L 108.300781 174.316406 L 188.5625 153.53125 L 270.035156 174.316406 L 270.035156 162.15625 Z M 188.5625 140.253906 " clip-rule="evenodd"/></clipPath></defs><g clip-path="url(#a42c60ba7f)"><path stroke-linecap="butt" transform="matrix(0.75, 0, 0, 0.75, 0.0000045, -0.00000000000017053)" fill="none" stroke-linejoin="miter" d="M 249.999994 0.000000000000227374 C 111.927078 0.000000000000227374 -0.000006 111.927084 -0.000006 250 C -0.000006 388.072917 111.927078 500.000001 249.999994 500.000001 C 388.072911 500.000001 499.999995 388.072917 499.999995 250 C 499.999995 111.927084 388.072911 0.000000000000227374 249.999994 0.000000000000227374 Z M 249.999994 0.000000000000227374 " stroke="#1b392c" stroke-width="80" stroke-opacity="1" stroke-miterlimit="4"/></g><path stroke-linecap="butt" transform="matrix(0.75, 0.000000000000000511, -0.000000000000000511, 0.75, 293.255611, 183.749988)" fill="none" stroke-linejoin="miter" d="M -0.00227279 5.000016 L 41.706063 5.000016 " stroke="#1b392c" stroke-width="10" stroke-opacity="1" stroke-miterlimit="4"/><path stroke-linecap="butt" transform="matrix(0.75, 0, 0, 0.75, 49.8136, 183.749988)" fill="none" stroke-linejoin="miter" d="M -0.00146617 5.000016 L 41.70687 5.000016 " stroke="#1b392c" stroke-width="10" stroke-opacity="1" stroke-miterlimit="4"/><path stroke-linecap="butt" transform="matrix(0.587525, 0.46617, -0.46617, 0.587525, 83.424412, 87.724074)" fill="none" stroke-linejoin="miter" d="M -0.00108276 4.998233 L 38.116195 4.998922 " stroke="#1b392c" stroke-width="10" stroke-opacity="1" stroke-miterlimit="4"/><path stroke-linecap="butt" transform="matrix(0.587525, 0.46617, -0.46617, 0.587525, 270.85906, 264.650755)" fill="none" stroke-linejoin="miter" d="M 0.000308543 5.002247 L 38.121666 4.999699 " stroke="#1b392c" stroke-width="10" stroke-opacity="1" stroke-miterlimit="4"/><path stroke-linecap="butt" transform="matrix(0.555342, -0.504079, 0.504079, 0.555342, 271.158003, 105.652097)" fill="none" stroke-linejoin="miter" d="M 0.000481049 5.002026 L 35.249598 4.999886 " stroke="#1b392c" stroke-width="10" stroke-opacity="1" stroke-miterlimit="4"/><path stroke-linecap="butt" transform="matrix(0.555342, -0.504079, 0.504079, 0.555342, 84.844129, 286.105498)" fill="none" stroke-linejoin="miter" d="M -0.00177152 4.999485 L 35.251202 5.000845 " stroke="#1b392c" stroke-width="10" stroke-opacity="1" stroke-miterlimit="4"/><path stroke-linecap="butt" transform="matrix(0.000000001309, -0.75, 0.75, 0.000000001309, 183.745305, 331.223592)" fill="none" stroke-linejoin="miter" d="M 0.00124748 5.001052 L 41.949167 5.001052 " stroke="#1b392c" stroke-width="10" stroke-opacity="1" stroke-miterlimit="4"/><g clip-path="url(#a9fe481b8d)"><g clip-path="url(#850d953cc2)"><g clip-path="url(#5ad4e4ec33)"><path fill="#1b392c" d="M 188.039062 42.609375 L 165.492188 88.179688 C 165.382812 88.394531 165.347656 88.625 165.378906 88.867188 C 165.414062 89.105469 165.511719 89.316406 165.671875 89.5 C 165.835938 89.679688 166.035156 89.800781 166.269531 89.859375 C 166.507812 89.917969 166.738281 89.902344 166.964844 89.820312 L 188.363281 81.96875 L 209.441406 90.628906 C 209.660156 90.71875 209.882812 90.742188 210.117188 90.695312 C 210.347656 90.652344 210.546875 90.550781 210.714844 90.386719 L 210.746094 90.355469 C 210.914062 90.183594 211.019531 89.976562 211.0625 89.738281 C 211.105469 89.496094 211.078125 89.265625 210.976562 89.042969 L 190.183594 42.648438 C 190.089844 42.441406 189.949219 42.273438 189.757812 42.144531 C 189.5625 42.019531 189.355469 41.953125 189.125 41.949219 C 188.894531 41.945312 188.679688 42 188.484375 42.121094 C 188.289062 42.242188 188.140625 42.402344 188.039062 42.609375 Z M 188.039062 42.609375 " fill-opacity="1" fill-rule="nonzero"/></g></g></g><g clip-path="url(#22f78e13da)"><path fill="#373737" d="M 113.492188 135.902344 L 188.492188 114.683594 L 263.492188 135.902344 L 263.492188 246.890625 L 188.492188 260.308594 L 113.492188 246.890625 Z M 113.492188 135.902344 " fill-opacity="1" fill-rule="evenodd"/></g><g clip-path="url(#5bdeb6421a)"><g clip-path="url(#d8436d01d6)"><path fill="#000000" d="M 188.570312 106.699219 L 107.777344 106.699219 L 107.777344 270.507812 L 188.570312 270.507812 Z M 188.570312 106.699219 " fill-opacity="1" fill-rule="evenodd"/></g></g><g clip-path="url(#b1776922f4)"><g clip-path="url(#5ced7779df)"><path fill="#438a6a" d="M 238.898438 205.910156 L 219.933594 205.910156 L 219.933594 258.824219 L 238.898438 258.824219 Z M 238.898438 205.910156 " fill-opacity="1" fill-rule="evenodd"/></g></g><g clip-path="url(#a2f9d04e32)"><g clip-path="url(#0a40db1285)"><path fill="#2c5c47" d="M 108.585938 179.292969 L 119.179688 177.121094 L 119.179688 190.992188 L 110.453125 192.992188 Z M 268.351562 179.292969 L 257.757812 177.121094 L 257.757812 190.992188 L 266.484375 192.992188 Z M 250.558594 190.667969 C 248.101562 187.675781 246.90625 185.53125 246.90625 185.53125 C 245.085938 182.222656 248.648438 179.660156 248.648438 179.660156 C 248.488281 175.035156 250.425781 175.304688 250.558594 175.308594 C 250.660156 175.308594 252.632812 175.035156 252.472656 179.660156 C 252.472656 179.660156 256.03125 182.222656 254.214844 185.53125 C 254.214844 185.53125 253.019531 187.675781 250.558594 190.667969 Z M 126.378906 190.667969 C 128.835938 187.675781 130.03125 185.53125 130.03125 185.53125 C 131.851562 182.222656 128.289062 179.660156 128.289062 179.660156 C 128.449219 175.035156 126.511719 175.304688 126.378906 175.308594 C 126.277344 175.308594 124.304688 175.035156 124.464844 179.660156 C 124.464844 179.660156 120.90625 182.222656 122.722656 185.53125 C 122.722656 185.53125 123.917969 187.675781 126.378906 190.667969 Z M 133.953125 173.765625 L 160.773438 167.15625 L 160.773438 183.417969 L 133.953125 188.1875 Z M 242.984375 173.765625 L 216.164062 167.15625 L 216.164062 235.542969 L 225.789062 235.542969 L 229.511719 209.875 L 233.351562 235.542969 L 242.984375 235.542969 Z M 206.722656 182.441406 C 203.722656 178.792969 202.265625 176.175781 202.265625 176.175781 C 200.046875 172.144531 204.390625 169.019531 204.390625 169.019531 C 204.195312 163.378906 206.558594 163.710938 206.722656 163.714844 C 206.84375 163.714844 209.246094 163.378906 209.054688 169.019531 C 209.054688 169.019531 213.394531 172.144531 211.175781 176.175781 C 211.175781 176.175781 209.71875 178.792969 206.722656 182.441406 Z M 170.214844 182.441406 C 173.214844 178.792969 174.671875 176.175781 174.671875 176.175781 C 176.890625 172.144531 172.550781 169.019531 172.550781 169.019531 C 172.742188 163.378906 170.378906 163.710938 170.214844 163.714844 C 170.09375 163.714844 167.691406 163.378906 167.882812 169.019531 C 167.882812 169.019531 163.542969 172.144531 165.761719 176.175781 C 165.761719 176.175781 167.21875 178.792969 170.214844 182.441406 Z M 180.96875 161.367188 L 188.570312 159.441406 L 195.929688 161.367188 L 195.929688 179.195312 L 188.570312 177.285156 L 180.96875 179.195312 Z M 188.5625 140.253906 L 105.144531 162.332031 L 108.300781 174.316406 L 188.5625 153.53125 L 270.035156 174.316406 L 270.035156 162.15625 Z M 188.5625 140.253906 " fill-opacity="1" fill-rule="evenodd"/></g></g><g clip-path="url(#90bba3545c)"><g clip-path="url(#ffe7aa0042)"><g clip-path="url(#2be6549ce9)"><path fill="#1b392c" d="M 188.570312 106.699219 L 107.777344 106.699219 L 107.777344 270.507812 L 188.570312 270.507812 Z M 188.570312 106.699219 " fill-opacity="1" fill-rule="evenodd"/></g></g></g></svg>