<svg xmlns="http://www.w3.org/2000/svg" xmlns:xlink="http://www.w3.org/1999/xlink" width="500" zoomAndPan="magnify" viewBox="0 0 375 374.999991" height="500" preserveAspectRatio="xMidYMid meet" version="1.0"><defs><clipPath id="06b92447f3"><path d="M 160 22.164062 L 183 22.164062 L 183 46 L 160 46 Z M 160 22.164062 " clip-rule="nonzero"/></clipPath><clipPath id="1ef5621b02"><path d="M 328 226 L 351.59375 226 L 351.59375 249 L 328 249 Z M 328 226 " clip-rule="nonzero"/></clipPath></defs><path fill="#ffffff" d="M 98.484375 79.023438 C 103.445312 75.972656 108.597656 73.300781 113.75 71.011719 C 118.902344 68.722656 124.246094 66.621094 129.585938 65.097656 C 131.6875 64.332031 133.785156 65.476562 134.359375 67.578125 C 134.929688 68.914062 134.546875 70.4375 133.59375 71.394531 C 114.703125 93.335938 103.445312 120.621094 100.964844 148.859375 C 98.675781 176.527344 104.59375 205.148438 119.855469 230.90625 C 136.265625 258.382812 160.6875 278.035156 188.355469 288.722656 C 216.785156 299.597656 248.460938 300.933594 278.417969 291.773438 L 279.371094 295.398438 L 278.417969 291.773438 C 280.324219 291.011719 282.421875 292.15625 283.1875 294.253906 C 283.570312 295.589844 283.1875 297.117188 282.234375 298.070312 C 277.082031 303.796875 271.738281 309.136719 265.824219 314.289062 C 259.910156 319.058594 253.421875 323.640625 246.550781 327.835938 C 212.207031 348.253906 172.902344 352.832031 137.027344 343.675781 C 100.964844 334.515625 68.53125 311.808594 48.113281 277.464844 C 27.695312 243.117188 23.117188 203.621094 32.277344 167.75 C 41.242188 131.878906 64.140625 99.441406 98.484375 79.023438 Z M 116.804688 78.070312 C 111.84375 80.171875 107.074219 82.652344 102.300781 85.511719 C 69.863281 104.785156 48.304688 135.503906 39.527344 169.660156 C 30.941406 203.621094 35.328125 241.019531 54.601562 273.457031 C 74.0625 306.085938 104.78125 327.644531 138.746094 336.234375 C 172.902344 345.011719 210.109375 340.621094 242.734375 321.160156 C 249.222656 317.34375 255.136719 313.144531 260.863281 308.375 C 263.152344 306.46875 265.441406 304.367188 267.539062 302.269531 C 239.875 308.183594 211.445312 305.703125 185.683594 295.78125 C 156.492188 284.523438 130.542969 263.726562 113.367188 234.722656 C 97.148438 207.628906 90.855469 177.480469 93.335938 148.289062 C 95.625 122.71875 104.59375 97.914062 119.664062 76.734375 C 118.710938 77.117188 117.757812 77.5 116.804688 78.070312 Z M 116.804688 78.070312 " fill-opacity="1" fill-rule="nonzero"/><path fill="#ffffff" d="M 175.953125 65.667969 L 190.835938 88.375 L 217.550781 80.933594 C 219.457031 80.359375 221.554688 81.695312 222.128906 83.605469 C 222.511719 84.941406 222.128906 86.46875 221.175781 87.421875 L 204.191406 108.601562 L 219.457031 131.496094 C 220.601562 133.40625 220.21875 135.695312 218.503906 136.839844 C 217.359375 137.601562 215.832031 137.601562 214.6875 137.222656 L 189.121094 127.492188 L 171.945312 149.050781 C 170.609375 150.769531 168.320312 150.960938 166.605469 149.816406 C 165.648438 148.859375 165.078125 147.523438 165.269531 146.1875 L 166.414062 119.09375 L 140.65625 109.363281 L 141.988281 105.738281 L 140.65625 109.363281 C 138.746094 108.601562 137.601562 106.5 138.363281 104.402344 C 138.9375 103.257812 140.082031 102.304688 141.226562 102.113281 L 167.558594 94.863281 L 168.703125 67.386719 L 172.519531 67.386719 L 168.703125 67.195312 C 168.894531 65.097656 170.609375 63.570312 172.710938 63.570312 C 174.046875 63.761719 175.382812 64.523438 175.953125 65.667969 Z M 189.308594 92.761719 L 186.066406 94.863281 L 175.761719 79.40625 L 175 97.535156 C 175.191406 99.441406 174.046875 100.96875 172.328125 101.539062 L 171.183594 97.722656 L 172.328125 101.539062 L 154.390625 106.3125 L 171.375 112.796875 C 173.089844 113.179688 174.234375 114.707031 174.234375 116.613281 L 173.28125 135.121094 L 184.730469 120.8125 C 185.683594 119.476562 187.59375 118.714844 189.308594 119.476562 L 206.671875 125.964844 L 196.5625 110.699219 C 195.414062 109.363281 195.414062 107.457031 196.5625 105.929688 L 208.199219 91.429688 L 190.453125 96.390625 C 188.929688 96.960938 187.019531 96.390625 186.066406 94.863281 Z M 189.308594 92.761719 " fill-opacity="1" fill-rule="nonzero"/><path fill="#ffffff" d="M 170.992188 188.167969 L 177.480469 198.28125 L 189.5 194.84375 C 191.601562 194.273438 193.699219 195.417969 194.269531 197.515625 C 194.652344 198.851562 194.269531 200.1875 193.316406 201.140625 L 185.683594 210.683594 L 192.554688 220.984375 C 193.890625 222.703125 193.316406 224.992188 191.601562 226.328125 C 190.453125 226.902344 188.929688 227.089844 187.785156 226.519531 L 176.527344 222.320312 L 168.703125 232.050781 L 168.894531 232.050781 C 167.558594 233.578125 165.078125 233.960938 163.359375 232.625 C 162.40625 231.671875 161.832031 230.335938 162.023438 229.191406 L 162.597656 216.980469 L 150.957031 212.78125 L 152.292969 209.15625 L 150.957031 212.78125 C 149.050781 212.019531 147.90625 209.726562 148.667969 207.820312 C 149.242188 206.484375 150.386719 205.53125 151.53125 205.339844 L 163.167969 202.09375 L 163.742188 189.882812 L 167.558594 189.882812 L 163.742188 189.691406 C 163.933594 187.59375 165.648438 186.066406 167.75 186.066406 C 169.085938 186.257812 170.230469 187.023438 170.992188 188.167969 Z M 175.953125 202.667969 L 172.710938 204.765625 L 170.800781 201.90625 L 170.800781 204.957031 C 170.800781 206.675781 169.65625 208.390625 167.941406 208.773438 L 166.984375 205.148438 L 167.941406 208.773438 L 164.695312 209.726562 L 167.558594 210.683594 C 169.273438 211.253906 170.421875 212.78125 170.421875 214.6875 L 170.230469 214.6875 L 170.230469 217.933594 L 172.136719 215.453125 C 173.089844 214.117188 175 213.542969 176.527344 214.117188 L 179.769531 215.261719 L 178.050781 212.78125 C 176.90625 211.445312 176.90625 209.347656 178.050781 208.011719 L 180.152344 205.339844 L 177.289062 206.292969 C 175.570312 206.867188 173.664062 206.292969 172.710938 204.765625 Z M 175.953125 202.667969 " fill-opacity="1" fill-rule="nonzero"/><path fill="#ffffff" d="M 252.65625 199.234375 L 263.34375 215.644531 L 282.613281 210.300781 C 284.714844 209.726562 286.8125 210.871094 287.382812 212.78125 C 287.765625 214.308594 287.382812 215.644531 286.429688 216.597656 L 274.21875 231.863281 L 285.285156 248.460938 C 286.429688 250.179688 285.859375 252.660156 284.140625 253.804688 C 282.996094 254.566406 281.660156 254.566406 280.515625 253.996094 L 262.007812 247.125 L 249.605469 262.773438 C 248.269531 264.488281 245.789062 264.679688 244.261719 263.34375 C 243.117188 262.582031 242.734375 261.246094 242.734375 259.910156 L 243.691406 240.257812 L 224.992188 233.386719 L 226.328125 229.761719 L 224.992188 233.386719 C 223.082031 232.625 221.9375 230.335938 222.699219 228.425781 C 223.273438 227.089844 224.417969 226.136719 225.5625 225.945312 L 244.644531 220.792969 L 245.40625 200.761719 L 249.222656 200.949219 L 245.40625 200.761719 C 245.597656 198.660156 247.316406 197.132812 249.414062 197.132812 C 250.75 197.132812 251.894531 198.089844 252.65625 199.234375 Z M 261.816406 220.03125 L 258.574219 222.128906 L 252.46875 212.972656 L 252.085938 223.65625 C 252.085938 225.375 250.941406 226.902344 249.222656 227.472656 L 248.269531 223.65625 L 249.222656 227.472656 L 238.730469 230.335938 L 248.652344 233.960938 C 250.367188 234.53125 251.511719 236.058594 251.511719 237.777344 L 250.941406 248.84375 L 257.617188 240.449219 C 258.574219 238.921875 260.480469 238.347656 262.007812 239.113281 L 272.3125 242.929688 L 266.394531 233.960938 C 265.441406 232.625 265.441406 230.714844 266.394531 229.191406 L 266.585938 229.382812 L 273.265625 220.792969 L 263.152344 223.65625 C 261.433594 224.230469 259.527344 223.65625 258.574219 222.128906 Z M 261.816406 220.03125 " fill-opacity="1" fill-rule="nonzero"/><path fill="#ffffff" d="M 246.359375 144.089844 C 249.414062 143.328125 252.46875 143.898438 254.949219 145.234375 C 257.429688 146.570312 259.527344 149.050781 260.289062 152.105469 C 261.054688 154.964844 260.671875 158.019531 259.144531 160.5 C 257.808594 162.980469 255.328125 165.078125 252.46875 165.84375 C 249.414062 166.605469 246.359375 166.222656 243.878906 164.886719 C 241.398438 163.363281 239.492188 161.070312 238.539062 158.019531 C 237.773438 154.964844 238.15625 151.914062 239.683594 149.433594 C 241.019531 146.953125 243.5 145.042969 246.359375 144.089844 Z M 251.132812 151.914062 C 250.367188 151.339844 249.414062 151.148438 248.460938 151.53125 C 247.507812 151.722656 246.742188 152.484375 246.171875 153.25 C 245.789062 154.011719 245.597656 154.964844 245.980469 155.921875 C 246.171875 156.875 246.742188 157.636719 247.695312 158.210938 C 248.460938 158.589844 249.414062 158.78125 250.367188 158.589844 C 251.320312 158.210938 252.085938 157.636719 252.65625 156.875 C 253.039062 155.921875 253.230469 154.964844 252.847656 154.011719 C 252.65625 153.058594 252.085938 152.296875 251.132812 151.914062 Z M 251.132812 151.914062 " fill-opacity="1" fill-rule="nonzero"/><g clip-path="url(#06b92447f3)"><path fill="#ffffff" d="M 168.511719 22.929688 C 171.375 22.164062 174.425781 22.546875 176.90625 24.074219 C 179.578125 25.410156 181.488281 27.890625 182.25 30.75 C 183.203125 33.804688 182.632812 36.855469 181.296875 39.335938 C 179.769531 41.816406 177.480469 43.917969 174.425781 44.679688 C 171.375 45.445312 168.320312 45.0625 165.839844 43.535156 C 163.359375 42.199219 161.453125 39.71875 160.6875 36.855469 C 159.734375 33.804688 160.308594 30.75 161.644531 28.269531 C 163.167969 25.789062 165.460938 23.882812 168.511719 22.929688 Z M 173.28125 30.558594 C 172.519531 30.179688 171.375 29.988281 170.421875 30.371094 C 169.464844 30.558594 168.703125 31.132812 168.320312 32.085938 C 167.75 32.851562 167.75 33.804688 167.941406 34.757812 C 168.128906 35.710938 168.894531 36.476562 169.65625 37.046875 C 170.421875 37.429688 171.375 37.621094 172.328125 37.238281 C 173.472656 37.046875 174.234375 36.476562 174.617188 35.519531 C 175 34.757812 175.191406 33.804688 175 32.851562 C 174.617188 31.894531 174.046875 31.132812 173.28125 30.558594 Z M 173.28125 30.558594 " fill-opacity="1" fill-rule="nonzero"/></g><path fill="#ffffff" d="M 256.664062 53.648438 C 259.527344 52.886719 262.390625 53.457031 264.871094 54.792969 C 267.351562 56.128906 269.257812 58.609375 270.210938 61.472656 C 270.976562 64.523438 270.402344 67.578125 269.066406 70.058594 C 267.730469 72.539062 265.25 74.445312 262.199219 75.398438 C 262.199219 75.398438 262.007812 75.398438 262.007812 75.398438 C 258.953125 76.164062 256.09375 75.589844 253.800781 74.253906 C 251.320312 72.917969 249.222656 70.4375 248.460938 67.578125 C 248.460938 67.386719 248.460938 67.195312 248.269531 67.195312 C 247.695312 64.332031 248.078125 61.472656 249.414062 58.992188 C 250.941406 56.511719 253.230469 54.601562 256.28125 53.648438 C 256.472656 53.648438 256.472656 53.648438 256.664062 53.648438 Z M 261.054688 61.28125 C 260.289062 60.898438 259.335938 60.707031 258.574219 60.898438 C 258.382812 61.089844 258.191406 61.089844 258.191406 61.089844 C 257.238281 61.472656 256.472656 62.042969 256.09375 62.808594 C 255.710938 63.570312 255.519531 64.332031 255.710938 65.289062 C 255.710938 65.476562 255.902344 65.476562 255.902344 65.667969 C 256.09375 66.621094 256.664062 67.195312 257.429688 67.769531 C 258.191406 68.148438 259.144531 68.339844 260.097656 68.148438 C 260.097656 67.957031 260.289062 67.957031 260.480469 67.957031 C 261.242188 67.769531 262.007812 67.003906 262.390625 66.242188 C 262.960938 65.476562 262.960938 64.523438 262.769531 63.570312 C 262.578125 62.617188 261.816406 61.851562 261.054688 61.28125 Z M 261.054688 61.28125 " fill-opacity="1" fill-rule="nonzero"/><g clip-path="url(#1ef5621b02)"><path fill="#ffffff" d="M 337.566406 226.710938 C 340.429688 225.945312 343.289062 226.519531 345.769531 227.855469 C 348.25 229.191406 350.160156 231.671875 350.921875 234.53125 C 351.878906 237.585938 351.304688 240.636719 349.96875 243.117188 C 348.632812 245.597656 346.34375 247.507812 343.480469 248.269531 C 343.289062 248.460938 343.101562 248.460938 342.71875 248.460938 C 339.855469 249.226562 336.996094 248.652344 334.515625 247.316406 C 332.222656 245.980469 330.316406 243.691406 329.363281 241.019531 C 329.363281 240.636719 329.171875 240.449219 329.171875 240.257812 C 328.597656 237.394531 328.980469 234.53125 330.316406 232.050781 C 331.84375 229.570312 334.132812 227.664062 337.183594 226.710938 C 337.183594 226.710938 337.375 226.710938 337.566406 226.710938 Z M 341.957031 234.34375 C 341.191406 233.960938 340.238281 233.769531 339.285156 233.960938 C 339.285156 234.152344 339.09375 234.152344 338.902344 234.152344 C 338.140625 234.53125 337.375 235.105469 336.996094 235.867188 C 336.613281 236.632812 336.421875 237.394531 336.613281 238.347656 C 336.613281 238.539062 336.613281 238.539062 336.613281 238.730469 C 336.996094 239.683594 337.566406 240.257812 338.328125 240.828125 C 339.09375 241.210938 340.046875 241.402344 341 241.210938 L 341.191406 241.019531 L 342.144531 244.835938 L 341.191406 241.019531 C 342.144531 240.828125 342.910156 240.257812 343.289062 239.304688 C 343.671875 238.539062 343.863281 237.585938 343.671875 236.632812 C 343.289062 235.675781 342.71875 234.914062 341.957031 234.34375 Z M 341.957031 234.34375 " fill-opacity="1" fill-rule="nonzero"/></g></svg>