<svg xmlns="http://www.w3.org/2000/svg" xmlns:xlink="http://www.w3.org/1999/xlink" width="500" zoomAndPan="magnify" viewBox="0 0 375 374.999991" height="500" preserveAspectRatio="xMidYMid meet" version="1.0"><path fill="#a1a1a1" d="M 187.5 0 L 0 52.082031 L 0 354.167969 L 187.5 375 L 375 354.167969 L 375 52.082031 Z M 187.5 0 " fill-opacity="1" fill-rule="nonzero"/><path fill="#a1a1a1" d="M 187.5 375 L 375 354.167969 L 375 52.082031 L 187.5 0 Z M 187.5 375 " fill-opacity="1" fill-rule="nonzero"/><path fill="#ffffff" d="M 233.894531 151.113281 L 233.894531 186.605469 L 277.949219 192.980469 L 277.949219 158.542969 Z M 306.8125 163.417969 L 306.8125 197.15625 L 341.175781 202.136719 L 341.175781 169.207031 Z M 187.5 143.292969 L 187.5 179.886719 L 205.03125 182.425781 L 205.03125 146.25 Z M 375 174.917969 L 369.386719 173.96875 L 369.386719 206.21875 L 375 207.03125 Z M 375 174.917969 " fill-opacity="1" fill-rule="nonzero"/><path fill="#ffffff" d="M 0 174.917969 L 0 207.03125 L 5.613281 206.21875 L 5.613281 173.96875 Z M 169.96875 146.25 L 169.96875 182.425781 L 187.5 179.886719 L 187.5 143.292969 Z M 33.824219 169.207031 L 33.824219 202.136719 L 68.1875 197.15625 L 68.1875 163.417969 Z M 97.050781 158.542969 L 97.050781 192.980469 L 141.105469 186.605469 L 141.105469 151.113281 Z M 97.050781 158.542969 " fill-opacity="1" fill-rule="nonzero"/><path fill="#ffffff" d="M 222.800781 157.613281 L 222.800781 157.175781 C 222.800781 152.792969 221.3125 149.230469 219.46875 149.230469 C 217.625 149.230469 216.136719 152.792969 216.136719 157.175781 L 216.136719 157.613281 C 213.96875 159.875 212.4375 164.082031 212.4375 169.105469 C 212.4375 174.449219 214.125 178.988281 216.53125 181.105469 C 217.199219 183.136719 218.230469 184.542969 219.46875 184.542969 C 220.707031 184.542969 221.738281 183.136719 222.40625 181.105469 C 224.8125 178.988281 226.5 174.449219 226.5 169.105469 C 226.488281 164.082031 224.96875 159.875 222.800781 157.613281 Z M 295.707031 168.75 L 295.707031 168.3125 C 295.707031 163.925781 294.21875 160.363281 292.375 160.363281 C 290.53125 160.363281 289.042969 163.925781 289.042969 168.3125 L 289.042969 168.75 C 286.875 171.011719 285.34375 175.21875 285.34375 180.238281 C 285.34375 185.582031 287.03125 190.125 289.4375 192.238281 C 290.105469 194.269531 291.136719 195.675781 292.375 195.675781 C 293.613281 195.675781 294.644531 194.269531 295.3125 192.238281 C 297.71875 190.125 299.40625 185.582031 299.40625 180.238281 C 299.40625 175.230469 297.875 171.019531 295.707031 168.75 Z M 358.386719 179.480469 L 358.386719 179.074219 C 358.386719 174.980469 356.988281 171.65625 355.269531 171.65625 C 353.550781 171.65625 352.15625 174.980469 352.15625 179.074219 L 352.15625 179.480469 C 350.136719 181.59375 348.707031 185.519531 348.707031 190.207031 C 348.707031 195.199219 350.28125 199.4375 352.53125 201.417969 C 353.144531 203.3125 354.113281 204.625 355.269531 204.625 C 356.425781 204.625 357.386719 203.3125 358.011719 201.417969 C 360.25 199.449219 361.832031 195.199219 361.832031 190.207031 C 361.832031 185.519531 360.417969 181.59375 358.386719 179.480469 Z M 358.386719 179.480469 " fill-opacity="1" fill-rule="nonzero"/><path fill="#ffffff" d="M 152.199219 157.613281 L 152.199219 157.175781 C 152.199219 152.792969 153.6875 149.230469 155.53125 149.230469 C 157.375 149.230469 158.863281 152.792969 158.863281 157.175781 L 158.863281 157.613281 C 161.03125 159.875 162.5625 164.082031 162.5625 169.105469 C 162.5625 174.449219 160.875 178.988281 158.46875 181.105469 C 157.800781 183.136719 156.769531 184.542969 155.53125 184.542969 C 154.292969 184.542969 153.261719 183.136719 152.59375 181.105469 C 150.1875 178.988281 148.5 174.449219 148.5 169.105469 C 148.511719 164.082031 150.03125 159.875 152.199219 157.613281 Z M 79.292969 168.75 L 79.292969 168.3125 C 79.292969 163.925781 80.78125 160.363281 82.625 160.363281 C 84.46875 160.363281 85.957031 163.925781 85.957031 168.3125 L 85.957031 168.75 C 88.125 171.011719 89.65625 175.21875 89.65625 180.238281 C 89.65625 185.582031 87.96875 190.125 85.5625 192.238281 C 84.894531 194.269531 83.863281 195.675781 82.625 195.675781 C 81.386719 195.675781 80.355469 194.269531 79.6875 192.238281 C 77.28125 190.125 75.59375 185.582031 75.59375 180.238281 C 75.59375 175.230469 77.125 171.019531 79.292969 168.75 Z M 16.613281 179.480469 L 16.613281 179.074219 C 16.613281 174.980469 18.011719 171.65625 19.730469 171.65625 C 21.449219 171.65625 22.84375 174.980469 22.84375 179.074219 L 22.84375 179.480469 C 24.863281 181.59375 26.292969 185.519531 26.292969 190.207031 C 26.292969 195.199219 24.71875 199.4375 22.46875 201.417969 C 21.855469 203.3125 20.886719 204.625 19.730469 204.625 C 18.574219 204.625 17.605469 203.300781 16.980469 201.417969 C 14.738281 199.449219 13.15625 195.199219 13.15625 190.207031 C 13.167969 185.519531 14.582031 181.59375 16.613281 179.480469 Z M 0 116.105469 L 0 152.5625 L 187.5 118.519531 L 187.5 79.3125 Z M 0 116.105469 " fill-opacity="1" fill-rule="nonzero"/><path fill="#ffffff" d="M 187.5 79.3125 L 187.5 118.519531 L 375 152.5625 L 375 116.105469 Z M 187.5 79.3125 " fill-opacity="1" fill-rule="nonzero"/></svg>