<svg xmlns="http://www.w3.org/2000/svg" xmlns:xlink="http://www.w3.org/1999/xlink" width="500" zoomAndPan="magnify" viewBox="0 0 375 374.999991" height="500" preserveAspectRatio="xMidYMid meet" version="1.0"><defs><clipPath id="913c64a4f2"><path d="M 46.550781 46.679688 L 92.804688 46.679688 L 92.804688 92.933594 L 46.550781 92.933594 Z M 46.550781 46.679688 " clip-rule="nonzero"/></clipPath><clipPath id="6153ca30ce"><path d="M 69.679688 46.679688 C 56.90625 46.679688 46.550781 57.03125 46.550781 69.804688 C 46.550781 82.578125 56.90625 92.933594 69.679688 92.933594 C 82.453125 92.933594 92.804688 82.578125 92.804688 69.804688 C 92.804688 57.03125 82.453125 46.679688 69.679688 46.679688 Z M 69.679688 46.679688 " clip-rule="nonzero"/></clipPath><clipPath id="4b66e24125"><path d="M 46.550781 126.046875 L 92.804688 126.046875 L 92.804688 172.300781 L 46.550781 172.300781 Z M 46.550781 126.046875 " clip-rule="nonzero"/></clipPath><clipPath id="5dd39b7dab"><path d="M 69.679688 126.046875 C 56.90625 126.046875 46.550781 136.402344 46.550781 149.175781 C 46.550781 161.949219 56.90625 172.300781 69.679688 172.300781 C 82.453125 172.300781 92.804688 161.949219 92.804688 149.175781 C 92.804688 136.402344 82.453125 126.046875 69.679688 126.046875 Z M 69.679688 126.046875 " clip-rule="nonzero"/></clipPath><clipPath id="4932684f76"><path d="M 46.550781 201.796875 L 92.804688 201.796875 L 92.804688 248.050781 L 46.550781 248.050781 Z M 46.550781 201.796875 " clip-rule="nonzero"/></clipPath><clipPath id="d408249e24"><path d="M 69.679688 201.796875 C 56.90625 201.796875 46.550781 212.152344 46.550781 224.925781 C 46.550781 237.699219 56.90625 248.050781 69.679688 248.050781 C 82.453125 248.050781 92.804688 237.699219 92.804688 224.925781 C 92.804688 212.152344 82.453125 201.796875 69.679688 201.796875 Z M 69.679688 201.796875 " clip-rule="nonzero"/></clipPath><clipPath id="4fcad6f83d"><path d="M 46.550781 280.164062 L 92.804688 280.164062 L 92.804688 326.417969 L 46.550781 326.417969 Z M 46.550781 280.164062 " clip-rule="nonzero"/></clipPath><clipPath id="c1516137f2"><path d="M 69.679688 280.164062 C 56.90625 280.164062 46.550781 290.519531 46.550781 303.289062 C 46.550781 316.0625 56.90625 326.417969 69.679688 326.417969 C 82.453125 326.417969 92.804688 316.0625 92.804688 303.289062 C 92.804688 290.519531 82.453125 280.164062 69.679688 280.164062 Z M 69.679688 280.164062 " clip-rule="nonzero"/></clipPath><clipPath id="1a8eb57c4f"><path d="M 65.921875 299.535156 L 73.4375 299.535156 L 73.4375 307.046875 L 65.921875 307.046875 Z M 65.921875 299.535156 " clip-rule="nonzero"/></clipPath><clipPath id="f2b1c817f2"><path d="M 69.679688 299.535156 C 67.605469 299.535156 65.921875 301.214844 65.921875 303.289062 C 65.921875 305.367188 67.605469 307.046875 69.679688 307.046875 C 71.753906 307.046875 73.4375 305.367188 73.4375 303.289062 C 73.4375 301.214844 71.753906 299.535156 69.679688 299.535156 Z M 69.679688 299.535156 " clip-rule="nonzero"/></clipPath><clipPath id="2ffe9274fd"><path d="M 65.921875 221.167969 L 73.4375 221.167969 L 73.4375 228.683594 L 65.921875 228.683594 Z M 65.921875 221.167969 " clip-rule="nonzero"/></clipPath><clipPath id="1bd3aa509a"><path d="M 69.679688 221.167969 C 67.605469 221.167969 65.921875 222.851562 65.921875 224.925781 C 65.921875 227 67.605469 228.683594 69.679688 228.683594 C 71.753906 228.683594 73.4375 227 73.4375 224.925781 C 73.4375 222.851562 71.753906 221.167969 69.679688 221.167969 Z M 69.679688 221.167969 " clip-rule="nonzero"/></clipPath><clipPath id="0c56f7b106"><path d="M 65.921875 145.417969 L 73.4375 145.417969 L 73.4375 152.933594 L 65.921875 152.933594 Z M 65.921875 145.417969 " clip-rule="nonzero"/></clipPath><clipPath id="0cfeb6a9e4"><path d="M 69.679688 145.417969 C 67.605469 145.417969 65.921875 147.101562 65.921875 149.175781 C 65.921875 151.25 67.605469 152.933594 69.679688 152.933594 C 71.753906 152.933594 73.4375 151.25 73.4375 149.175781 C 73.4375 147.101562 71.753906 145.417969 69.679688 145.417969 Z M 69.679688 145.417969 " clip-rule="nonzero"/></clipPath><clipPath id="94a5316cd1"><path d="M 65.921875 66.046875 L 73.4375 66.046875 L 73.4375 73.5625 L 65.921875 73.5625 Z M 65.921875 66.046875 " clip-rule="nonzero"/></clipPath><clipPath id="993b4608db"><path d="M 69.679688 66.046875 C 67.605469 66.046875 65.921875 67.730469 65.921875 69.804688 C 65.921875 71.878906 67.605469 73.5625 69.679688 73.5625 C 71.753906 73.5625 73.4375 71.878906 73.4375 69.804688 C 73.4375 67.730469 71.753906 66.046875 69.679688 66.046875 Z M 69.679688 66.046875 " clip-rule="nonzero"/></clipPath></defs><path stroke-linecap="butt" transform="matrix(0.75, 0, 0, 0.75, 116.136354, 62.305191)" fill="none" stroke-linejoin="miter" d="M 0.000485702 9.999329 L 277.984879 9.999329 " stroke="#b5b5b5" stroke-width="20" stroke-opacity="1" stroke-miterlimit="4"/><path stroke-linecap="butt" transform="matrix(0.75, 0, 0, 0.75, 116.136354, 141.675283)" fill="none" stroke-linejoin="miter" d="M 0.000485702 10.000664 L 277.984879 10.000664 " stroke="#b5b5b5" stroke-width="20" stroke-opacity="1" stroke-miterlimit="4"/><path stroke-linecap="butt" transform="matrix(0.75, 0, 0, 0.75, 116.136354, 217.425279)" fill="none" stroke-linejoin="miter" d="M 0.000485702 10.000671 L 277.984879 10.000671 " stroke="#b5b5b5" stroke-width="20" stroke-opacity="1" stroke-miterlimit="4"/><path stroke-linecap="butt" transform="matrix(0.75, 0, 0, 0.75, 116.136354, 295.790957)" fill="none" stroke-linejoin="miter" d="M 0.000485702 9.997475 L 277.984879 9.997475 " stroke="#b5b5b5" stroke-width="20" stroke-opacity="1" stroke-miterlimit="4"/><g clip-path="url(#913c64a4f2)"><g clip-path="url(#6153ca30ce)"><path stroke-linecap="butt" transform="matrix(0.75, 0, 0, 0.75, 46.552451, 46.67818)" fill="none" stroke-linejoin="miter" d="M 30.836315 0.00200982 C 13.805065 0.00200982 -0.00222639 13.804093 -0.00222639 30.835343 C -0.00222639 47.866593 13.805065 61.673885 30.836315 61.673885 C 47.867565 61.673885 61.669649 47.866593 61.669649 30.835343 C 61.669649 13.804093 47.867565 0.00200982 30.836315 0.00200982 Z M 30.836315 0.00200982 " stroke="#b5b5b5" stroke-width="8" stroke-opacity="1" stroke-miterlimit="4"/></g></g><g clip-path="url(#4b66e24125)"><g clip-path="url(#5dd39b7dab)"><path stroke-linecap="butt" transform="matrix(0.75, 0, 0, 0.75, 46.552451, 126.048215)" fill="none" stroke-linejoin="miter" d="M 30.836315 -0.00178656 C 13.805065 -0.00178656 -0.00222639 13.805505 -0.00222639 30.836755 C -0.00222639 47.868005 13.805065 61.670089 30.836315 61.670089 C 47.867565 61.670089 61.669649 47.868005 61.669649 30.836755 C 61.669649 13.805505 47.867565 -0.00178656 30.836315 -0.00178656 Z M 30.836315 -0.00178656 " stroke="#b5b5b5" stroke-width="8" stroke-opacity="1" stroke-miterlimit="4"/></g></g><g clip-path="url(#4932684f76)"><g clip-path="url(#d408249e24)"><path stroke-linecap="butt" transform="matrix(0.75, 0, 0, 0.75, 46.552451, 201.79821)" fill="none" stroke-linejoin="miter" d="M 30.836315 -0.00177993 C 13.805065 -0.00177993 -0.00222639 13.805512 -0.00222639 30.836762 C -0.00222639 47.868012 13.805065 61.670095 30.836315 61.670095 C 47.867565 61.670095 61.669649 47.868012 61.669649 30.836762 C 61.669649 13.805512 47.867565 -0.00177993 30.836315 -0.00177993 Z M 30.836315 -0.00177993 " stroke="#b5b5b5" stroke-width="8" stroke-opacity="1" stroke-miterlimit="4"/></g></g><g clip-path="url(#4fcad6f83d)"><g clip-path="url(#c1516137f2)"><path stroke-linecap="butt" transform="matrix(0.75, 0, 0, 0.75, 46.552451, 280.163888)" fill="none" stroke-linejoin="miter" d="M 30.836315 0.000232663 C 13.805065 0.000232663 -0.00222639 13.807524 -0.00222639 30.833566 C -0.00222639 47.864816 13.805065 61.672108 30.836315 61.672108 C 47.867565 61.672108 61.669649 47.864816 61.669649 30.833566 C 61.669649 13.807524 47.867565 0.000232663 30.836315 0.000232663 Z M 30.836315 0.000232663 " stroke="#b5b5b5" stroke-width="8" stroke-opacity="1" stroke-miterlimit="4"/></g></g><g clip-path="url(#1a8eb57c4f)"><g clip-path="url(#f2b1c817f2)"><path fill="#b5b5b5" d="M 65.921875 299.535156 L 73.4375 299.535156 L 73.4375 307.046875 L 65.921875 307.046875 Z M 65.921875 299.535156 " fill-opacity="1" fill-rule="nonzero"/></g></g><g clip-path="url(#2ffe9274fd)"><g clip-path="url(#1bd3aa509a)"><path fill="#b5b5b5" d="M 65.921875 221.167969 L 73.4375 221.167969 L 73.4375 228.683594 L 65.921875 228.683594 Z M 65.921875 221.167969 " fill-opacity="1" fill-rule="nonzero"/></g></g><g clip-path="url(#0c56f7b106)"><g clip-path="url(#0cfeb6a9e4)"><path fill="#b5b5b5" d="M 65.921875 145.417969 L 73.4375 145.417969 L 73.4375 152.933594 L 65.921875 152.933594 Z M 65.921875 145.417969 " fill-opacity="1" fill-rule="nonzero"/></g></g><g clip-path="url(#94a5316cd1)"><g clip-path="url(#993b4608db)"><path fill="#b5b5b5" d="M 65.921875 66.046875 L 73.4375 66.046875 L 73.4375 73.5625 L 65.921875 73.5625 Z M 65.921875 66.046875 " fill-opacity="1" fill-rule="nonzero"/></g></g></svg>