<svg xmlns="http://www.w3.org/2000/svg" xmlns:xlink="http://www.w3.org/1999/xlink" width="500" zoomAndPan="magnify" viewBox="0 0 375 374.999991" height="500" preserveAspectRatio="xMidYMid meet" version="1.0"><defs><clipPath id="14aab05380"><path d="M 46.550781 46.679688 L 92.804688 46.679688 L 92.804688 92.933594 L 46.550781 92.933594 Z M 46.550781 46.679688 " clip-rule="nonzero"/></clipPath><clipPath id="a4498fd573"><path d="M 69.679688 46.679688 C 56.90625 46.679688 46.550781 57.03125 46.550781 69.804688 C 46.550781 82.578125 56.90625 92.933594 69.679688 92.933594 C 82.453125 92.933594 92.804688 82.578125 92.804688 69.804688 C 92.804688 57.03125 82.453125 46.679688 69.679688 46.679688 Z M 69.679688 46.679688 " clip-rule="nonzero"/></clipPath><clipPath id="5b41bca1c2"><path d="M 46.550781 126.046875 L 92.804688 126.046875 L 92.804688 172.300781 L 46.550781 172.300781 Z M 46.550781 126.046875 " clip-rule="nonzero"/></clipPath><clipPath id="51ab165f1b"><path d="M 69.679688 126.046875 C 56.90625 126.046875 46.550781 136.402344 46.550781 149.175781 C 46.550781 161.949219 56.90625 172.300781 69.679688 172.300781 C 82.453125 172.300781 92.804688 161.949219 92.804688 149.175781 C 92.804688 136.402344 82.453125 126.046875 69.679688 126.046875 Z M 69.679688 126.046875 " clip-rule="nonzero"/></clipPath><clipPath id="fd859de82f"><path d="M 46.550781 201.796875 L 92.804688 201.796875 L 92.804688 248.050781 L 46.550781 248.050781 Z M 46.550781 201.796875 " clip-rule="nonzero"/></clipPath><clipPath id="3d55f5ae6f"><path d="M 69.679688 201.796875 C 56.90625 201.796875 46.550781 212.152344 46.550781 224.925781 C 46.550781 237.699219 56.90625 248.050781 69.679688 248.050781 C 82.453125 248.050781 92.804688 237.699219 92.804688 224.925781 C 92.804688 212.152344 82.453125 201.796875 69.679688 201.796875 Z M 69.679688 201.796875 " clip-rule="nonzero"/></clipPath><clipPath id="8a7ce576c9"><path d="M 46.550781 280.164062 L 92.804688 280.164062 L 92.804688 326.417969 L 46.550781 326.417969 Z M 46.550781 280.164062 " clip-rule="nonzero"/></clipPath><clipPath id="ae63aa8869"><path d="M 69.679688 280.164062 C 56.90625 280.164062 46.550781 290.519531 46.550781 303.289062 C 46.550781 316.0625 56.90625 326.417969 69.679688 326.417969 C 82.453125 326.417969 92.804688 316.0625 92.804688 303.289062 C 92.804688 290.519531 82.453125 280.164062 69.679688 280.164062 Z M 69.679688 280.164062 " clip-rule="nonzero"/></clipPath></defs><path stroke-linecap="butt" transform="matrix(0.75, 0, 0, 0.75, 116.136354, 62.305191)" fill="none" stroke-linejoin="miter" d="M 0.000485702 9.999329 L 277.984879 9.999329 " stroke="#1b392c" stroke-width="20" stroke-opacity="1" stroke-miterlimit="4"/><path stroke-linecap="butt" transform="matrix(0.75, 0, 0, 0.75, 116.136354, 141.675226)" fill="none" stroke-linejoin="miter" d="M 0.000485702 10.000741 L 277.984879 10.000741 " stroke="#1b392c" stroke-width="20" stroke-opacity="1" stroke-miterlimit="4"/><path stroke-linecap="butt" transform="matrix(0.75, 0, 0, 0.75, 116.136354, 217.425221)" fill="none" stroke-linejoin="miter" d="M 0.000485702 10.000748 L 277.984879 10.000748 " stroke="#1b392c" stroke-width="20" stroke-opacity="1" stroke-miterlimit="4"/><path stroke-linecap="butt" transform="matrix(0.75, 0, 0, 0.75, 116.136354, 295.790957)" fill="none" stroke-linejoin="miter" d="M 0.000485702 9.997475 L 277.984879 9.997475 " stroke="#1b392c" stroke-width="20" stroke-opacity="1" stroke-miterlimit="4"/><g clip-path="url(#14aab05380)"><g clip-path="url(#a4498fd573)"><path fill="#1b392c" d="M 46.550781 46.679688 L 92.804688 46.679688 L 92.804688 92.933594 L 46.550781 92.933594 Z M 46.550781 46.679688 " fill-opacity="1" fill-rule="nonzero"/><path stroke-linecap="butt" transform="matrix(0.75, 0, 0, 0.75, 46.552451, 46.678123)" fill="none" stroke-linejoin="miter" d="M 30.836315 0.00208662 C 13.805065 0.00208662 -0.00222639 13.80417 -0.00222639 30.83542 C -0.00222639 47.86667 13.805065 61.673962 30.836315 61.673962 C 47.867565 61.673962 61.669649 47.86667 61.669649 30.83542 C 61.669649 13.80417 47.867565 0.00208662 30.836315 0.00208662 Z M 30.836315 0.00208662 " stroke="#1b392c" stroke-width="8" stroke-opacity="1" stroke-miterlimit="4"/></g></g><g clip-path="url(#5b41bca1c2)"><g clip-path="url(#51ab165f1b)"><path fill="#1b392c" d="M 46.550781 126.046875 L 92.804688 126.046875 L 92.804688 172.300781 L 46.550781 172.300781 Z M 46.550781 126.046875 " fill-opacity="1" fill-rule="nonzero"/><path stroke-linecap="butt" transform="matrix(0.75, 0, 0, 0.75, 46.552451, 126.048273)" fill="none" stroke-linejoin="miter" d="M 30.836315 -0.00186336 C 13.805065 -0.00186336 -0.00222639 13.805428 -0.00222639 30.836678 C -0.00222639 47.867928 13.805065 61.670012 30.836315 61.670012 C 47.867565 61.670012 61.669649 47.867928 61.669649 30.836678 C 61.669649 13.805428 47.867565 -0.00186336 30.836315 -0.00186336 Z M 30.836315 -0.00186336 " stroke="#1b392c" stroke-width="8" stroke-opacity="1" stroke-miterlimit="4"/></g></g><g clip-path="url(#fd859de82f)"><g clip-path="url(#3d55f5ae6f)"><path fill="#1b392c" d="M 46.550781 201.796875 L 92.804688 201.796875 L 92.804688 248.050781 L 46.550781 248.050781 Z M 46.550781 201.796875 " fill-opacity="1" fill-rule="nonzero"/><path stroke-linecap="butt" transform="matrix(0.75, 0, 0, 0.75, 46.552451, 201.798268)" fill="none" stroke-linejoin="miter" d="M 30.836315 -0.00185673 C 13.805065 -0.00185673 -0.00222639 13.805435 -0.00222639 30.836685 C -0.00222639 47.867935 13.805065 61.670018 30.836315 61.670018 C 47.867565 61.670018 61.669649 47.867935 61.669649 30.836685 C 61.669649 13.805435 47.867565 -0.00185673 30.836315 -0.00185673 Z M 30.836315 -0.00185673 " stroke="#1b392c" stroke-width="8" stroke-opacity="1" stroke-miterlimit="4"/></g></g><g clip-path="url(#8a7ce576c9)"><g clip-path="url(#ae63aa8869)"><path fill="#1b392c" d="M 46.550781 280.164062 L 92.804688 280.164062 L 92.804688 326.417969 L 46.550781 326.417969 Z M 46.550781 280.164062 " fill-opacity="1" fill-rule="nonzero"/><path stroke-linecap="butt" transform="matrix(0.75, 0, 0, 0.75, 46.552451, 280.163888)" fill="none" stroke-linejoin="miter" d="M 30.836315 0.000232663 C 13.805065 0.000232663 -0.00222639 13.807524 -0.00222639 30.833566 C -0.00222639 47.864816 13.805065 61.672108 30.836315 61.672108 C 47.867565 61.672108 61.669649 47.864816 61.669649 30.833566 C 61.669649 13.807524 47.867565 0.000232663 30.836315 0.000232663 Z M 30.836315 0.000232663 " stroke="#1b392c" stroke-width="8" stroke-opacity="1" stroke-miterlimit="4"/></g></g></svg>