<svg xmlns="http://www.w3.org/2000/svg" xmlns:xlink="http://www.w3.org/1999/xlink" width="500" zoomAndPan="magnify" viewBox="0 0 375 374.999991" height="500" preserveAspectRatio="xMidYMid meet" version="1.0"><path fill="#a1a1a1" d="M 368.96875 232.4375 C 367.003906 231.417969 364.601562 231.78125 363 233.3125 C 328.652344 267.003906 267.8125 272.097656 222.332031 265.621094 C 196.277344 261.910156 169.789062 244.734375 153.269531 220.792969 C 139.222656 200.488281 125.035156 165.339844 136.75 112.871094 C 147.738281 63.820312 178.085938 30.273438 224.585938 15.71875 C 226.84375 14.992188 228.371094 12.808594 228.152344 10.40625 C 227.933594 8.003906 226.117188 6.113281 223.714844 5.820312 C 178.304688 0 137.40625 6.621094 102.039062 25.46875 C 72.78125 41.117188 47.75 64.695312 27.734375 95.550781 C 11.363281 120.875 2.484375 152.605469 2.121094 187.390625 C 1.753906 220.140625 9.179688 253.46875 23.078125 281.121094 C 50.730469 336.066406 106.332031 371.070312 171.828125 374.636719 C 176.191406 374.855469 180.414062 375 184.5625 375 C 244.890625 375 287.171875 350.984375 312.496094 330.097656 C 343.351562 304.699219 365.914062 269.332031 371.515625 237.824219 C 372.027344 235.640625 370.933594 233.457031 368.96875 232.4375 Z M 306.09375 322.238281 C 280.402344 343.417969 236.304688 367.941406 172.410156 364.519531 C 110.550781 361.171875 58.15625 328.28125 32.175781 276.609375 C 4.011719 220.503906 5.683594 148.3125 36.324219 101.082031 C 62.957031 60.039062 110.914062 14.046875 192.496094 14.046875 C 195.257812 14.046875 198.023438 14.117188 200.863281 14.191406 C 185.21875 21.6875 171.609375 31.730469 160.328125 44.171875 C 144.027344 62.074219 132.746094 84.417969 126.851562 110.6875 C 114.261719 166.722656 129.765625 204.636719 144.902344 226.617188 C 163.3125 253.25 191.695312 271.589844 220.949219 275.738281 C 249.183594 279.738281 277.273438 279.15625 302.382812 273.917969 C 324.214844 269.40625 342.699219 261.765625 357.617188 251.140625 C 350.046875 272.609375 333.820312 299.390625 306.09375 322.238281 Z M 306.09375 322.238281 " fill-opacity="1" fill-rule="nonzero"/></svg>