<svg xmlns="http://www.w3.org/2000/svg" xmlns:xlink="http://www.w3.org/1999/xlink" width="500" zoomAndPan="magnify" viewBox="0 0 375 374.999991" height="500" preserveAspectRatio="xMidYMid meet" version="1.0"><defs><clipPath id="069e26c166"><path d="M 52.671875 25.519531 L 322.308594 25.519531 L 322.308594 300.878906 L 52.671875 300.878906 Z M 52.671875 25.519531 " clip-rule="nonzero"/></clipPath><clipPath id="dfef0d29c2"><path d="M 156 317 L 219 317 L 219 349.519531 L 156 349.519531 Z M 156 317 " clip-rule="nonzero"/></clipPath><clipPath id="dbc98f1832"><path d="M 167.648438 24.816406 L 207.339844 24.816406 L 207.339844 64.507812 L 167.648438 64.507812 Z M 167.648438 24.816406 " clip-rule="nonzero"/></clipPath><clipPath id="12a4ad07b7"><path d="M 187.496094 24.816406 C 176.535156 24.816406 167.648438 33.699219 167.648438 44.660156 C 167.648438 55.621094 176.535156 64.507812 187.496094 64.507812 C 198.457031 64.507812 207.339844 55.621094 207.339844 44.660156 C 207.339844 33.699219 198.457031 24.816406 187.496094 24.816406 Z M 187.496094 24.816406 " clip-rule="nonzero"/></clipPath></defs><g clip-path="url(#069e26c166)"><path fill="#a1a1a1" d="M 187.648438 25.519531 C 179.546875 25.519531 172.890625 31.929688 172.890625 39.996094 L 172.890625 57.957031 C 129.949219 65.257812 96.671875 100.953125 96.671875 145.945312 L 96.671875 237.847656 C 96.40625 252.589844 89.730469 256.84375 73.332031 270.78125 C 63.523438 279.097656 53.054688 282.019531 52.679688 290.421875 C 52.46875 295.742188 55.671875 301.210938 69.683594 300.746094 C 77.195312 300.535156 298.066406 300.535156 305.578125 300.746094 C 319.558594 301.210938 322.527344 295.742188 322.296875 290.421875 C 321.921875 282.019531 311.472656 279.097656 301.644531 270.78125 C 285.660156 257.199219 278.449219 254.351562 278.589844 238.34375 L 278.589844 145.945312 C 278.589844 100.847656 245.136719 65.132812 202.125 57.957031 L 202.125 39.996094 C 202.125 31.929688 195.714844 25.519531 187.648438 25.519531 " fill-opacity="1" fill-rule="nonzero"/></g><g clip-path="url(#dfef0d29c2)"><path fill="#a1a1a1" d="M 156.886719 317.785156 L 156.886719 318.746094 C 156.886719 335.675781 170.699219 349.472656 187.648438 349.472656 C 204.542969 349.472656 218.09375 335.675781 218.09375 318.746094 L 218.09375 317.785156 L 156.886719 317.785156 " fill-opacity="1" fill-rule="nonzero"/></g><g clip-path="url(#dbc98f1832)"><g clip-path="url(#12a4ad07b7)"><path stroke-linecap="butt" transform="matrix(0.75, 0, 0, 0.75, 167.649428, 24.815389)" fill="none" stroke-linejoin="miter" d="M 26.462221 0.00135632 C 11.847638 0.00135632 -0.00132052 11.845106 -0.00132052 26.45969 C -0.00132052 41.074273 11.847638 52.923231 26.462221 52.923231 C 41.076805 52.923231 52.920555 41.074273 52.920555 26.45969 C 52.920555 11.845106 41.076805 0.00135632 26.462221 0.00135632 Z M 26.462221 0.00135632 " stroke="#ffffff" stroke-width="20" stroke-opacity="1" stroke-miterlimit="4"/></g></g></svg>