<svg xmlns="http://www.w3.org/2000/svg" xmlns:xlink="http://www.w3.org/1999/xlink" width="500" zoomAndPan="magnify" viewBox="0 0 375 374.999991" height="500" preserveAspectRatio="xMidYMid meet" version="1.0"><path fill="#a1a1a1" d="M 276.207031 155.066406 C 276.203125 155.101562 276.195312 155.140625 276.195312 155.175781 C 276.195312 155.175781 276.195312 155.175781 276.199219 155.175781 C 276.199219 155.234375 276.207031 155.289062 276.226562 155.339844 C 276.246094 155.40625 276.277344 155.464844 276.3125 155.519531 C 276.335938 155.554688 276.363281 155.589844 276.394531 155.617188 C 276.410156 155.636719 276.433594 155.65625 276.457031 155.671875 C 276.402344 155.703125 276.351562 155.742188 276.3125 155.789062 C 276.277344 155.832031 276.242188 155.886719 276.226562 155.941406 C 276.207031 155.992188 276.195312 156.046875 276.195312 156.097656 L 276.195312 157.96875 L 278.4375 157.96875 L 278.4375 156.097656 C 278.4375 155.910156 278.328125 155.753906 278.175781 155.671875 C 278.199219 155.65625 278.21875 155.636719 278.242188 155.617188 C 278.363281 155.488281 278.4375 155.339844 278.4375 155.175781 C 278.4375 155.140625 278.433594 155.101562 278.429688 155.066406 C 278.429688 154.726562 278.035156 154.546875 277.488281 154.242188 C 276.945312 153.929688 276.667969 153.488281 276.667969 153.488281 C 276.667969 153.488281 276.453125 153.910156 276.3125 154.394531 C 276.277344 154.535156 276.242188 154.679688 276.226562 154.824219 C 276.210938 154.910156 276.207031 154.988281 276.207031 155.066406 Z M 279.058594 155.175781 C 279.058594 155.339844 279.128906 155.488281 279.257812 155.617188 C 279.273438 155.636719 279.292969 155.65625 279.316406 155.671875 C 279.164062 155.753906 279.058594 155.910156 279.058594 156.097656 L 279.058594 157.96875 L 281.710938 157.96875 L 281.710938 156.097656 C 281.710938 155.910156 281.609375 155.753906 281.453125 155.671875 C 281.472656 155.65625 281.496094 155.636719 281.515625 155.617188 C 281.640625 155.488281 281.710938 155.339844 281.710938 155.175781 C 281.710938 155.140625 281.710938 155.101562 281.699219 155.066406 C 281.699219 154.726562 281.371094 154.332031 281.046875 154.023438 C 280.714844 153.710938 280.382812 153.488281 280.382812 153.488281 C 280.382812 153.488281 279.066406 154.375 279.066406 155.066406 C 279.058594 155.101562 279.058594 155.140625 279.058594 155.175781 Z M 282.335938 155.175781 C 282.335938 155.339844 282.40625 155.488281 282.53125 155.617188 C 282.546875 155.636719 282.570312 155.65625 282.59375 155.671875 C 282.4375 155.753906 282.335938 155.910156 282.335938 156.097656 L 282.335938 157.96875 L 284.570312 157.96875 L 284.570312 156.097656 C 284.570312 155.980469 284.527344 155.867188 284.453125 155.785156 C 284.417969 155.742188 284.371094 155.703125 284.3125 155.671875 C 284.335938 155.65625 284.359375 155.636719 284.375 155.617188 C 284.40625 155.589844 284.429688 155.554688 284.453125 155.519531 C 284.535156 155.417969 284.570312 155.296875 284.570312 155.175781 C 284.570312 155.140625 284.570312 155.101562 284.5625 155.066406 C 284.5625 154.847656 284.515625 154.613281 284.453125 154.390625 C 284.320312 153.90625 284.101562 153.488281 284.101562 153.488281 C 284.101562 153.488281 283.992188 153.828125 283.449219 154.132812 C 282.90625 154.445312 282.34375 154.726562 282.34375 155.066406 C 282.335938 155.101562 282.335938 155.140625 282.335938 155.175781 Z M 274.628906 148.417969 C 274.628906 148.414062 274.628906 148.40625 274.628906 148.40625 C 274.628906 148.246094 274.644531 148.089844 274.675781 147.933594 C 274.675781 145.722656 277.773438 143.066406 279.402344 141.820312 C 279.367188 141.816406 279.339844 141.8125 279.335938 141.804688 C 279.234375 141.703125 279.296875 141.386719 279.304688 141.359375 L 279.304688 141.355469 C 279.378906 140.949219 279.925781 140.609375 280.207031 140.457031 C 280.214844 140.113281 280.21875 139.769531 280.226562 139.433594 C 280.0625 139.390625 279.941406 139.277344 279.941406 139.140625 C 279.941406 139.003906 280.066406 138.890625 280.238281 138.847656 C 280.261719 137.6875 280.289062 136.699219 280.328125 136.238281 C 278.714844 136.214844 277.410156 134.898438 277.410156 133.273438 C 277.410156 133.191406 277.414062 133.109375 277.417969 133.027344 C 277.53125 134.296875 278.597656 135.289062 279.898438 135.289062 C 281.273438 135.289062 282.390625 134.175781 282.390625 132.800781 C 282.390625 131.5 281.394531 130.433594 280.125 130.320312 C 280.207031 130.3125 280.289062 130.308594 280.375 130.308594 C 282.015625 130.308594 283.339844 131.636719 283.339844 133.273438 C 283.339844 134.898438 282.039062 136.210938 280.421875 136.238281 C 280.460938 136.699219 280.488281 137.6875 280.511719 138.847656 C 280.683594 138.890625 280.808594 139.003906 280.808594 139.140625 C 280.808594 139.277344 280.691406 139.390625 280.523438 139.433594 C 280.53125 139.769531 280.535156 140.113281 280.542969 140.457031 C 280.820312 140.609375 281.371094 140.949219 281.449219 141.355469 L 281.449219 141.359375 C 281.453125 141.386719 281.515625 141.703125 281.414062 141.804688 C 281.410156 141.816406 281.378906 141.816406 281.339844 141.824219 C 282.964844 143.078125 286.074219 145.761719 286.074219 147.933594 C 286.078125 147.933594 286.078125 147.933594 286.078125 147.933594 C 286.109375 148.089844 286.121094 148.246094 286.121094 148.40625 C 286.121094 148.40625 286.121094 148.414062 286.121094 148.417969 C 286.121094 149.117188 285.808594 149.769531 285.269531 150.324219 C 285.042969 150.5625 284.757812 150.78125 284.449219 150.976562 L 284.839844 150.976562 C 285.007812 150.976562 285.148438 151.117188 285.148438 151.289062 C 285.148438 151.460938 285.007812 151.597656 284.839844 151.597656 L 284.640625 151.597656 L 284.640625 157.96875 L 284.671875 157.96875 C 284.933594 157.96875 285.148438 158.1875 285.148438 158.445312 L 285.148438 158.738281 C 285.148438 158.996094 284.933594 159.210938 284.671875 159.210938 L 276.097656 159.210938 C 275.835938 159.210938 275.621094 158.996094 275.621094 158.738281 L 275.621094 158.445312 C 275.621094 158.1875 275.835938 157.96875 276.097656 157.96875 L 276.132812 157.96875 L 276.132812 151.597656 L 275.933594 151.597656 C 275.761719 151.597656 275.621094 151.460938 275.621094 151.289062 C 275.621094 151.117188 275.761719 150.976562 275.933594 150.976562 L 276.300781 150.976562 C 275.992188 150.78125 275.707031 150.5625 275.480469 150.324219 C 274.941406 149.769531 274.632812 149.117188 274.628906 148.417969 " fill-opacity="1" fill-rule="nonzero"/><path fill="#a1a1a1" d="M 187.550781 155.035156 C 187.546875 155.074219 187.542969 155.109375 187.542969 155.148438 C 187.542969 155.148438 187.542969 155.152344 187.546875 155.152344 C 187.546875 155.207031 187.550781 155.257812 187.570312 155.3125 C 187.589844 155.375 187.617188 155.433594 187.660156 155.496094 C 187.683594 155.527344 187.710938 155.558594 187.742188 155.589844 C 187.757812 155.609375 187.78125 155.625 187.800781 155.648438 C 187.746094 155.671875 187.699219 155.710938 187.660156 155.757812 C 187.617188 155.800781 187.589844 155.855469 187.570312 155.914062 C 187.550781 155.960938 187.542969 156.015625 187.542969 156.070312 L 187.542969 157.941406 L 189.78125 157.941406 L 189.78125 156.070312 C 189.78125 155.882812 189.675781 155.726562 189.523438 155.648438 C 189.546875 155.625 189.570312 155.609375 189.585938 155.589844 C 189.710938 155.460938 189.78125 155.308594 189.78125 155.152344 L 189.78125 155.148438 C 189.78125 155.109375 189.777344 155.074219 189.769531 155.035156 C 189.769531 154.699219 189.378906 154.519531 188.835938 154.210938 C 188.292969 153.898438 188.015625 153.460938 188.015625 153.460938 C 188.015625 153.460938 187.796875 153.882812 187.660156 154.363281 C 187.621094 154.507812 187.589844 154.65625 187.570312 154.796875 C 187.558594 154.878906 187.550781 154.960938 187.550781 155.035156 Z M 190.402344 155.152344 C 190.402344 155.308594 190.476562 155.460938 190.597656 155.589844 C 190.621094 155.609375 190.644531 155.625 190.664062 155.648438 C 190.511719 155.726562 190.402344 155.882812 190.402344 156.070312 L 190.402344 157.941406 L 193.058594 157.941406 L 193.058594 156.070312 C 193.058594 155.882812 192.953125 155.726562 192.800781 155.648438 C 192.824219 155.625 192.847656 155.609375 192.859375 155.589844 C 192.984375 155.460938 193.058594 155.308594 193.058594 155.152344 L 193.058594 155.148438 C 193.058594 155.109375 193.054688 155.074219 193.046875 155.035156 C 193.046875 154.699219 192.71875 154.304688 192.386719 153.992188 C 192.0625 153.683594 191.734375 153.460938 191.734375 153.460938 C 191.734375 153.460938 190.414062 154.347656 190.414062 155.035156 C 190.40625 155.074219 190.402344 155.109375 190.402344 155.148438 Z M 193.679688 155.152344 C 193.679688 155.308594 193.75 155.460938 193.875 155.589844 C 193.894531 155.609375 193.917969 155.625 193.9375 155.648438 C 193.785156 155.726562 193.679688 155.882812 193.679688 156.070312 L 193.679688 157.941406 L 195.921875 157.941406 L 195.921875 156.070312 C 195.921875 155.949219 195.875 155.835938 195.800781 155.753906 C 195.761719 155.710938 195.710938 155.671875 195.660156 155.648438 C 195.679688 155.625 195.703125 155.609375 195.722656 155.589844 C 195.753906 155.558594 195.777344 155.527344 195.800781 155.496094 C 195.875 155.386719 195.921875 155.269531 195.921875 155.152344 L 195.921875 155.148438 C 195.921875 155.109375 195.917969 155.074219 195.910156 155.035156 C 195.910156 154.820312 195.863281 154.582031 195.800781 154.359375 C 195.664062 153.878906 195.449219 153.460938 195.449219 153.460938 C 195.449219 153.460938 195.339844 153.796875 194.796875 154.109375 C 194.253906 154.417969 193.691406 154.699219 193.691406 155.035156 C 193.679688 155.074219 193.679688 155.109375 193.679688 155.148438 Z M 185.972656 148.390625 C 185.972656 148.382812 185.972656 148.378906 185.972656 148.375 C 185.972656 148.21875 185.988281 148.0625 186.019531 147.910156 C 186.019531 147.90625 186.019531 147.90625 186.019531 147.90625 C 186.019531 145.695312 189.121094 143.035156 190.746094 141.792969 C 190.714844 141.789062 190.6875 141.785156 190.683594 141.78125 C 190.582031 141.675781 190.644531 141.359375 190.648438 141.332031 C 190.726562 140.917969 191.273438 140.578125 191.554688 140.425781 C 191.558594 140.082031 191.566406 139.738281 191.570312 139.402344 C 191.40625 139.359375 191.285156 139.25 191.285156 139.113281 C 191.285156 138.976562 191.414062 138.863281 191.582031 138.820312 C 191.605469 137.65625 191.640625 136.671875 191.675781 136.207031 C 190.058594 136.183594 188.753906 134.871094 188.753906 133.25 C 188.753906 133.164062 188.757812 133.082031 188.765625 133 C 188.878906 134.265625 189.949219 135.261719 191.246094 135.261719 C 192.621094 135.261719 193.734375 134.148438 193.734375 132.773438 C 193.734375 131.472656 192.742188 130.40625 191.472656 130.292969 C 191.554688 130.285156 191.640625 130.28125 191.722656 130.28125 C 193.359375 130.28125 194.6875 131.609375 194.6875 133.25 C 194.6875 134.871094 193.386719 136.183594 191.769531 136.207031 C 191.804688 136.671875 191.835938 137.65625 191.859375 138.820312 C 192.03125 138.863281 192.15625 138.976562 192.15625 139.113281 C 192.15625 139.25 192.035156 139.359375 191.871094 139.402344 C 191.875 139.738281 191.882812 140.082031 191.886719 140.425781 C 192.171875 140.578125 192.71875 140.917969 192.792969 141.332031 C 192.800781 141.359375 192.859375 141.675781 192.761719 141.78125 C 192.753906 141.785156 192.726562 141.789062 192.6875 141.792969 C 194.3125 143.046875 197.425781 145.734375 197.425781 147.90625 C 197.425781 147.90625 197.425781 147.90625 197.425781 147.910156 C 197.453125 148.0625 197.46875 148.21875 197.46875 148.375 C 197.46875 148.378906 197.46875 148.382812 197.46875 148.390625 C 197.464844 149.089844 197.152344 149.742188 196.621094 150.296875 C 196.386719 150.535156 196.101562 150.75 195.792969 150.949219 L 196.183594 150.949219 C 196.355469 150.949219 196.492188 151.089844 196.492188 151.257812 C 196.492188 151.433594 196.355469 151.566406 196.183594 151.566406 L 195.984375 151.566406 L 195.984375 157.941406 L 196.019531 157.941406 C 196.277344 157.941406 196.492188 158.15625 196.492188 158.417969 L 196.492188 158.707031 C 196.492188 158.96875 196.277344 159.179688 196.019531 159.179688 L 187.445312 159.179688 C 187.183594 159.179688 186.96875 158.96875 186.96875 158.707031 L 186.96875 158.417969 C 186.96875 158.15625 187.183594 157.941406 187.445312 157.941406 L 187.476562 157.941406 L 187.476562 151.566406 L 187.277344 151.566406 C 187.109375 151.566406 186.96875 151.433594 186.96875 151.257812 C 186.96875 151.089844 187.109375 150.949219 187.277344 150.949219 L 187.648438 150.949219 C 187.339844 150.75 187.054688 150.535156 186.824219 150.296875 C 186.289062 149.742188 185.976562 149.089844 185.972656 148.390625 " fill-opacity="1" fill-rule="nonzero"/><path fill="#a1a1a1" d="M 274.902344 235.261719 C 274.902344 235.203125 274.898438 235.140625 274.890625 235.082031 C 274.679688 233.953125 272.699219 233.066406 272.699219 233.066406 C 272.699219 233.066406 272.203125 233.292969 271.679688 233.648438 C 271.164062 234.015625 270.617188 234.515625 270.507812 235.082031 C 270.5 235.140625 270.492188 235.203125 270.492188 235.261719 C 270.492188 235.265625 270.492188 235.265625 270.492188 235.269531 C 270.492188 235.527344 270.605469 235.769531 270.796875 235.976562 C 270.597656 236.148438 270.472656 236.402344 270.472656 236.679688 L 270.472656 241.289062 L 274.886719 241.289062 L 274.886719 236.679688 C 274.886719 236.410156 274.769531 236.167969 274.585938 236 C 274.785156 235.785156 274.902344 235.535156 274.902344 235.269531 C 274.902344 235.265625 274.902344 235.265625 274.902344 235.261719 Z M 199.367188 233.066406 C 199.367188 233.066406 197.382812 233.953125 197.175781 235.082031 L 197.171875 235.082031 C 197.164062 235.140625 197.152344 235.203125 197.152344 235.261719 C 197.152344 235.265625 197.152344 235.265625 197.152344 235.269531 C 197.160156 235.527344 197.269531 235.769531 197.460938 235.976562 C 197.261719 236.148438 197.136719 236.402344 197.136719 236.679688 L 197.136719 241.289062 L 201.546875 241.289062 L 201.546875 236.679688 C 201.546875 236.410156 201.433594 236.167969 201.246094 236 C 201.449219 235.785156 201.566406 235.535156 201.566406 235.269531 C 201.566406 235.265625 201.566406 235.265625 201.566406 235.261719 C 201.566406 235.203125 201.5625 235.140625 201.554688 235.082031 C 201.34375 233.953125 199.367188 233.066406 199.367188 233.066406 Z M 262.515625 233.648438 C 261.996094 234.015625 261.449219 234.515625 261.34375 235.082031 C 261.332031 235.140625 261.324219 235.203125 261.324219 235.261719 C 261.324219 235.265625 261.324219 235.265625 261.324219 235.269531 C 261.324219 235.527344 261.4375 235.769531 261.628906 235.976562 C 261.429688 236.148438 261.304688 236.402344 261.304688 236.679688 L 261.304688 241.289062 L 265.71875 241.289062 L 265.71875 236.679688 C 265.71875 236.410156 265.601562 236.167969 265.414062 236 C 265.617188 235.785156 265.738281 235.535156 265.738281 235.269531 C 265.738281 235.265625 265.738281 235.265625 265.738281 235.261719 C 265.738281 235.203125 265.734375 235.140625 265.722656 235.082031 C 265.511719 233.953125 263.535156 233.066406 263.535156 233.066406 C 263.535156 233.066406 263.035156 233.292969 262.515625 233.648438 Z M 256.574219 235.269531 C 256.574219 235.265625 256.574219 235.265625 256.574219 235.261719 C 256.574219 235.203125 256.5625 235.140625 256.554688 235.082031 C 256.34375 233.953125 254.367188 233.066406 254.367188 233.066406 C 254.367188 233.066406 253.871094 233.292969 253.351562 233.648438 C 252.828125 234.015625 252.28125 234.515625 252.175781 235.082031 C 252.164062 235.140625 252.160156 235.203125 252.160156 235.261719 C 252.160156 235.265625 252.160156 235.265625 252.160156 235.269531 C 252.160156 235.527344 252.269531 235.769531 252.464844 235.976562 C 252.265625 236.148438 252.140625 236.402344 252.140625 236.679688 L 252.140625 241.289062 L 256.550781 241.289062 L 256.550781 236.679688 C 256.550781 236.410156 256.433594 236.167969 256.25 236 C 256.453125 235.785156 256.574219 235.535156 256.574219 235.269531 Z M 247.40625 235.269531 C 247.40625 235.265625 247.40625 235.265625 247.40625 235.261719 C 247.40625 235.203125 247.398438 235.140625 247.386719 235.082031 C 247.179688 233.953125 245.199219 233.066406 245.199219 233.066406 C 245.199219 233.066406 244.703125 233.292969 244.183594 233.648438 C 243.660156 234.015625 243.113281 234.515625 243.007812 235.082031 C 242.996094 235.140625 242.992188 235.203125 242.992188 235.261719 C 242.992188 235.265625 242.992188 235.265625 242.992188 235.269531 C 242.992188 235.527344 243.105469 235.769531 243.296875 235.976562 C 243.097656 236.148438 242.96875 236.402344 242.96875 236.679688 L 242.96875 241.289062 L 247.382812 241.289062 L 247.382812 236.679688 C 247.382812 236.410156 247.269531 236.167969 247.082031 236 C 247.285156 235.785156 247.40625 235.535156 247.40625 235.269531 Z M 238.238281 235.269531 C 238.238281 235.265625 238.238281 235.265625 238.238281 235.261719 C 238.238281 235.203125 238.230469 235.140625 238.222656 235.082031 C 238.011719 233.953125 236.03125 233.066406 236.03125 233.066406 C 236.03125 233.066406 235.535156 233.292969 235.015625 233.648438 C 234.492188 234.015625 233.949219 234.515625 233.839844 235.082031 C 233.832031 235.140625 233.824219 235.203125 233.824219 235.261719 C 233.824219 235.265625 233.824219 235.265625 233.824219 235.269531 C 233.828125 235.527344 233.9375 235.769531 234.128906 235.976562 C 233.929688 236.148438 233.804688 236.402344 233.804688 236.679688 L 233.804688 241.289062 L 238.21875 241.289062 L 238.21875 236.679688 C 238.21875 236.410156 238.101562 236.167969 237.914062 236 C 238.117188 235.785156 238.238281 235.535156 238.238281 235.269531 Z M 229.070312 235.269531 C 229.070312 235.265625 229.070312 235.265625 229.070312 235.261719 C 229.070312 235.203125 229.066406 235.140625 229.054688 235.082031 C 228.84375 233.953125 226.863281 233.066406 226.863281 233.066406 C 226.863281 233.066406 226.367188 233.292969 225.847656 233.648438 C 225.328125 234.015625 224.78125 234.515625 224.675781 235.082031 C 224.664062 235.140625 224.65625 235.203125 224.65625 235.261719 C 224.65625 235.265625 224.65625 235.265625 224.65625 235.269531 C 224.660156 235.527344 224.769531 235.769531 224.960938 235.976562 C 224.761719 236.148438 224.636719 236.402344 224.636719 236.679688 L 224.636719 241.289062 L 229.050781 241.289062 L 229.050781 236.679688 C 229.050781 236.410156 228.9375 236.167969 228.746094 236 C 228.949219 235.785156 229.070312 235.535156 229.070312 235.269531 Z M 219.902344 235.269531 C 219.902344 235.265625 219.902344 235.265625 219.902344 235.261719 C 219.902344 235.203125 219.894531 235.140625 219.886719 235.082031 C 219.675781 233.953125 217.699219 233.066406 217.699219 233.066406 C 217.699219 233.066406 217.199219 233.292969 216.683594 233.648438 C 216.160156 234.015625 215.613281 234.515625 215.507812 235.082031 C 215.496094 235.140625 215.488281 235.203125 215.488281 235.261719 C 215.488281 235.265625 215.488281 235.265625 215.488281 235.269531 C 215.492188 235.527344 215.601562 235.769531 215.796875 235.976562 C 215.597656 236.148438 215.46875 236.402344 215.46875 236.679688 L 215.46875 241.289062 L 219.882812 241.289062 L 219.882812 236.679688 C 219.882812 236.410156 219.765625 236.167969 219.578125 236 C 219.78125 235.785156 219.902344 235.535156 219.902344 235.269531 Z M 206.300781 236.679688 L 206.300781 241.289062 L 210.714844 241.289062 L 210.714844 236.679688 C 210.714844 236.410156 210.597656 236.167969 210.414062 236 C 210.617188 235.785156 210.738281 235.535156 210.738281 235.269531 C 210.738281 235.265625 210.738281 235.265625 210.738281 235.261719 C 210.738281 235.203125 210.730469 235.140625 210.71875 235.082031 C 210.511719 233.953125 208.53125 233.066406 208.53125 233.066406 C 208.53125 233.066406 206.550781 233.953125 206.34375 235.082031 C 206.339844 235.082031 206.339844 235.082031 206.339844 235.082031 C 206.328125 235.140625 206.324219 235.203125 206.324219 235.261719 C 206.324219 235.265625 206.324219 235.265625 206.324219 235.269531 C 206.324219 235.527344 206.433594 235.769531 206.628906 235.976562 C 206.429688 236.148438 206.300781 236.402344 206.300781 236.679688 Z M 59.945312 240.617188 L 59.945312 260.210938 L 62.097656 260.210938 C 62.097656 260.210938 62.007812 257.925781 61.296875 249.894531 C 62.292969 245.972656 59.945312 240.617188 59.945312 240.617188 Z M 94.554688 260.210938 L 96.710938 260.210938 L 96.710938 240.617188 C 96.710938 240.617188 94.601562 245.230469 95.347656 249.96875 C 94.71875 256.917969 94.554688 260.210938 94.554688 260.210938 Z M 72.5 251.988281 L 72.5 260.210938 L 84.148438 260.210938 L 84.148438 251.988281 C 84.148438 251.171875 83.691406 250.480469 83.011719 250.128906 C 83.105469 250.046875 83.210938 249.96875 83.285156 249.886719 C 83.835938 249.320312 84.148438 248.65625 84.148438 247.945312 C 84.148438 247.945312 84.148438 247.941406 84.148438 247.933594 C 84.148438 247.773438 84.140625 247.621094 84.105469 247.460938 C 84.105469 244.421875 78.324219 240.542969 78.324219 240.542969 C 78.324219 240.542969 76.878906 241.527344 75.433594 242.878906 C 73.992188 244.242188 72.546875 245.972656 72.546875 247.460938 C 72.511719 247.621094 72.5 247.773438 72.5 247.933594 C 72.5 247.941406 72.5 247.945312 72.5 247.945312 C 72.507812 248.65625 72.820312 249.320312 73.363281 249.886719 C 73.441406 249.96875 73.542969 250.046875 73.636719 250.128906 C 72.960938 250.480469 72.5 251.171875 72.5 251.988281 Z M 136.535156 270.652344 L 136.535156 270.648438 C 136.535156 270.621094 136.535156 270.589844 136.527344 270.5625 C 136.480469 270.296875 136.21875 270.0625 135.976562 269.890625 C 135.730469 269.71875 135.496094 269.617188 135.496094 269.617188 C 135.496094 269.617188 134.566406 270.03125 134.46875 270.5625 C 134.464844 270.589844 134.460938 270.621094 134.460938 270.648438 L 134.460938 270.652344 C 134.460938 270.777344 134.519531 270.894531 134.617188 270.992188 C 134.527344 271.074219 134.472656 271.1875 134.472656 271.3125 L 134.472656 273.484375 L 136.546875 273.484375 L 136.546875 271.3125 C 136.546875 271.183594 136.488281 271.0625 136.394531 270.984375 C 136.484375 270.886719 136.535156 270.773438 136.535156 270.652344 Z M 140.847656 270.652344 L 140.847656 270.648438 C 140.847656 270.621094 140.84375 270.589844 140.835938 270.5625 C 140.785156 270.296875 140.53125 270.0625 140.285156 269.890625 C 140.039062 269.71875 139.808594 269.617188 139.808594 269.617188 C 139.808594 269.617188 138.878906 270.03125 138.777344 270.5625 C 138.773438 270.589844 138.773438 270.621094 138.773438 270.648438 L 138.773438 270.652344 C 138.773438 270.777344 138.828125 270.894531 138.921875 270.992188 C 138.832031 271.074219 138.777344 271.1875 138.777344 271.3125 L 138.777344 273.484375 L 140.855469 273.484375 L 140.855469 271.3125 C 140.855469 271.183594 140.796875 271.0625 140.703125 270.984375 C 140.796875 270.886719 140.84375 270.773438 140.847656 270.652344 Z M 145.152344 270.652344 L 145.152344 270.648438 C 145.152344 270.621094 145.152344 270.589844 145.148438 270.5625 C 145.097656 270.296875 144.84375 270.0625 144.59375 269.890625 C 144.351562 269.71875 144.117188 269.617188 144.117188 269.617188 C 144.117188 269.617188 143.1875 270.03125 143.089844 270.5625 C 143.082031 270.589844 143.082031 270.621094 143.082031 270.648438 L 143.082031 270.652344 C 143.082031 270.777344 143.136719 270.894531 143.234375 270.992188 C 143.144531 271.074219 143.089844 271.1875 143.089844 271.3125 L 143.089844 273.484375 L 145.164062 273.484375 L 145.164062 271.3125 C 145.164062 271.183594 145.101562 271.0625 145.011719 270.984375 C 145.101562 270.886719 145.152344 270.773438 145.152344 270.652344 Z M 149.464844 270.652344 L 149.464844 270.648438 C 149.464844 270.621094 149.460938 270.589844 149.457031 270.5625 C 149.410156 270.296875 149.152344 270.0625 148.90625 269.890625 C 148.664062 269.71875 148.429688 269.617188 148.429688 269.617188 C 148.429688 269.617188 147.496094 270.03125 147.398438 270.5625 C 147.394531 270.589844 147.386719 270.621094 147.386719 270.648438 L 147.386719 270.652344 C 147.386719 270.777344 147.445312 270.894531 147.539062 270.992188 C 147.453125 271.074219 147.398438 271.1875 147.398438 271.3125 L 147.398438 273.484375 L 149.472656 273.484375 L 149.472656 271.3125 C 149.472656 271.183594 149.414062 271.0625 149.320312 270.984375 C 149.410156 270.886719 149.464844 270.773438 149.464844 270.652344 Z M 153.777344 270.652344 L 153.777344 270.648438 C 153.777344 270.621094 153.773438 270.589844 153.765625 270.5625 C 153.714844 270.296875 153.457031 270.0625 153.214844 269.890625 C 152.96875 269.71875 152.734375 269.617188 152.734375 269.617188 C 152.734375 269.617188 151.804688 270.03125 151.707031 270.5625 C 151.703125 270.589844 151.699219 270.621094 151.699219 270.648438 L 151.699219 270.652344 C 151.699219 270.777344 151.757812 270.894531 151.851562 270.992188 C 151.765625 271.074219 151.707031 271.1875 151.707031 271.3125 L 151.707031 273.484375 L 153.785156 273.484375 L 153.785156 271.3125 C 153.785156 271.183594 153.726562 271.0625 153.632812 270.984375 C 153.722656 270.886719 153.777344 270.773438 153.777344 270.652344 Z M 158.085938 270.652344 L 158.085938 270.648438 C 158.085938 270.621094 158.082031 270.589844 158.074219 270.5625 C 158.023438 270.296875 157.769531 270.0625 157.523438 269.890625 C 157.277344 269.71875 157.046875 269.617188 157.046875 269.617188 C 157.046875 269.617188 156.117188 270.03125 156.015625 270.5625 C 156.011719 270.589844 156.011719 270.621094 156.011719 270.648438 L 156.011719 270.652344 C 156.011719 270.777344 156.066406 270.894531 156.160156 270.992188 C 156.074219 271.074219 156.015625 271.1875 156.015625 271.3125 L 156.015625 273.484375 L 158.09375 273.484375 L 158.09375 271.3125 C 158.09375 271.183594 158.03125 271.0625 157.941406 270.984375 C 158.03125 270.886719 158.082031 270.773438 158.085938 270.652344 Z M 162.390625 270.652344 L 162.390625 270.648438 C 162.390625 270.621094 162.390625 270.589844 162.386719 270.5625 C 162.335938 270.296875 162.078125 270.0625 161.835938 269.890625 C 161.589844 269.71875 161.355469 269.617188 161.355469 269.617188 C 161.355469 269.617188 160.425781 270.03125 160.328125 270.5625 C 160.320312 270.589844 160.316406 270.621094 160.316406 270.648438 L 160.316406 270.652344 C 160.320312 270.777344 160.375 270.894531 160.472656 270.992188 C 160.382812 271.074219 160.328125 271.1875 160.328125 271.3125 L 160.328125 273.484375 L 162.402344 273.484375 L 162.402344 271.3125 C 162.402344 271.183594 162.34375 271.0625 162.25 270.984375 C 162.339844 270.886719 162.390625 270.773438 162.390625 270.652344 Z M 166.703125 270.652344 L 166.703125 270.648438 C 166.703125 270.621094 166.699219 270.589844 166.699219 270.5625 C 166.648438 270.296875 166.390625 270.0625 166.140625 269.890625 C 165.898438 269.71875 165.667969 269.617188 165.667969 269.617188 C 165.667969 269.617188 164.734375 270.03125 164.640625 270.5625 C 164.632812 270.589844 164.625 270.621094 164.625 270.648438 L 164.625 270.652344 C 164.625 270.777344 164.6875 270.894531 164.78125 270.992188 C 164.695312 271.074219 164.640625 271.1875 164.640625 271.3125 L 164.640625 273.484375 L 166.710938 273.484375 L 166.710938 271.3125 C 166.710938 271.183594 166.652344 271.0625 166.558594 270.984375 C 166.648438 270.886719 166.703125 270.773438 166.703125 270.652344 Z M 171.015625 270.652344 L 171.015625 270.648438 C 171.015625 270.621094 171.007812 270.589844 171.003906 270.5625 C 170.957031 270.296875 170.695312 270.0625 170.453125 269.890625 C 170.207031 269.71875 169.976562 269.617188 169.976562 269.617188 C 169.976562 269.617188 169.042969 270.03125 168.945312 270.5625 C 168.941406 270.589844 168.9375 270.621094 168.9375 270.648438 L 168.9375 270.652344 C 168.9375 270.777344 168.992188 270.894531 169.089844 270.992188 C 169 271.074219 168.949219 271.1875 168.949219 271.3125 L 168.949219 273.484375 L 171.023438 273.484375 L 171.023438 271.3125 C 171.023438 271.183594 170.964844 271.0625 170.871094 270.984375 C 170.960938 270.886719 171.015625 270.773438 171.015625 270.652344 Z M 0.6875 171.761719 C 3.449219 202.316406 14.957031 230.347656 32.671875 253.34375 C 35.167969 250.828125 38.480469 248.835938 40.550781 247.726562 C 40.492188 247.679688 40.433594 247.632812 40.382812 247.578125 C 40.152344 247.335938 40.019531 247.054688 40.019531 246.757812 C 40.019531 246.753906 40.019531 246.753906 40.019531 246.75 C 40.019531 246.679688 40.023438 246.617188 40.035156 246.546875 C 40.210938 245.609375 41.476562 244.816406 42.121094 244.472656 C 42.128906 243.875 42.140625 243.285156 42.148438 242.703125 C 41.773438 242.601562 41.5 242.34375 41.5 242.035156 C 41.5 241.71875 41.785156 241.460938 42.175781 241.363281 C 42.253906 237.667969 42.355469 234.726562 42.492188 234.726562 C 42.632812 234.726562 42.738281 237.667969 42.8125 241.363281 C 43.203125 241.460938 43.488281 241.71875 43.488281 242.035156 C 43.488281 242.34375 43.214844 242.601562 42.835938 242.703125 C 42.847656 243.285156 42.859375 243.875 42.871094 244.472656 C 43.511719 244.816406 44.777344 245.609375 44.953125 246.546875 C 44.964844 246.617188 44.972656 246.679688 44.972656 246.75 C 44.972656 246.753906 44.972656 246.753906 44.972656 246.757812 C 44.96875 247.054688 44.835938 247.335938 44.605469 247.578125 C 44.554688 247.632812 44.496094 247.679688 44.441406 247.726562 C 47.851562 249.550781 54.636719 253.765625 55.566406 258.789062 C 55.566406 258.789062 55.566406 258.789062 55.566406 258.792969 C 55.640625 259.144531 55.675781 259.5 55.675781 259.863281 C 55.675781 259.875 55.675781 259.886719 55.675781 259.898438 C 55.667969 261.117188 55.253906 262.273438 54.515625 263.316406 C 54.777344 263.320312 55.023438 263.320312 55.246094 263.324219 C 55.84375 263.324219 56.140625 264.046875 55.71875 264.472656 C 55.667969 264.519531 55.609375 264.554688 55.554688 264.585938 C 56.113281 264.9375 56.492188 265.558594 56.492188 266.277344 L 56.492188 272.761719 L 57.421875 272.761719 L 57.421875 263.570312 C 57.421875 263.566406 57.421875 263.5625 57.421875 263.5625 L 57.421875 262.300781 C 57.421875 261.148438 58.359375 260.210938 59.507812 260.210938 L 59.660156 260.210938 L 59.660156 232.238281 L 58.78125 232.238281 C 58.035156 232.238281 57.421875 231.632812 57.421875 230.882812 C 57.421875 230.132812 58.035156 229.523438 58.78125 229.523438 L 59.558594 229.523438 C 58.859375 228.238281 58.46875 226.855469 58.460938 225.417969 C 58.460938 225.398438 58.460938 225.386719 58.460938 225.367188 C 58.460938 224.820312 58.515625 224.28125 58.621094 223.753906 C 58.621094 223.75 58.621094 223.746094 58.621094 223.746094 C 60.023438 216.179688 70.253906 209.828125 75.394531 207.070312 C 75.304688 207 75.222656 206.929688 75.144531 206.851562 C 74.796875 206.492188 74.59375 206.066406 74.59375 205.613281 C 74.589844 205.609375 74.589844 205.605469 74.589844 205.605469 C 74.589844 205.5 74.601562 205.398438 74.621094 205.296875 C 74.886719 203.878906 76.796875 202.691406 77.765625 202.171875 C 77.777344 201.273438 77.792969 200.382812 77.808594 199.511719 C 77.234375 199.355469 76.824219 198.964844 76.824219 198.496094 C 76.824219 198.019531 77.257812 197.621094 77.847656 197.476562 C 77.960938 191.90625 78.121094 187.484375 78.324219 187.484375 C 78.535156 187.484375 78.6875 191.90625 78.804688 197.476562 C 79.398438 197.621094 79.824219 198.019531 79.824219 198.496094 C 79.824219 198.964844 79.417969 199.355469 78.84375 199.511719 C 78.859375 200.382812 78.875 201.273438 78.890625 202.171875 C 79.859375 202.691406 81.765625 203.878906 82.027344 205.296875 C 82.03125 205.296875 82.03125 205.296875 82.03125 205.296875 C 82.050781 205.398438 82.0625 205.5 82.0625 205.605469 C 82.0625 205.605469 82.0625 205.609375 82.0625 205.613281 C 82.058594 206.066406 81.855469 206.492188 81.503906 206.851562 C 81.433594 206.929688 81.34375 207 81.257812 207.070312 C 86.394531 209.828125 96.625 216.179688 98.03125 223.742188 C 98.03125 223.746094 98.03125 223.75 98.03125 223.753906 C 98.136719 224.28125 98.191406 224.820312 98.191406 225.367188 C 98.191406 225.386719 98.191406 225.398438 98.191406 225.417969 C 98.183594 226.855469 97.789062 228.238281 97.089844 229.523438 L 97.867188 229.523438 C 98.621094 229.523438 99.230469 230.132812 99.230469 230.882812 C 99.230469 231.632812 98.621094 232.238281 97.867188 232.238281 L 96.992188 232.238281 L 96.992188 260.210938 L 97.140625 260.210938 C 98.289062 260.210938 99.230469 261.148438 99.230469 262.300781 L 99.230469 272.761719 L 103.773438 272.761719 L 103.773438 262.980469 L 103.679688 262.980469 C 103.425781 262.980469 103.21875 262.769531 103.21875 262.515625 L 103.21875 262.148438 C 103.21875 261.894531 103.425781 261.6875 103.679688 261.6875 L 103.773438 261.6875 L 103.773438 250.8125 L 103.679688 250.8125 C 103.425781 250.8125 103.21875 250.601562 103.21875 250.347656 L 103.21875 249.984375 C 103.21875 249.730469 103.425781 249.523438 103.679688 249.523438 L 103.773438 249.523438 L 103.773438 227.679688 L 103.722656 227.679688 C 103.464844 227.679688 103.261719 227.472656 103.261719 227.214844 L 103.261719 226.851562 C 103.261719 226.59375 103.464844 226.386719 103.722656 226.386719 L 103.757812 226.386719 C 103.515625 226.222656 103.289062 226.050781 103.105469 225.859375 C 102.617188 225.351562 102.335938 224.761719 102.328125 224.121094 C 102.328125 224.121094 102.328125 224.117188 102.328125 224.109375 C 102.328125 223.96875 102.34375 223.828125 102.375 223.683594 C 102.375 221.707031 105.203125 219.269531 106.679688 218.128906 C 106.648438 218.125 106.617188 218.121094 106.613281 218.113281 C 106.519531 218.019531 106.578125 217.734375 106.582031 217.707031 C 106.648438 217.335938 107.148438 217.023438 107.40625 216.886719 C 107.40625 216.574219 107.414062 216.261719 107.417969 215.957031 C 107.269531 215.917969 107.160156 215.816406 107.160156 215.691406 C 107.160156 215.566406 107.277344 215.464844 107.429688 215.425781 C 107.460938 213.960938 107.5 212.796875 107.558594 212.796875 C 107.609375 212.796875 107.652344 213.960938 107.683594 215.425781 C 107.835938 215.464844 107.949219 215.566406 107.949219 215.691406 C 107.949219 215.816406 107.84375 215.917969 107.691406 215.957031 C 107.699219 216.261719 107.703125 216.574219 107.707031 216.886719 C 107.960938 217.023438 108.460938 217.335938 108.53125 217.707031 C 108.535156 217.734375 108.589844 218.019531 108.5 218.113281 C 108.496094 218.121094 108.464844 218.125 108.441406 218.125 C 109.917969 219.257812 112.738281 221.671875 112.738281 223.683594 C 112.765625 223.828125 112.78125 223.96875 112.78125 224.109375 C 112.78125 224.117188 112.78125 224.121094 112.78125 224.121094 C 112.777344 224.761719 112.492188 225.351562 112.007812 225.859375 C 111.820312 226.050781 111.597656 226.222656 111.359375 226.386719 L 111.453125 226.386719 C 111.710938 226.386719 111.917969 226.59375 111.917969 226.851562 L 111.917969 227.214844 C 111.917969 227.472656 111.710938 227.679688 111.453125 227.679688 L 111.40625 227.679688 L 111.40625 249.523438 L 111.414062 249.523438 C 111.667969 249.523438 111.878906 249.730469 111.878906 249.984375 L 111.878906 250.347656 C 111.878906 250.601562 111.667969 250.8125 111.414062 250.8125 L 111.40625 250.8125 L 111.40625 261.6875 L 111.414062 261.6875 C 111.667969 261.6875 111.878906 261.894531 111.878906 262.148438 L 111.878906 262.515625 C 111.878906 262.769531 111.667969 262.980469 111.414062 262.980469 L 111.40625 262.980469 L 111.40625 272.761719 L 111.878906 272.761719 L 111.878906 296.414062 L 120.574219 296.414062 L 120.574219 278.488281 C 120.574219 276.113281 122.5 274.183594 124.875 274.183594 L 125.746094 274.183594 C 124.378906 274.183594 123.261719 273.066406 123.261719 271.703125 L 123.261719 271.390625 C 123.261719 270.03125 124.378906 268.914062 125.746094 268.914062 L 126.996094 268.914062 C 126.785156 268.015625 126.714844 267.082031 126.714844 266.121094 C 126.710938 266.101562 126.710938 266.089844 126.710938 266.070312 C 126.710938 265.492188 126.78125 264.921875 126.917969 264.359375 C 126.917969 264.355469 126.917969 264.351562 126.917969 264.347656 C 128.988281 255.230469 145.8125 247.773438 150.90625 245.707031 C 150.90625 245.707031 150.90625 245.707031 150.910156 245.707031 C 150.914062 245.703125 150.921875 245.703125 150.925781 245.703125 C 150.875 245.660156 150.808594 245.625 150.761719 245.578125 C 150.589844 245.398438 150.488281 245.183594 150.488281 244.957031 C 150.488281 244.953125 150.488281 244.953125 150.488281 244.949219 C 150.488281 244.898438 150.492188 244.851562 150.5 244.796875 C 150.632812 244.082031 151.59375 243.488281 152.082031 243.226562 C 152.085938 242.773438 152.097656 242.324219 152.105469 241.882812 C 151.816406 241.808594 151.609375 241.609375 151.609375 241.375 C 151.609375 241.136719 151.824219 240.941406 152.125 240.867188 C 152.167969 238.617188 152.230469 236.746094 152.304688 236.09375 C 149.773438 236.0625 147.730469 234.003906 147.730469 231.457031 C 147.730469 231.328125 147.730469 231.199219 147.742188 231.070312 C 147.921875 233.054688 149.589844 234.605469 151.621094 234.605469 C 153.769531 234.605469 155.515625 232.867188 155.515625 230.714844 C 155.515625 228.6875 153.957031 227.019531 151.976562 226.839844 C 152.105469 226.828125 152.234375 226.820312 152.363281 226.820312 C 154.925781 226.820312 157 228.898438 157 231.457031 C 157 234.003906 154.957031 236.0625 152.421875 236.09375 C 152.5 236.746094 152.558594 238.617188 152.605469 240.867188 C 152.902344 240.941406 153.117188 241.136719 153.117188 241.375 C 153.117188 241.609375 152.914062 241.808594 152.625 241.882812 C 152.632812 242.324219 152.640625 242.773438 152.648438 243.226562 C 153.136719 243.488281 154.097656 244.082031 154.226562 244.796875 C 154.238281 244.851562 154.242188 244.898438 154.242188 244.949219 C 154.242188 244.953125 154.242188 244.953125 154.242188 244.957031 C 154.238281 245.183594 154.140625 245.398438 153.964844 245.578125 C 153.917969 245.625 153.859375 245.660156 153.804688 245.703125 C 153.8125 245.703125 153.816406 245.703125 153.824219 245.707031 C 158.914062 247.773438 175.75 255.230469 177.808594 264.351562 C 177.8125 264.355469 177.8125 264.355469 177.8125 264.359375 C 177.949219 264.921875 178.019531 265.492188 178.019531 266.070312 C 178.019531 266.089844 178.019531 266.101562 178.015625 266.121094 C 178.007812 267.082031 177.941406 268.015625 177.738281 268.914062 L 180.015625 268.914062 C 181.382812 268.914062 182.492188 270.03125 182.492188 271.390625 L 182.492188 271.703125 C 182.492188 273.066406 181.382812 274.183594 180.015625 274.183594 L 179.855469 274.183594 C 181.832031 274.183594 183.5 275.523438 183.996094 277.34375 L 187.496094 277.34375 L 187.496094 264.605469 L 187.484375 264.605469 C 187.203125 264.605469 186.976562 264.375 186.976562 264.09375 L 186.976562 263.695312 C 186.976562 263.417969 187.203125 263.183594 187.484375 263.183594 L 187.496094 263.183594 L 187.496094 237.339844 L 187.484375 237.339844 C 187.203125 237.339844 186.976562 237.113281 186.976562 236.832031 L 186.976562 236.429688 C 186.976562 236.152344 187.203125 235.921875 187.484375 235.921875 L 187.496094 235.921875 L 187.496094 220.484375 L 187.484375 220.484375 C 187.203125 220.484375 186.976562 220.257812 186.976562 219.976562 L 186.976562 219.574219 C 186.976562 219.292969 187.203125 219.066406 187.484375 219.066406 L 187.496094 219.066406 L 187.496094 203.628906 L 187.484375 203.628906 C 187.203125 203.628906 186.976562 203.402344 186.976562 203.121094 L 186.976562 202.71875 C 186.976562 202.4375 187.203125 202.207031 187.484375 202.207031 L 187.496094 202.207031 L 187.496094 186.773438 L 187.484375 186.773438 C 187.203125 186.773438 186.976562 186.542969 186.976562 186.265625 L 186.976562 185.863281 C 186.976562 185.582031 187.203125 185.351562 187.484375 185.351562 L 187.496094 185.351562 L 187.496094 169.917969 L 187.484375 169.917969 C 187.203125 169.917969 186.976562 169.6875 186.976562 169.410156 L 186.976562 169.007812 C 186.976562 168.726562 187.203125 168.496094 187.484375 168.496094 L 187.496094 168.496094 L 187.496094 159.175781 L 195.886719 159.175781 L 195.886719 168.496094 L 195.992188 168.496094 C 196.269531 168.496094 196.5 168.726562 196.5 169.007812 L 196.5 169.410156 C 196.5 169.6875 196.269531 169.917969 195.992188 169.917969 L 195.886719 169.917969 L 195.886719 185.351562 L 195.992188 185.351562 C 196.269531 185.351562 196.5 185.582031 196.5 185.863281 L 196.5 186.265625 C 196.5 186.542969 196.269531 186.773438 195.992188 186.773438 L 195.886719 186.773438 L 195.886719 202.207031 L 195.992188 202.207031 C 196.269531 202.207031 196.5 202.4375 196.5 202.71875 L 196.5 203.121094 C 196.5 203.402344 196.269531 203.628906 195.992188 203.628906 L 195.886719 203.628906 L 195.886719 219.066406 L 195.992188 219.066406 C 196.269531 219.066406 196.5 219.292969 196.5 219.574219 L 196.5 219.976562 C 196.5 220.257812 196.269531 220.484375 195.992188 220.484375 L 195.886719 220.484375 L 195.886719 229.71875 C 196.222656 227.601562 198.054688 225.988281 200.261719 225.988281 L 200.605469 225.988281 C 200.605469 225.96875 200.597656 225.949219 200.597656 225.929688 C 200.597656 224.683594 201.617188 223.664062 202.863281 223.664062 L 203.164062 223.664062 C 201.527344 221.082031 200.621094 218.257812 200.601562 215.300781 C 200.597656 215.269531 200.597656 215.238281 200.597656 215.210938 C 200.597656 214.234375 200.695312 213.273438 200.882812 212.332031 C 200.882812 212.324219 200.886719 212.320312 200.886719 212.3125 C 203.324219 199.191406 220.660156 188.113281 230.035156 183 C 230.03125 182.992188 230.023438 182.992188 230.023438 182.988281 C 229.363281 182.308594 228.984375 181.507812 228.980469 180.648438 C 228.976562 180.644531 228.976562 180.636719 228.976562 180.632812 C 228.976562 180.4375 228.996094 180.246094 229.035156 180.058594 C 229.53125 177.382812 233.132812 175.140625 234.957031 174.160156 C 234.960938 173.929688 234.96875 173.703125 234.96875 173.476562 C 233.929688 173.175781 233.191406 172.445312 233.191406 171.585938 C 233.191406 170.710938 233.960938 169.96875 235.035156 169.679688 C 235.050781 168.796875 235.066406 167.925781 235.082031 167.0625 C 234.410156 166.816406 233.945312 166.316406 233.945312 165.734375 C 233.945312 165.136719 234.4375 164.625 235.136719 164.382812 C 235.320312 155.800781 235.558594 148.832031 235.859375 146.964844 C 230.667969 146.875 226.484375 142.644531 226.484375 137.4375 C 226.484375 137.167969 226.5 136.898438 226.519531 136.632812 C 226.886719 140.714844 230.316406 143.910156 234.492188 143.910156 C 238.910156 143.910156 242.496094 140.324219 242.496094 135.90625 C 242.496094 131.730469 239.300781 128.304688 235.21875 127.933594 C 235.484375 127.914062 235.75 127.902344 236.023438 127.902344 C 241.289062 127.902344 245.558594 132.171875 245.558594 137.4375 C 245.558594 142.648438 241.375 146.875 236.183594 146.964844 C 236.484375 148.832031 236.722656 155.800781 236.902344 164.382812 C 237.609375 164.625 238.097656 165.136719 238.097656 165.734375 C 238.097656 166.316406 237.632812 166.816406 236.957031 167.0625 C 236.976562 167.925781 236.992188 168.796875 237.007812 169.679688 C 238.082031 169.96875 238.851562 170.710938 238.851562 171.585938 C 238.851562 172.445312 238.113281 173.175781 237.070312 173.476562 C 237.078125 173.703125 237.078125 173.929688 237.082031 174.160156 C 238.910156 175.140625 242.511719 177.382812 243.007812 180.058594 C 243.042969 180.246094 243.0625 180.4375 243.0625 180.632812 C 243.0625 180.636719 243.0625 180.644531 243.0625 180.648438 C 243.058594 181.507812 242.675781 182.308594 242.023438 182.988281 C 242.015625 182.992188 242.011719 182.992188 242.007812 183 C 251.382812 188.113281 268.71875 199.191406 271.15625 212.320312 C 271.15625 212.324219 271.15625 212.324219 271.15625 212.332031 C 271.347656 213.273438 271.441406 214.234375 271.441406 215.210938 C 271.441406 215.238281 271.441406 215.269531 271.441406 215.300781 C 271.425781 218.292969 270.492188 221.148438 268.820312 223.761719 C 269.769531 224.027344 270.472656 224.894531 270.472656 225.929688 C 270.472656 225.949219 270.46875 225.96875 270.46875 225.988281 L 271.78125 225.988281 C 273.96875 225.988281 275.789062 227.574219 276.144531 229.664062 L 276.144531 220.484375 L 276.132812 220.484375 C 275.851562 220.484375 275.625 220.257812 275.625 219.976562 L 275.625 219.574219 C 275.625 219.292969 275.851562 219.066406 276.132812 219.066406 L 276.144531 219.066406 L 276.144531 203.628906 L 276.132812 203.628906 C 275.851562 203.628906 275.625 203.402344 275.625 203.121094 L 275.625 202.71875 C 275.625 202.4375 275.851562 202.207031 276.132812 202.207031 L 276.144531 202.207031 L 276.144531 186.773438 L 276.132812 186.773438 C 275.851562 186.773438 275.625 186.542969 275.625 186.265625 L 275.625 185.863281 C 275.625 185.582031 275.851562 185.351562 276.132812 185.351562 L 276.144531 185.351562 L 276.144531 169.917969 L 276.132812 169.917969 C 275.851562 169.917969 275.625 169.6875 275.625 169.410156 L 275.625 169.007812 C 275.625 168.726562 275.851562 168.496094 276.132812 168.496094 L 276.144531 168.496094 L 276.144531 159.175781 L 284.535156 159.175781 L 284.535156 168.496094 L 284.640625 168.496094 C 284.917969 168.496094 285.148438 168.726562 285.148438 169.007812 L 285.148438 169.410156 C 285.148438 169.6875 284.917969 169.917969 284.640625 169.917969 L 284.535156 169.917969 L 284.535156 185.351562 L 284.640625 185.351562 C 284.917969 185.351562 285.148438 185.582031 285.148438 185.863281 L 285.148438 186.265625 C 285.148438 186.542969 284.917969 186.773438 284.640625 186.773438 L 284.535156 186.773438 L 284.535156 202.207031 L 284.640625 202.207031 C 284.917969 202.207031 285.148438 202.4375 285.148438 202.71875 L 285.148438 203.121094 C 285.148438 203.402344 284.917969 203.628906 284.640625 203.628906 L 284.535156 203.628906 L 284.535156 219.066406 L 284.640625 219.066406 C 284.917969 219.066406 285.148438 219.292969 285.148438 219.574219 L 285.148438 219.976562 C 285.148438 220.257812 284.917969 220.484375 284.640625 220.484375 L 284.535156 220.484375 L 284.535156 235.921875 L 284.640625 235.921875 C 284.917969 235.921875 285.148438 236.152344 285.148438 236.429688 L 285.148438 236.832031 C 285.148438 237.113281 284.917969 237.339844 284.640625 237.339844 L 284.535156 237.339844 L 284.535156 250.207031 C 303.570312 224.183594 314.816406 192.105469 314.816406 157.390625 C 314.816406 75.3125 251.984375 7.90625 171.796875 0.648438 C 176.980469 0.21875 182.222656 0 187.519531 0 C 291.0625 0 375 83.9375 375 187.480469 C 375 291.023438 291.0625 374.960938 187.519531 374.960938 C 83.976562 374.960938 0.0390625 291.023438 0.0390625 187.480469 C 0.0390625 182.1875 0.257812 176.945312 0.6875 171.761719 " fill-opacity="1" fill-rule="nonzero"/><path fill="#a1a1a1" d="M 173.78125 40.421875 L 183.976562 33.410156 L 176.96875 43.492188 L 195.347656 44.964844 L 176.96875 46.574219 L 185.113281 58.882812 L 173.78125 50.734375 L 171.808594 76.316406 L 169.835938 50.734375 L 159.070312 58.316406 L 166.648438 47.191406 L 147.699219 45.578125 L 166.648438 43.964844 L 159.070312 32.839844 L 169.835938 40.421875 L 171.738281 16.296875 L 171.796875 0.648438 L 171.878906 16.296875 L 173.78125 40.421875 " fill-opacity="1" fill-rule="nonzero"/></svg>