<svg xmlns="http://www.w3.org/2000/svg" xmlns:xlink="http://www.w3.org/1999/xlink" width="500" zoomAndPan="magnify" viewBox="0 0 375 374.999991" height="500" preserveAspectRatio="xMidYMid meet" version="1.0"><path fill="#a1a1a1" d="M 187.5 88.570312 C 133.113281 88.570312 88.570312 133.113281 88.570312 187.5 C 88.570312 241.886719 133.113281 286.429688 187.5 286.429688 C 241.886719 286.429688 286.429688 241.886719 286.429688 187.5 C 286.429688 133.113281 241.886719 88.570312 187.5 88.570312 Z M 187.5 265.710938 C 144.507812 265.710938 109.289062 230.492188 109.289062 187.5 C 109.289062 144.507812 144.507812 109.289062 187.5 109.289062 C 230.492188 109.289062 265.710938 144.507812 265.710938 187.5 C 265.710938 230.492188 230.492188 265.710938 187.5 265.710938 Z M 187.5 265.710938 " fill-opacity="1" fill-rule="nonzero"/><path fill="#a1a1a1" d="M 187.5 60.082031 C 193.199219 60.082031 197.859375 55.421875 197.859375 49.722656 L 197.859375 10.359375 C 197.859375 4.660156 193.199219 0 187.5 0 C 181.800781 0 177.140625 4.660156 177.140625 10.359375 L 177.140625 49.722656 C 177.140625 55.421875 181.800781 60.082031 187.5 60.082031 Z M 187.5 60.082031 " fill-opacity="1" fill-rule="nonzero"/><path fill="#a1a1a1" d="M 187.5 314.917969 C 181.800781 314.917969 177.140625 319.578125 177.140625 325.277344 L 177.140625 364.640625 C 177.140625 370.339844 181.800781 375 187.5 375 C 193.199219 375 197.859375 370.339844 197.859375 364.640625 L 197.859375 325.277344 C 197.859375 319.578125 193.199219 314.917969 187.5 314.917969 Z M 187.5 314.917969 " fill-opacity="1" fill-rule="nonzero"/><path fill="#a1a1a1" d="M 284.875 100.484375 C 287.464844 100.484375 290.054688 99.449219 292.128906 97.375 L 320.097656 69.40625 C 324.242188 65.261719 324.242188 59.046875 320.097656 54.902344 C 315.953125 50.757812 309.738281 50.757812 305.59375 54.902344 L 277.625 82.871094 C 273.480469 87.015625 273.480469 93.230469 277.625 97.375 C 279.695312 99.449219 282.285156 100.484375 284.875 100.484375 Z M 284.875 100.484375 " fill-opacity="1" fill-rule="nonzero"/><path fill="#a1a1a1" d="M 82.871094 277.625 L 54.902344 305.59375 C 50.757812 309.738281 50.757812 315.953125 54.902344 320.097656 C 56.976562 322.167969 59.566406 323.203125 62.15625 323.203125 C 64.746094 323.203125 67.335938 322.167969 69.40625 320.097656 L 97.375 292.128906 C 101.519531 287.984375 101.519531 281.769531 97.375 277.625 C 93.230469 273.480469 87.015625 273.480469 82.871094 277.625 Z M 82.871094 277.625 " fill-opacity="1" fill-rule="nonzero"/><path fill="#a1a1a1" d="M 60.082031 187.5 C 60.082031 181.800781 55.421875 177.140625 49.722656 177.140625 L 10.359375 177.140625 C 4.660156 177.140625 0 181.800781 0 187.5 C 0 193.199219 4.660156 197.859375 10.359375 197.859375 L 49.722656 197.859375 C 55.421875 197.859375 60.082031 193.199219 60.082031 187.5 Z M 60.082031 187.5 " fill-opacity="1" fill-rule="nonzero"/><path fill="#a1a1a1" d="M 364.640625 177.140625 L 325.277344 177.140625 C 319.578125 177.140625 314.917969 181.800781 314.917969 187.5 C 314.917969 193.199219 319.578125 197.859375 325.277344 197.859375 L 364.640625 197.859375 C 370.339844 197.859375 375 193.199219 375 187.5 C 375 181.800781 370.339844 177.140625 364.640625 177.140625 Z M 364.640625 177.140625 " fill-opacity="1" fill-rule="nonzero"/><path fill="#a1a1a1" d="M 82.871094 97.375 C 84.945312 99.449219 87.535156 100.484375 90.125 100.484375 C 92.714844 100.484375 95.304688 99.449219 97.375 97.375 C 101.519531 93.230469 101.519531 87.015625 97.375 82.871094 L 69.40625 54.902344 C 65.261719 50.757812 59.046875 50.757812 54.902344 54.902344 C 50.757812 59.046875 50.757812 65.261719 54.902344 69.40625 Z M 82.871094 97.375 " fill-opacity="1" fill-rule="nonzero"/><path fill="#a1a1a1" d="M 292.128906 277.625 C 287.984375 273.480469 281.769531 273.480469 277.625 277.625 C 273.480469 281.769531 273.480469 287.984375 277.625 292.128906 L 305.59375 320.097656 C 307.664062 322.167969 310.253906 323.203125 312.84375 323.203125 C 315.433594 323.203125 318.023438 322.167969 320.097656 320.097656 C 324.242188 315.953125 324.242188 309.738281 320.097656 305.59375 Z M 292.128906 277.625 " fill-opacity="1" fill-rule="nonzero"/></svg>