<svg xmlns="http://www.w3.org/2000/svg" xmlns:xlink="http://www.w3.org/1999/xlink" width="500" zoomAndPan="magnify" viewBox="0 0 375 374.999991" height="500" preserveAspectRatio="xMidYMid meet" version="1.0"><defs><clipPath id="40cea7b372"><path d="M 175 91.582031 L 200 91.582031 L 200 142 L 175 142 Z M 175 91.582031 " clip-rule="nonzero"/></clipPath><clipPath id="1af5210e5f"><path d="M 279 220 L 328.984375 220 L 328.984375 246 L 279 246 Z M 279 220 " clip-rule="nonzero"/></clipPath><clipPath id="bae7d021a5"><path d="M 46.234375 220 L 96 220 L 96 246 L 46.234375 246 Z M 46.234375 220 " clip-rule="nonzero"/></clipPath><clipPath id="6a605637dd"><path d="M 107 153 L 268 153 L 268 257.332031 L 107 257.332031 Z M 107 153 " clip-rule="nonzero"/></clipPath></defs><g clip-path="url(#40cea7b372)"><path fill="#ffffff" d="M 182.835938 134.210938 L 192.160156 134.210938 L 187.5 112.003906 Z M 196.453125 141.171875 L 178.550781 141.171875 C 177.5 141.171875 176.507812 140.699219 175.84375 139.886719 C 175.183594 139.070312 174.925781 138 175.140625 136.976562 L 184.09375 94.351562 C 184.429688 92.738281 185.851562 91.585938 187.5 91.585938 C 189.144531 91.585938 190.570312 92.738281 190.90625 94.351562 L 199.859375 136.976562 C 200.070312 138 199.816406 139.070312 199.152344 139.886719 C 198.492188 140.699219 197.5 141.171875 196.453125 141.171875 " fill-opacity="1" fill-rule="nonzero"/></g><path fill="#ffffff" d="M 253.949219 159.800781 L 260.542969 166.394531 L 272.945312 147.398438 Z M 261.113281 175.371094 C 260.195312 175.371094 259.308594 175.007812 258.652344 174.351562 L 245.992188 161.691406 C 245.253906 160.953125 244.886719 159.914062 244.992188 158.871094 C 245.097656 157.828125 245.671875 156.890625 246.550781 156.3125 L 283.019531 132.503906 C 284.402344 131.605469 286.222656 131.792969 287.386719 132.957031 C 288.550781 134.121094 288.742188 135.945312 287.839844 137.324219 L 264.03125 173.792969 C 263.457031 174.671875 262.519531 175.242188 261.472656 175.351562 C 261.355469 175.367188 261.234375 175.371094 261.113281 175.371094 " fill-opacity="1" fill-rule="nonzero"/><g clip-path="url(#1af5210e5f)"><path fill="#ffffff" d="M 286.136719 228.183594 L 286.136719 237.507812 L 308.339844 232.84375 Z M 282.65625 245.277344 C 281.863281 245.277344 281.085938 245.007812 280.460938 244.5 C 279.648438 243.839844 279.171875 242.84375 279.171875 241.796875 L 279.171875 223.894531 C 279.171875 222.847656 279.648438 221.851562 280.460938 221.191406 C 281.277344 220.53125 282.34375 220.273438 283.371094 220.488281 L 325.996094 229.4375 C 327.609375 229.777344 328.761719 231.199219 328.761719 232.84375 C 328.761719 234.492188 327.609375 235.914062 325.996094 236.25 L 283.371094 245.203125 C 283.132812 245.253906 282.894531 245.277344 282.65625 245.277344 " fill-opacity="1" fill-rule="nonzero"/></g><g clip-path="url(#bae7d021a5)"><path fill="#ffffff" d="M 66.660156 232.84375 L 88.863281 237.507812 L 88.863281 228.183594 Z M 92.34375 245.277344 C 92.105469 245.277344 91.867188 245.253906 91.628906 245.203125 L 49.003906 236.25 C 47.394531 235.914062 46.238281 234.492188 46.238281 232.84375 C 46.238281 231.199219 47.394531 229.777344 49.003906 229.4375 L 91.628906 220.488281 C 92.65625 220.273438 93.722656 220.53125 94.539062 221.191406 C 95.351562 221.851562 95.828125 222.847656 95.828125 223.894531 L 95.828125 241.796875 C 95.828125 242.84375 95.351562 243.839844 94.539062 244.5 C 93.914062 245.007812 93.136719 245.277344 92.34375 245.277344 " fill-opacity="1" fill-rule="nonzero"/></g><path fill="#ffffff" d="M 102.054688 147.398438 L 114.457031 166.394531 L 121.050781 159.800781 Z M 113.886719 175.371094 C 113.765625 175.371094 113.644531 175.367188 113.523438 175.351562 C 112.480469 175.242188 111.542969 174.671875 110.972656 173.792969 L 87.160156 137.324219 C 86.261719 135.945312 86.449219 134.121094 87.613281 132.957031 C 88.777344 131.792969 90.601562 131.605469 91.976562 132.503906 L 128.449219 156.3125 C 129.324219 156.890625 129.898438 157.828125 130.007812 158.871094 C 130.117188 159.914062 129.746094 160.953125 129.003906 161.691406 L 116.347656 174.351562 C 115.691406 175.007812 114.804688 175.371094 113.886719 175.371094 " fill-opacity="1" fill-rule="nonzero"/><g clip-path="url(#6a605637dd)"><path fill="#ffffff" d="M 187.5 160.28125 C 168.019531 160.28125 149.707031 167.867188 135.933594 181.644531 C 122.15625 195.414062 114.570312 213.730469 114.570312 233.210938 C 114.570312 252.691406 122.15625 271.003906 135.933594 284.777344 C 149.707031 298.554688 168.019531 306.136719 187.5 306.136719 C 206.980469 306.136719 225.292969 298.554688 239.066406 284.777344 C 252.84375 271.003906 260.429688 252.691406 260.429688 233.210938 C 260.429688 213.730469 252.84375 195.414062 239.066406 181.644531 C 225.292969 167.867188 206.980469 160.28125 187.5 160.28125 Z M 187.5 313.097656 C 166.160156 313.097656 146.097656 304.792969 131.007812 289.703125 C 115.917969 274.613281 107.609375 254.550781 107.609375 233.210938 C 107.609375 211.871094 115.917969 191.808594 131.007812 176.71875 C 146.097656 161.628906 166.160156 153.316406 187.5 153.316406 C 208.839844 153.316406 228.902344 161.628906 243.992188 176.71875 C 259.082031 191.808594 267.394531 211.871094 267.394531 233.210938 C 267.394531 254.550781 259.082031 274.613281 243.992188 289.703125 C 228.902344 304.792969 208.839844 313.097656 187.5 313.097656 " fill-opacity="1" fill-rule="nonzero"/></g><path stroke-linecap="round" transform="matrix(0.75, 0, 0, 0.75, 41.86804, 254.682934)" fill="none" stroke-linejoin="miter" d="M 3.498863 3.50088 L 384.853055 3.50088 " stroke="#ffffff" stroke-width="7" stroke-opacity="1" stroke-miterlimit="4"/></svg>