<svg xmlns="http://www.w3.org/2000/svg" xmlns:xlink="http://www.w3.org/1999/xlink" width="500" zoomAndPan="magnify" viewBox="0 0 375 374.999991" height="500" preserveAspectRatio="xMidYMid meet" version="1.0"><defs><clipPath id="f702ba9637"><path d="M 175 88.980469 L 200 88.980469 L 200 139 L 175 139 Z M 175 88.980469 " clip-rule="nonzero"/></clipPath><clipPath id="1a21116327"><path d="M 107 150 L 268 150 L 268 196.230469 L 107 196.230469 Z M 107 150 " clip-rule="nonzero"/></clipPath></defs><g clip-path="url(#f702ba9637)"><path fill="#ffffff" d="M 182.835938 131.609375 L 192.160156 131.609375 L 187.5 109.40625 Z M 196.453125 138.570312 L 178.550781 138.570312 C 177.5 138.570312 176.507812 138.097656 175.84375 137.285156 C 175.183594 136.46875 174.925781 135.402344 175.140625 134.375 L 184.09375 91.75 C 184.429688 90.136719 185.851562 88.984375 187.5 88.984375 C 189.144531 88.984375 190.570312 90.136719 190.90625 91.75 L 199.859375 134.375 C 200.070312 135.402344 199.816406 136.46875 199.152344 137.285156 C 198.492188 138.097656 197.5 138.570312 196.453125 138.570312 " fill-opacity="1" fill-rule="nonzero"/></g><path fill="#ffffff" d="M 253.949219 157.199219 L 260.542969 163.792969 L 272.945312 144.800781 Z M 261.113281 172.769531 C 260.195312 172.769531 259.308594 172.410156 258.652344 171.75 L 245.992188 159.09375 C 245.253906 158.351562 244.886719 157.316406 244.992188 156.269531 C 245.097656 155.226562 245.671875 154.289062 246.550781 153.714844 L 283.019531 129.902344 C 284.402344 129.003906 286.222656 129.195312 287.386719 130.359375 C 288.550781 131.523438 288.742188 133.34375 287.839844 134.722656 L 264.03125 171.191406 C 263.457031 172.070312 262.519531 172.640625 261.472656 172.75 C 261.355469 172.765625 261.234375 172.769531 261.113281 172.769531 " fill-opacity="1" fill-rule="nonzero"/><path fill="#ffffff" d="M 102.054688 144.800781 L 114.457031 163.792969 L 121.050781 157.199219 Z M 113.886719 172.769531 C 113.765625 172.769531 113.644531 172.765625 113.523438 172.75 C 112.480469 172.640625 111.542969 172.070312 110.972656 171.191406 L 87.160156 134.722656 C 86.261719 133.34375 86.449219 131.523438 87.613281 130.359375 C 88.777344 129.195312 90.601562 129.003906 91.976562 129.902344 L 128.449219 153.714844 C 129.324219 154.289062 129.898438 155.226562 130.007812 156.269531 C 130.117188 157.316406 129.746094 158.351562 129.003906 159.09375 L 116.347656 171.75 C 115.691406 172.410156 114.804688 172.769531 113.886719 172.769531 " fill-opacity="1" fill-rule="nonzero"/><g clip-path="url(#1a21116327)"><path fill="#ffffff" d="M 187.5 157.679688 C 168.019531 157.679688 149.707031 165.265625 135.933594 179.042969 C 122.15625 192.816406 114.570312 211.132812 114.570312 230.609375 C 114.570312 250.089844 122.15625 268.40625 135.933594 282.175781 C 149.707031 295.953125 168.019531 303.535156 187.5 303.535156 C 206.980469 303.535156 225.292969 295.953125 239.066406 282.175781 C 252.84375 268.40625 260.429688 250.089844 260.429688 230.609375 C 260.429688 211.132812 252.84375 192.816406 239.066406 179.042969 C 225.292969 165.265625 206.980469 157.679688 187.5 157.679688 Z M 187.5 310.5 C 166.160156 310.5 146.097656 302.191406 131.007812 287.101562 C 115.917969 272.011719 107.609375 251.949219 107.609375 230.609375 C 107.609375 209.269531 115.917969 189.207031 131.007812 174.117188 C 146.097656 159.027344 166.160156 150.71875 187.5 150.71875 C 208.839844 150.71875 228.902344 159.027344 243.992188 174.117188 C 259.082031 189.207031 267.394531 209.269531 267.394531 230.609375 C 267.394531 251.949219 259.082031 272.011719 243.992188 287.101562 C 228.902344 302.191406 208.839844 310.5 187.5 310.5 " fill-opacity="1" fill-rule="nonzero"/></g><path stroke-linecap="round" transform="matrix(0.75, 0, 0, 0.75, 41.86804, 195.141256)" fill="none" stroke-linejoin="miter" d="M 3.498863 3.499159 L 384.853055 3.499159 " stroke="#ffffff" stroke-width="7" stroke-opacity="1" stroke-miterlimit="4"/></svg>